<svg width="32" height="32" viewBox="0 0 32 32" fill="none" xmlns="http://www.w3.org/2000/svg">
<path d="M16 5.33331C10.108 5.33331 5.33337 10.1093 5.33337 16C5.33337 21.8906 10.108 26.6666 16 26.6666C21.892 26.6666 26.6667 21.8906 26.6667 16C26.6667 10.1093 21.892 5.33331 16 5.33331ZM20.9427 19.0573C21.1927 19.3073 21.3332 19.6464 21.3332 20C21.3332 20.3535 21.1927 20.6926 20.9427 20.9426C20.6927 21.1927 20.3536 21.3331 20 21.3331C19.6465 21.3331 19.3074 21.1927 19.0574 20.9426L16 17.8853L12.9427 20.9426C12.8192 21.0669 12.6723 21.1655 12.5105 21.2328C12.3487 21.3001 12.1753 21.3347 12 21.3347C11.8248 21.3347 11.6513 21.3001 11.4896 21.2328C11.3278 21.1655 11.1809 21.0669 11.0574 20.9426C10.9334 20.8189 10.8351 20.672 10.768 20.5102C10.701 20.3485 10.6664 20.1751 10.6664 20C10.6664 19.8249 10.701 19.6515 10.768 19.4897C10.8351 19.328 10.9334 19.181 11.0574 19.0573L14.1147 16L11.0574 12.9426C10.8074 12.6926 10.6669 12.3535 10.6669 12C10.6669 11.6464 10.8074 11.3073 11.0574 11.0573C11.3074 10.8073 11.6465 10.6668 12 10.6668C12.3536 10.6668 12.6927 10.8073 12.9427 11.0573L16 14.1146L19.0574 11.0573C19.3074 10.8073 19.6465 10.6668 20 10.6668C20.3536 10.6668 20.6927 10.8073 20.9427 11.0573C21.1927 11.3073 21.3332 11.6464 21.3332 12C21.3332 12.3535 21.1927 12.6926 20.9427 12.9426L17.8854 16L20.9427 19.0573Z" fill="#DEDEE0"/>
</svg>
