<svg width="18" height="18" viewBox="0 0 18 18" fill="none" xmlns="http://www.w3.org/2000/svg">
<path d="M2.25 12.9375V15.75H5.0625L13.3575 7.455L10.545 4.6425L2.25 12.9375ZM15.5325 5.28C15.602 5.21062 15.6572 5.1282 15.6948 5.03747C15.7325 4.94674 15.7518 4.84948 15.7518 4.75125C15.7518 4.65303 15.7325 4.55576 15.6948 4.46503C15.6572 4.3743 15.602 4.29189 15.5325 4.2225L13.7775 2.4675C13.7081 2.39797 13.6257 2.34281 13.535 2.30518C13.4442 2.26754 13.347 2.24817 13.2488 2.24817C13.1505 2.24817 13.0533 2.26754 12.9625 2.30518C12.8718 2.34281 12.7894 2.39797 12.72 2.4675L11.3475 3.84L14.16 6.6525L15.5325 5.28Z" fill="#DADADA"/>
</svg>
