<svg width="302" height="218" viewBox="0 0 302 218" fill="none" xmlns="http://www.w3.org/2000/svg">
<g filter="url(#filter0_d_13_192)">
<rect x="4.33777" width="293.169" height="210" rx="10" fill="#3E3E40"/>
</g>
<path d="M4.33777 10C4.33777 4.47715 8.81492 0 14.3378 0H287.338C292.861 0 297.338 4.47715 297.338 10V60H4.33777V10Z" fill="#2F2F31"/>
<path d="M92.3378 38H89.3178V31.84H83.6578V38H80.6378V23.72H83.6578V29.32H89.3178V23.72H92.3378V38ZM100.171 26.86C101.637 26.86 102.757 27.18 103.531 27.82C104.317 28.4467 104.711 29.4133 104.711 30.72V38H102.631L102.051 36.52H101.971C101.664 36.9067 101.344 37.2267 101.011 37.48C100.691 37.7333 100.317 37.9133 99.8907 38.02C99.4774 38.14 98.9641 38.2 98.3507 38.2C97.7107 38.2 97.1307 38.08 96.6107 37.84C96.1041 37.5867 95.7041 37.2067 95.4107 36.7C95.1174 36.18 94.9707 35.5267 94.9707 34.74C94.9707 33.58 95.3774 32.7267 96.1907 32.18C97.0041 31.62 98.2241 31.3133 99.8507 31.26L101.751 31.2V30.72C101.751 30.1467 101.597 29.7267 101.291 29.46C100.997 29.1933 100.584 29.06 100.051 29.06C99.5174 29.06 98.9974 29.14 98.4907 29.3C97.9841 29.4467 97.4774 29.6333 96.9707 29.86L95.9907 27.84C96.5774 27.5333 97.2241 27.2933 97.9307 27.12C98.6507 26.9467 99.3974 26.86 100.171 26.86ZM100.591 32.98C99.6307 33.0067 98.9641 33.18 98.5907 33.5C98.2174 33.82 98.0307 34.24 98.0307 34.76C98.0307 35.2133 98.1641 35.54 98.4307 35.74C98.6974 35.9267 99.0441 36.02 99.4707 36.02C100.111 36.02 100.651 35.8333 101.091 35.46C101.531 35.0733 101.751 34.5333 101.751 33.84V32.94L100.591 32.98ZM113.961 26.88C115.134 26.88 116.074 27.2 116.781 27.84C117.488 28.4667 117.841 29.48 117.841 30.88V38H114.861V31.62C114.861 30.8333 114.721 30.2467 114.441 29.86C114.161 29.46 113.714 29.26 113.101 29.26C112.194 29.26 111.574 29.5733 111.241 30.2C110.908 30.8133 110.741 31.7 110.741 32.86V38H107.761V27.08H110.041L110.441 28.48H110.601C110.841 28.1067 111.134 27.8067 111.481 27.58C111.828 27.34 112.214 27.1667 112.641 27.06C113.068 26.94 113.508 26.88 113.961 26.88ZM124.366 38.2C123.152 38.2 122.159 37.7267 121.386 36.78C120.626 35.82 120.246 34.4133 120.246 32.56C120.246 30.6933 120.632 29.28 121.406 28.32C122.179 27.36 123.192 26.88 124.446 26.88C124.966 26.88 125.426 26.9533 125.826 27.1C126.226 27.2333 126.566 27.42 126.846 27.66C127.139 27.9 127.386 28.1733 127.586 28.48H127.686C127.646 28.2667 127.599 27.96 127.546 27.56C127.492 27.1467 127.466 26.7267 127.466 26.3V22.8H130.446V38H128.166L127.586 36.58H127.466C127.279 36.8733 127.039 37.1467 126.746 37.4C126.466 37.64 126.132 37.8333 125.746 37.98C125.359 38.1267 124.899 38.2 124.366 38.2ZM125.406 35.82C126.232 35.82 126.812 35.58 127.146 35.1C127.479 34.6067 127.652 33.8733 127.666 32.9V32.58C127.666 31.5133 127.499 30.7 127.166 30.14C126.846 29.58 126.246 29.3 125.366 29.3C124.712 29.3 124.199 29.5867 123.826 30.16C123.452 30.72 123.266 31.5333 123.266 32.6C123.266 33.6667 123.452 34.4733 123.826 35.02C124.199 35.5533 124.726 35.82 125.406 35.82ZM136.542 38H133.562V22.8H136.542V38ZM142.636 27.08V38H139.656V27.08H142.636ZM141.156 22.8C141.596 22.8 141.976 22.9067 142.296 23.12C142.616 23.32 142.776 23.7 142.776 24.26C142.776 24.8067 142.616 25.1867 142.296 25.4C141.976 25.6133 141.596 25.72 141.156 25.72C140.702 25.72 140.316 25.6133 139.996 25.4C139.689 25.1867 139.536 24.8067 139.536 24.26C139.536 23.7 139.689 23.32 139.996 23.12C140.316 22.9067 140.702 22.8 141.156 22.8ZM151.949 26.88C153.123 26.88 154.063 27.2 154.769 27.84C155.476 28.4667 155.829 29.48 155.829 30.88V38H152.849V31.62C152.849 30.8333 152.709 30.2467 152.429 29.86C152.149 29.46 151.703 29.26 151.089 29.26C150.183 29.26 149.563 29.5733 149.229 30.2C148.896 30.8133 148.729 31.7 148.729 32.86V38H145.749V27.08H148.029L148.429 28.48H148.589C148.829 28.1067 149.123 27.8067 149.469 27.58C149.816 27.34 150.203 27.1667 150.629 27.06C151.056 26.94 151.496 26.88 151.949 26.88ZM162.434 26.88C163.101 26.88 163.701 27.0133 164.234 27.28C164.767 27.5467 165.221 27.9467 165.594 28.48H165.674L165.914 27.08H168.434V38.02C168.434 39.06 168.227 39.9333 167.814 40.64C167.414 41.3467 166.807 41.88 165.994 42.24C165.181 42.6133 164.174 42.8 162.974 42.8C162.201 42.8 161.481 42.7533 160.814 42.66C160.161 42.5667 159.521 42.4 158.894 42.16V39.78C159.347 39.9667 159.801 40.12 160.254 40.24C160.721 40.3733 161.194 40.4667 161.674 40.52C162.167 40.5867 162.661 40.62 163.154 40.62C163.927 40.62 164.501 40.4133 164.874 40C165.261 39.5867 165.454 38.9667 165.454 38.14V37.92C165.454 37.6933 165.461 37.46 165.474 37.22C165.501 36.98 165.521 36.7667 165.534 36.58H165.454C165.081 37.1533 164.634 37.5667 164.114 37.82C163.594 38.0733 163.007 38.2 162.354 38.2C161.061 38.2 160.047 37.7067 159.314 36.72C158.594 35.72 158.234 34.3333 158.234 32.56C158.234 31.36 158.401 30.34 158.734 29.5C159.067 28.6467 159.547 28 160.174 27.56C160.814 27.1067 161.567 26.88 162.434 26.88ZM163.374 29.3C162.907 29.3 162.514 29.4267 162.194 29.68C161.887 29.92 161.654 30.2867 161.494 30.78C161.347 31.26 161.274 31.8667 161.274 32.6C161.274 33.6933 161.447 34.5133 161.794 35.06C162.141 35.5933 162.681 35.86 163.414 35.86C163.801 35.86 164.134 35.8133 164.414 35.72C164.694 35.6133 164.921 35.4467 165.094 35.22C165.281 34.98 165.421 34.6733 165.514 34.3C165.607 33.9267 165.654 33.4733 165.654 32.94V32.58C165.654 31.7933 165.574 31.16 165.414 30.68C165.254 30.2 165.007 29.8533 164.674 29.64C164.341 29.4133 163.907 29.3 163.374 29.3ZM179.17 34.76C179.17 35.4933 178.997 36.12 178.65 36.64C178.303 37.1467 177.783 37.5333 177.09 37.8C176.397 38.0667 175.537 38.2 174.51 38.2C173.75 38.2 173.097 38.1467 172.55 38.04C172.003 37.9467 171.457 37.7867 170.91 37.56V35.1C171.497 35.3667 172.13 35.5867 172.81 35.76C173.49 35.9333 174.09 36.02 174.61 36.02C175.197 36.02 175.61 35.9333 175.85 35.76C176.103 35.5867 176.23 35.36 176.23 35.08C176.23 34.8933 176.177 34.7267 176.07 34.58C175.977 34.4333 175.763 34.2667 175.43 34.08C175.097 33.8933 174.577 33.6533 173.87 33.36C173.19 33.0667 172.63 32.78 172.19 32.5C171.75 32.2067 171.423 31.86 171.21 31.46C170.997 31.0467 170.89 30.5333 170.89 29.92C170.89 28.9067 171.283 28.1467 172.07 27.64C172.857 27.1333 173.903 26.88 175.21 26.88C175.89 26.88 176.537 26.9467 177.15 27.08C177.763 27.2133 178.397 27.4333 179.05 27.74L178.15 29.88C177.79 29.72 177.443 29.58 177.11 29.46C176.777 29.34 176.45 29.2467 176.13 29.18C175.823 29.1133 175.503 29.08 175.17 29.08C174.73 29.08 174.397 29.14 174.17 29.26C173.957 29.38 173.85 29.56 173.85 29.8C173.85 29.9733 173.903 30.1333 174.01 30.28C174.13 30.4133 174.35 30.56 174.67 30.72C175.003 30.88 175.49 31.0933 176.13 31.36C176.757 31.6133 177.297 31.88 177.75 32.16C178.203 32.4267 178.55 32.7667 178.79 33.18C179.043 33.58 179.17 34.1067 179.17 34.76ZM184.472 38H181.492V22.8H184.472V38ZM190.565 27.08V38H187.585V27.08H190.565ZM189.085 22.8C189.525 22.8 189.905 22.9067 190.225 23.12C190.545 23.32 190.705 23.7 190.705 24.26C190.705 24.8067 190.545 25.1867 190.225 25.4C189.905 25.6133 189.525 25.72 189.085 25.72C188.632 25.72 188.245 25.6133 187.925 25.4C187.619 25.1867 187.465 24.8067 187.465 24.26C187.465 23.7 187.619 23.32 187.925 23.12C188.245 22.9067 188.632 22.8 189.085 22.8ZM201.299 34.76C201.299 35.4933 201.126 36.12 200.779 36.64C200.432 37.1467 199.912 37.5333 199.219 37.8C198.526 38.0667 197.666 38.2 196.639 38.2C195.879 38.2 195.226 38.1467 194.679 38.04C194.132 37.9467 193.586 37.7867 193.039 37.56V35.1C193.626 35.3667 194.259 35.5867 194.939 35.76C195.619 35.9333 196.219 36.02 196.739 36.02C197.326 36.02 197.739 35.9333 197.979 35.76C198.232 35.5867 198.359 35.36 198.359 35.08C198.359 34.8933 198.306 34.7267 198.199 34.58C198.106 34.4333 197.892 34.2667 197.559 34.08C197.226 33.8933 196.706 33.6533 195.999 33.36C195.319 33.0667 194.759 32.78 194.319 32.5C193.879 32.2067 193.552 31.86 193.339 31.46C193.126 31.0467 193.019 30.5333 193.019 29.92C193.019 28.9067 193.412 28.1467 194.199 27.64C194.986 27.1333 196.032 26.88 197.339 26.88C198.019 26.88 198.666 26.9467 199.279 27.08C199.892 27.2133 200.526 27.4333 201.179 27.74L200.279 29.88C199.919 29.72 199.572 29.58 199.239 29.46C198.906 29.34 198.579 29.2467 198.259 29.18C197.952 29.1133 197.632 29.08 197.299 29.08C196.859 29.08 196.526 29.14 196.299 29.26C196.086 29.38 195.979 29.56 195.979 29.8C195.979 29.9733 196.032 30.1333 196.139 30.28C196.259 30.4133 196.479 30.56 196.799 30.72C197.132 30.88 197.619 31.0933 198.259 31.36C198.886 31.6133 199.426 31.88 199.879 32.16C200.332 32.4267 200.679 32.7667 200.919 33.18C201.172 33.58 201.299 34.1067 201.299 34.76ZM208.22 35.82C208.554 35.82 208.874 35.7867 209.18 35.72C209.487 35.6533 209.794 35.5733 210.1 35.48V37.7C209.78 37.8333 209.38 37.9467 208.9 38.04C208.434 38.1467 207.92 38.2 207.36 38.2C206.707 38.2 206.12 38.0933 205.6 37.88C205.094 37.6667 204.687 37.3 204.38 36.78C204.087 36.2467 203.94 35.5133 203.94 34.58V29.32H202.52V28.06L204.16 27.06L205.02 24.76H206.92V27.08H209.98V29.32H206.92V34.58C206.92 34.9933 207.04 35.3067 207.28 35.52C207.52 35.72 207.834 35.82 208.22 35.82ZM216.772 26.86C218.239 26.86 219.359 27.18 220.132 27.82C220.919 28.4467 221.312 29.4133 221.312 30.72V38H219.232L218.652 36.52H218.572C218.266 36.9067 217.946 37.2267 217.612 37.48C217.292 37.7333 216.919 37.9133 216.492 38.02C216.079 38.14 215.566 38.2 214.952 38.2C214.312 38.2 213.732 38.08 213.212 37.84C212.706 37.5867 212.306 37.2067 212.012 36.7C211.719 36.18 211.572 35.5267 211.572 34.74C211.572 33.58 211.979 32.7267 212.792 32.18C213.606 31.62 214.826 31.3133 216.452 31.26L218.352 31.2V30.72C218.352 30.1467 218.199 29.7267 217.892 29.46C217.599 29.1933 217.186 29.06 216.652 29.06C216.119 29.06 215.599 29.14 215.092 29.3C214.586 29.4467 214.079 29.6333 213.572 29.86L212.592 27.84C213.179 27.5333 213.826 27.2933 214.532 27.12C215.252 26.9467 215.999 26.86 216.772 26.86ZM217.192 32.98C216.232 33.0067 215.566 33.18 215.192 33.5C214.819 33.82 214.632 34.24 214.632 34.76C214.632 35.2133 214.766 35.54 215.032 35.74C215.299 35.9267 215.646 36.02 216.072 36.02C216.712 36.02 217.252 35.8333 217.692 35.46C218.132 35.0733 218.352 34.5333 218.352 33.84V32.94L217.192 32.98Z" fill="#DEDEE0"/>
<rect x="30.3378" y="156" width="75.2558" height="31" rx="5" fill="#988ACF"/>
<path d="M36.6878 176V167.273H39.9605C40.631 167.273 41.1935 167.398 41.648 167.648C42.1054 167.898 42.4506 168.241 42.6835 168.679C42.9193 169.114 43.0372 169.608 43.0372 170.162C43.0372 170.722 42.9193 171.219 42.6835 171.653C42.4478 172.088 42.0997 172.43 41.6395 172.68C41.1793 172.928 40.6125 173.051 39.9392 173.051H37.7702V171.751H39.7262C40.1182 171.751 40.4392 171.683 40.6892 171.547C40.9392 171.411 41.1239 171.223 41.2432 170.984C41.3654 170.746 41.4264 170.472 41.4264 170.162C41.4264 169.852 41.3654 169.58 41.2432 169.344C41.1239 169.108 40.9378 168.925 40.685 168.794C40.435 168.661 40.1125 168.594 39.7176 168.594H38.2688V176H36.6878ZM44.4105 176V167.273H50.0866V168.598H45.9914V170.967H49.7926V172.293H45.9914V174.675H50.1207V176H44.4105ZM51.6995 176V167.273H54.9723C55.6427 167.273 56.2052 167.389 56.6598 167.622C57.1171 167.855 57.4623 168.182 57.6953 168.602C57.9311 169.02 58.049 169.507 58.049 170.064C58.049 170.624 57.9296 171.109 57.691 171.521C57.4552 171.93 57.1072 172.247 56.647 172.472C56.1867 172.693 55.6214 172.804 54.9509 172.804H52.62V171.491H54.7379C55.1299 171.491 55.4509 171.437 55.7009 171.33C55.9509 171.219 56.1356 171.058 56.2549 170.848C56.3771 170.635 56.4382 170.374 56.4382 170.064C56.4382 169.754 56.3771 169.49 56.2549 169.271C56.1328 169.05 55.9467 168.882 55.6967 168.768C55.4467 168.652 55.1242 168.594 54.7294 168.594H53.2805V176H51.6995ZM56.208 172.045L58.3686 176H56.6044L54.4822 172.045H56.208ZM64.2471 169.672C64.2073 169.3 64.0397 169.01 63.7443 168.803C63.4517 168.595 63.071 168.491 62.6022 168.491C62.2727 168.491 61.99 168.541 61.7542 168.641C61.5184 168.74 61.338 168.875 61.213 169.045C61.088 169.216 61.0241 169.411 61.0213 169.629C61.0213 169.811 61.0625 169.969 61.1448 170.102C61.2301 170.236 61.3451 170.349 61.49 170.443C61.6349 170.534 61.7954 170.611 61.9715 170.673C62.1477 170.736 62.3252 170.788 62.5042 170.831L63.3224 171.036C63.6519 171.112 63.9687 171.216 64.2727 171.347C64.5795 171.477 64.8536 171.642 65.0951 171.841C65.3394 172.04 65.5326 172.28 65.6747 172.561C65.8167 172.842 65.8877 173.172 65.8877 173.55C65.8877 174.061 65.7571 174.511 65.4957 174.901C65.2343 175.287 64.8565 175.589 64.3622 175.808C63.8707 176.024 63.2755 176.132 62.5767 176.132C61.8977 176.132 61.3082 176.027 60.8082 175.817C60.311 175.607 59.9218 175.3 59.6406 174.896C59.3622 174.493 59.2116 174.001 59.1889 173.422H60.7443C60.767 173.726 60.8607 173.979 61.0255 174.18C61.1903 174.382 61.4048 174.533 61.669 174.632C61.936 174.732 62.2343 174.781 62.5639 174.781C62.9076 174.781 63.2088 174.73 63.4673 174.628C63.7286 174.523 63.9332 174.378 64.0809 174.193C64.2286 174.006 64.3039 173.787 64.3068 173.537C64.3039 173.31 64.2372 173.122 64.1065 172.974C63.9758 172.824 63.7926 172.699 63.5568 172.599C63.3238 172.497 63.0511 172.406 62.7386 172.327L61.7457 172.071C61.0269 171.886 60.4588 171.607 60.0411 171.232C59.6264 170.854 59.419 170.352 59.419 169.727C59.419 169.213 59.5582 168.763 59.8366 168.376C60.1178 167.99 60.5 167.69 60.9829 167.477C61.4659 167.261 62.0127 167.153 62.6235 167.153C63.2428 167.153 63.7855 167.261 64.2514 167.477C64.7201 167.69 65.088 167.987 65.3551 168.368C65.6221 168.746 65.7599 169.18 65.7684 169.672H64.2471ZM75.0955 171.636C75.0955 172.577 74.9193 173.382 74.5671 174.053C74.2176 174.72 73.7404 175.232 73.1352 175.587C72.533 175.942 71.8497 176.119 71.0855 176.119C70.3213 176.119 69.6367 175.942 69.0316 175.587C68.4293 175.229 67.952 174.716 67.5997 174.048C67.2503 173.378 67.0756 172.574 67.0756 171.636C67.0756 170.696 67.2503 169.892 67.5997 169.224C67.952 168.554 68.4293 168.041 69.0316 167.686C69.6367 167.331 70.3213 167.153 71.0855 167.153C71.8497 167.153 72.533 167.331 73.1352 167.686C73.7404 168.041 74.2176 168.554 74.5671 169.224C74.9193 169.892 75.0955 170.696 75.0955 171.636ZM73.506 171.636C73.506 170.974 73.4023 170.416 73.1949 169.962C72.9904 169.504 72.7063 169.159 72.3426 168.926C71.979 168.69 71.56 168.572 71.0855 168.572C70.6111 168.572 70.1921 168.69 69.8284 168.926C69.4648 169.159 69.1793 169.504 68.9719 169.962C68.7674 170.416 68.6651 170.974 68.6651 171.636C68.6651 172.298 68.7674 172.858 68.9719 173.315C69.1793 173.77 69.4648 174.115 69.8284 174.351C70.1921 174.584 70.6111 174.7 71.0855 174.7C71.56 174.7 71.979 174.584 72.3426 174.351C72.7063 174.115 72.9904 173.77 73.1949 173.315C73.4023 172.858 73.506 172.298 73.506 171.636ZM83.762 167.273V176H82.3558L78.2436 170.055H78.1711V176H76.5902V167.273H78.0049L82.1129 173.222H82.1896V167.273H83.762ZM86.6054 176H84.9179L87.9904 167.273H89.9421L93.0188 176H91.3313L89.0003 169.062H88.9321L86.6054 176ZM86.6608 172.578H91.2631V173.848H86.6608V172.578ZM94.1683 176V167.273H95.7492V174.675H99.593V176H94.1683Z" fill="#DEDEE0"/>
<path d="M38.2128 91.0966C37.8117 91.0966 37.4455 90.9988 37.114 90.8033C36.7826 90.6044 36.5175 90.3393 36.3186 90.0078C36.123 89.6764 36.0253 89.3101 36.0253 88.9091C36.0253 88.5047 36.123 88.1385 36.3186 87.8104C36.5175 87.4789 36.7826 87.2154 37.114 87.0199C37.4455 86.821 37.8117 86.7216 38.2128 86.7216C38.6171 86.7216 38.9834 86.821 39.3115 87.0199C39.6429 87.2154 39.9064 87.4789 40.102 87.8104C40.3008 88.1385 40.4003 88.5047 40.4003 88.9091C40.4003 89.3101 40.3008 89.6764 40.102 90.0078C39.9064 90.3393 39.6429 90.6044 39.3115 90.8033C38.9834 90.9988 38.6171 91.0966 38.2128 91.0966ZM47.3207 83.8182H48.7923L52.2525 92.2699H52.3719L55.8321 83.8182H57.3037V94H56.1503V86.2642H56.0508L52.869 94H51.7554L48.5736 86.2642H48.4741V94H47.3207V83.8182ZM59.6167 86.3636H60.79V94.5568C60.79 95.0275 60.7088 95.4351 60.5464 95.7798C60.3873 96.1245 60.1454 96.3913 59.8205 96.5803C59.499 96.7692 59.093 96.8636 58.6025 96.8636C58.5627 96.8636 58.523 96.8636 58.4832 96.8636C58.4434 96.8636 58.4036 96.8636 58.3639 96.8636V95.7699C58.4036 95.7699 58.4401 95.7699 58.4732 95.7699C58.5064 95.7699 58.5428 95.7699 58.5826 95.7699C58.9406 95.7699 59.2024 95.6638 59.3681 95.4517C59.5339 95.2429 59.6167 94.9446 59.6167 94.5568V86.3636ZM60.1934 85.0909C59.9647 85.0909 59.7675 85.013 59.6018 84.8572C59.4394 84.7015 59.3582 84.5142 59.3582 84.2955C59.3582 84.0767 59.4394 83.8894 59.6018 83.7337C59.7675 83.5779 59.9647 83.5 60.1934 83.5C60.4221 83.5 60.6177 83.5779 60.7801 83.7337C60.9458 83.8894 61.0286 84.0767 61.0286 84.2955C61.0286 84.5142 60.9458 84.7015 60.7801 84.8572C60.6177 85.013 60.4221 85.0909 60.1934 85.0909ZM66.0412 94.1591C65.3519 94.1591 64.747 93.995 64.2266 93.6669C63.7096 93.3388 63.3052 92.8797 63.0135 92.2898C62.7252 91.6998 62.581 91.0104 62.581 90.2216C62.581 89.4261 62.7252 88.7318 63.0135 88.1385C63.3052 87.5452 63.7096 87.0845 64.2266 86.7564C64.747 86.4283 65.3519 86.2642 66.0412 86.2642C66.7306 86.2642 67.3339 86.4283 67.8509 86.7564C68.3713 87.0845 68.7756 87.5452 69.064 88.1385C69.3556 88.7318 69.5015 89.4261 69.5015 90.2216C69.5015 91.0104 69.3556 91.6998 69.064 92.2898C68.7756 92.8797 68.3713 93.3388 67.8509 93.6669C67.3339 93.995 66.7306 94.1591 66.0412 94.1591ZM66.0412 93.1051C66.5649 93.1051 66.9958 92.9709 67.3339 92.7024C67.6719 92.4339 67.9222 92.081 68.0846 91.6435C68.247 91.206 68.3282 90.732 68.3282 90.2216C68.3282 89.7112 68.247 89.2356 68.0846 88.7947C67.9222 88.3539 67.6719 87.9976 67.3339 87.7259C66.9958 87.4541 66.5649 87.3182 66.0412 87.3182C65.5176 87.3182 65.0867 87.4541 64.7486 87.7259C64.4106 87.9976 64.1603 88.3539 63.9979 88.7947C63.8355 89.2356 63.7543 89.7112 63.7543 90.2216C63.7543 90.732 63.8355 91.206 63.9979 91.6435C64.1603 92.081 64.4106 92.4339 64.7486 92.7024C65.0867 92.9709 65.5176 93.1051 66.0412 93.1051ZM64.6094 85.0909C64.4006 85.0909 64.215 85.0114 64.0526 84.8523C63.8935 84.6899 63.814 84.5043 63.814 84.2955C63.814 84.0668 63.8935 83.8778 64.0526 83.7287C64.215 83.5762 64.4006 83.5 64.6094 83.5C64.8381 83.5 65.027 83.5762 65.1762 83.7287C65.3287 83.8778 65.4049 84.0668 65.4049 84.2955C65.4049 84.5043 65.3287 84.6899 65.1762 84.8523C65.027 85.0114 64.8381 85.0909 64.6094 85.0909ZM67.4731 85.0909C67.2643 85.0909 67.0787 85.0114 66.9162 84.8523C66.7572 84.6899 66.6776 84.5043 66.6776 84.2955C66.6776 84.0668 66.7572 83.8778 66.9162 83.7287C67.0787 83.5762 67.2643 83.5 67.4731 83.5C67.7018 83.5 67.8907 83.5762 68.0398 83.7287C68.1923 83.8778 68.2685 84.0668 68.2685 84.2955C68.2685 84.5043 68.1923 84.6899 68.0398 84.8523C67.8907 85.0114 67.7018 85.0909 67.4731 85.0909ZM72.4658 83.8182V94H71.2925V83.8182H72.4658ZM75.7085 91.2159L75.6886 89.7642H75.9273L79.2682 86.3636H80.7199L77.1602 89.9631H77.0608L75.7085 91.2159ZM74.6148 94V83.8182H75.7881V94H74.6148ZM79.467 94L76.4841 90.2216L77.3193 89.4062L80.9585 94H79.467ZM38.2128 108.097C37.8117 108.097 37.4455 107.999 37.114 107.803C36.7826 107.604 36.5175 107.339 36.3186 107.008C36.123 106.676 36.0253 106.31 36.0253 105.909C36.0253 105.505 36.123 105.138 36.3186 104.81C36.5175 104.479 36.7826 104.215 37.114 104.02C37.4455 103.821 37.8117 103.722 38.2128 103.722C38.6171 103.722 38.9834 103.821 39.3115 104.02C39.6429 104.215 39.9064 104.479 40.102 104.81C40.3008 105.138 40.4003 105.505 40.4003 105.909C40.4003 106.31 40.3008 106.676 40.102 107.008C39.9064 107.339 39.6429 107.604 39.3115 107.803C38.9834 107.999 38.6171 108.097 38.2128 108.097ZM47.7383 111H46.4457L50.1844 100.818H51.4571L55.1957 111H53.9031L50.8605 102.429H50.781L47.7383 111ZM48.2156 107.023H53.4258V108.116H48.2156V107.023ZM49.3889 99.5455C49.1801 99.5455 48.9945 99.4659 48.8321 99.3068C48.673 99.1444 48.5935 98.9588 48.5935 98.75C48.5935 98.5213 48.673 98.3324 48.8321 98.1832C48.9945 98.0308 49.1801 97.9545 49.3889 97.9545C49.6176 97.9545 49.8065 98.0308 49.9557 98.1832C50.1081 98.3324 50.1844 98.5213 50.1844 98.75C50.1844 98.9588 50.1081 99.1444 49.9557 99.3068C49.8065 99.4659 49.6176 99.5455 49.3889 99.5455ZM52.2525 99.5455C52.0437 99.5455 51.8581 99.4659 51.6957 99.3068C51.5366 99.1444 51.4571 98.9588 51.4571 98.75C51.4571 98.5213 51.5366 98.3324 51.6957 98.1832C51.8581 98.0308 52.0437 97.9545 52.2525 97.9545C52.4812 97.9545 52.6702 98.0308 52.8193 98.1832C52.9718 98.3324 53.048 98.5213 53.048 98.75C53.048 98.9588 52.9718 99.1444 52.8193 99.3068C52.6702 99.4659 52.4812 99.5455 52.2525 99.5455ZM59.705 114.023C59.1382 114.023 58.651 113.95 58.2433 113.804C57.8356 113.661 57.4959 113.473 57.2241 113.237C56.9557 113.005 56.7419 112.757 56.5828 112.491L57.5175 111.835C57.6235 111.974 57.7577 112.134 57.9202 112.312C58.0826 112.495 58.3046 112.652 58.5863 112.785C58.8714 112.921 59.2443 112.989 59.705 112.989C60.3214 112.989 60.8302 112.839 61.2312 112.541C61.6323 112.243 61.8328 111.776 61.8328 111.139V109.588H61.7334C61.6472 109.727 61.5246 109.9 61.3655 110.105C61.2097 110.307 60.9843 110.488 60.6893 110.647C60.3977 110.803 60.0033 110.881 59.5061 110.881C58.8896 110.881 58.3361 110.735 57.8456 110.443C57.3584 110.152 56.9722 109.727 56.6872 109.17C56.4055 108.614 56.2646 107.937 56.2646 107.142C56.2646 106.36 56.4022 105.679 56.6773 105.099C56.9524 104.515 57.3352 104.065 57.8257 103.746C58.3162 103.425 58.883 103.264 59.526 103.264C60.0231 103.264 60.4176 103.347 60.7092 103.513C61.0042 103.675 61.2296 103.861 61.3854 104.07C61.5444 104.275 61.6671 104.444 61.7533 104.577H61.8726V103.364H63.0061V111.219C63.0061 111.875 62.8569 112.409 62.5586 112.82C62.2637 113.234 61.8659 113.537 61.3655 113.729C60.8683 113.925 60.3148 114.023 59.705 114.023ZM59.6652 109.827C60.1358 109.827 60.5336 109.719 60.8584 109.504C61.1832 109.288 61.4301 108.978 61.5991 108.574C61.7682 108.17 61.8527 107.686 61.8527 107.122C61.8527 106.572 61.7698 106.086 61.6041 105.665C61.4384 105.245 61.1931 104.915 60.8683 104.676C60.5435 104.437 60.1425 104.318 59.6652 104.318C59.168 104.318 58.7537 104.444 58.4223 104.696C58.0942 104.948 57.8472 105.286 57.6815 105.71C57.5191 106.134 57.4379 106.605 57.4379 107.122C57.4379 107.652 57.5208 108.121 57.6865 108.529C57.8555 108.933 58.1041 109.252 58.4322 109.484C58.7637 109.712 59.1747 109.827 59.6652 109.827ZM68.2362 114.023C67.6694 114.023 67.1822 113.95 66.7746 113.804C66.3669 113.661 66.0272 113.473 65.7554 113.237C65.4869 113.005 65.2731 112.757 65.114 112.491L66.0487 111.835C66.1548 111.974 66.289 112.134 66.4514 112.312C66.6138 112.495 66.8359 112.652 67.1176 112.785C67.4026 112.921 67.7755 112.989 68.2362 112.989C68.8527 112.989 69.3614 112.839 69.7625 112.541C70.1635 112.243 70.364 111.776 70.364 111.139V109.588H70.2646C70.1784 109.727 70.0558 109.9 69.8967 110.105C69.7409 110.307 69.5156 110.488 69.2206 110.647C68.9289 110.803 68.5345 110.881 68.0373 110.881C67.4209 110.881 66.8674 110.735 66.3768 110.443C65.8896 110.152 65.5035 109.727 65.2185 109.17C64.9367 108.614 64.7959 107.937 64.7959 107.142C64.7959 106.36 64.9334 105.679 65.2085 105.099C65.4836 104.515 65.8664 104.065 66.3569 103.746C66.8475 103.425 67.4142 103.264 68.0572 103.264C68.5544 103.264 68.9488 103.347 69.2405 103.513C69.5354 103.675 69.7608 103.861 69.9166 104.07C70.0757 104.275 70.1983 104.444 70.2845 104.577H70.4038V103.364H71.5373V111.219C71.5373 111.875 71.3882 112.409 71.0899 112.82C70.7949 113.234 70.3972 113.537 69.8967 113.729C69.3996 113.925 68.8461 114.023 68.2362 114.023ZM68.1964 109.827C68.6671 109.827 69.0648 109.719 69.3896 109.504C69.7144 109.288 69.9613 108.978 70.1304 108.574C70.2994 108.17 70.3839 107.686 70.3839 107.122C70.3839 106.572 70.3011 106.086 70.1354 105.665C69.9696 105.245 69.7244 104.915 69.3996 104.676C69.0747 104.437 68.6737 104.318 68.1964 104.318C67.6993 104.318 67.285 104.444 66.9535 104.696C66.6254 104.948 66.3785 105.286 66.2128 105.71C66.0504 106.134 65.9692 106.605 65.9692 107.122C65.9692 107.652 66.052 108.121 66.2177 108.529C66.3868 108.933 66.6354 109.252 66.9635 109.484C67.2949 109.712 67.7059 109.827 68.1964 109.827ZM38.2128 125.097C37.8117 125.097 37.4455 124.999 37.114 124.803C36.7826 124.604 36.5175 124.339 36.3186 124.008C36.123 123.676 36.0253 123.31 36.0253 122.909C36.0253 122.505 36.123 122.138 36.3186 121.81C36.5175 121.479 36.7826 121.215 37.114 121.02C37.4455 120.821 37.8117 120.722 38.2128 120.722C38.6171 120.722 38.9834 120.821 39.3115 121.02C39.6429 121.215 39.9064 121.479 40.102 121.81C40.3008 122.138 40.4003 122.505 40.4003 122.909C40.4003 123.31 40.3008 123.676 40.102 124.008C39.9064 124.339 39.6429 124.604 39.3115 124.803C38.9834 124.999 38.6171 125.097 38.2128 125.097ZM47.3207 128V117.818H50.8804C51.5897 117.818 52.1747 117.941 52.6354 118.186C53.0961 118.428 53.4391 118.754 53.6645 119.165C53.8899 119.573 54.0025 120.026 54.0025 120.523C54.0025 120.96 53.9247 121.321 53.7689 121.607C53.6164 121.892 53.4142 122.117 53.1623 122.283C52.9138 122.448 52.6436 122.571 52.352 122.651V122.75C52.6635 122.77 52.9767 122.879 53.2916 123.078C53.6065 123.277 53.87 123.562 54.0821 123.933C54.2942 124.304 54.4003 124.759 54.4003 125.295C54.4003 125.806 54.2843 126.265 54.0523 126.673C53.8202 127.08 53.454 127.403 52.9535 127.642C52.4531 127.881 51.8018 128 50.9997 128H47.3207ZM48.5537 126.906H50.9997C51.8051 126.906 52.3768 126.75 52.7149 126.439C53.0563 126.124 53.227 125.743 53.227 125.295C53.227 124.951 53.1391 124.633 52.9635 124.341C52.7878 124.046 52.5376 123.811 52.2128 123.635C51.888 123.456 51.5035 123.366 51.0594 123.366H48.5537V126.906ZM48.5537 122.293H50.8406C51.2118 122.293 51.5466 122.22 51.8449 122.074C52.1465 121.928 52.3851 121.723 52.5608 121.457C52.7398 121.192 52.8292 120.881 52.8292 120.523C52.8292 120.075 52.6735 119.696 52.3619 119.384C52.0504 119.069 51.5565 118.912 50.8804 118.912H48.5537V122.293ZM56.2671 128V120.364H57.4006V121.517H57.4802C57.6194 121.139 57.8713 120.833 58.2359 120.597C58.6004 120.362 59.0114 120.244 59.4688 120.244C59.555 120.244 59.6627 120.246 59.792 120.249C59.9212 120.253 60.019 120.258 60.0853 120.264V121.457C60.0455 121.447 59.9544 121.433 59.8118 121.413C59.6726 121.389 59.5252 121.378 59.3694 121.378C58.9982 121.378 58.6667 121.456 58.3751 121.612C58.0867 121.764 57.858 121.976 57.689 122.248C57.5233 122.516 57.4404 122.823 57.4404 123.168V128H56.2671ZM64.3459 128.159C63.6565 128.159 63.0517 127.995 62.5313 127.667C62.0143 127.339 61.6099 126.88 61.3182 126.29C61.0299 125.7 60.8857 125.01 60.8857 124.222C60.8857 123.426 61.0299 122.732 61.3182 122.138C61.6099 121.545 62.0143 121.085 62.5313 120.756C63.0517 120.428 63.6565 120.264 64.3459 120.264C65.0353 120.264 65.6385 120.428 66.1556 120.756C66.676 121.085 67.0803 121.545 67.3687 122.138C67.6603 122.732 67.8062 123.426 67.8062 124.222C67.8062 125.01 67.6603 125.7 67.3687 126.29C67.0803 126.88 66.676 127.339 66.1556 127.667C65.6385 127.995 65.0353 128.159 64.3459 128.159ZM64.3459 127.105C64.8696 127.105 65.3005 126.971 65.6385 126.702C65.9766 126.434 66.2269 126.081 66.3893 125.643C66.5517 125.206 66.6329 124.732 66.6329 124.222C66.6329 123.711 66.5517 123.236 66.3893 122.795C66.2269 122.354 65.9766 121.998 65.6385 121.726C65.3005 121.454 64.8696 121.318 64.3459 121.318C63.8223 121.318 63.3914 121.454 63.0533 121.726C62.7153 121.998 62.465 122.354 62.3026 122.795C62.1402 123.236 62.059 123.711 62.059 124.222C62.059 124.732 62.1402 125.206 62.3026 125.643C62.465 126.081 62.7153 126.434 63.0533 126.702C63.3914 126.971 63.8223 127.105 64.3459 127.105ZM62.9141 119.091C62.7053 119.091 62.5197 119.011 62.3573 118.852C62.1982 118.69 62.1187 118.504 62.1187 118.295C62.1187 118.067 62.1982 117.878 62.3573 117.729C62.5197 117.576 62.7053 117.5 62.9141 117.5C63.1428 117.5 63.3317 117.576 63.4809 117.729C63.6333 117.878 63.7096 118.067 63.7096 118.295C63.7096 118.504 63.6333 118.69 63.4809 118.852C63.3317 119.011 63.1428 119.091 62.9141 119.091ZM65.7778 119.091C65.5689 119.091 65.3833 119.011 65.2209 118.852C65.0618 118.69 64.9823 118.504 64.9823 118.295C64.9823 118.067 65.0618 117.878 65.2209 117.729C65.3833 117.576 65.5689 117.5 65.7778 117.5C66.0064 117.5 66.1954 117.576 66.3445 117.729C66.497 117.878 66.5732 118.067 66.5732 118.295C66.5732 118.504 66.497 118.69 66.3445 118.852C66.1954 119.011 66.0064 119.091 65.7778 119.091ZM72.4807 128.159C71.8443 128.159 71.2825 127.998 70.7953 127.677C70.3081 127.352 69.927 126.895 69.6519 126.305C69.3768 125.711 69.2392 125.01 69.2392 124.202C69.2392 123.4 69.3768 122.704 69.6519 122.114C69.927 121.524 70.3098 121.068 70.8003 120.746C71.2908 120.425 71.8576 120.264 72.5006 120.264C72.9977 120.264 73.3905 120.347 73.6789 120.513C73.9705 120.675 74.1926 120.861 74.345 121.07C74.5008 121.275 74.6218 121.444 74.708 121.577H74.8074V117.818H75.9807V128H74.8472V126.827H74.708C74.6218 126.966 74.4992 127.142 74.3401 127.354C74.181 127.562 73.9539 127.75 73.659 127.915C73.364 128.078 72.9712 128.159 72.4807 128.159ZM72.6398 127.105C73.1104 127.105 73.5082 126.982 73.833 126.737C74.1578 126.489 74.4047 126.146 74.5737 125.708C74.7428 125.267 74.8273 124.759 74.8273 124.182C74.8273 123.612 74.7444 123.113 74.5787 122.685C74.413 122.254 74.1677 121.92 73.8429 121.681C73.5181 121.439 73.1171 121.318 72.6398 121.318C72.1426 121.318 71.7283 121.446 71.3969 121.701C71.0688 121.953 70.8218 122.296 70.6561 122.73C70.4937 123.161 70.4125 123.645 70.4125 124.182C70.4125 124.725 70.4954 125.219 70.6611 125.663C70.8301 126.104 71.0787 126.455 71.4068 126.717C71.7383 126.976 72.1493 127.105 72.6398 127.105ZM38.2128 142.097C37.8117 142.097 37.4455 141.999 37.114 141.803C36.7826 141.604 36.5175 141.339 36.3186 141.008C36.123 140.676 36.0253 140.31 36.0253 139.909C36.0253 139.505 36.123 139.138 36.3186 138.81C36.5175 138.479 36.7826 138.215 37.114 138.02C37.4455 137.821 37.8117 137.722 38.2128 137.722C38.6171 137.722 38.9834 137.821 39.3115 138.02C39.6429 138.215 39.9064 138.479 40.102 138.81C40.3008 139.138 40.4003 139.505 40.4003 139.909C40.4003 140.31 40.3008 140.676 40.102 141.008C39.9064 141.339 39.6429 141.604 39.3115 141.803C38.9834 141.999 38.6171 142.097 38.2128 142.097ZM47.3207 145V134.818H48.5537V139.869H48.673L53.2469 134.818H54.8577L50.5821 139.412L54.8577 145H53.3662L49.8264 140.267L48.5537 141.699V145H47.3207ZM61.9782 137.364L59.1544 145H57.9612L55.1373 137.364H56.41L58.518 143.449H58.5975L60.7055 137.364H61.9782ZM65.5416 145.179C65.0577 145.179 64.6185 145.088 64.2241 144.906C63.8297 144.72 63.5165 144.453 63.2845 144.105C63.0525 143.754 62.9365 143.33 62.9365 142.832C62.9365 142.395 63.0227 142.04 63.195 141.768C63.3674 141.493 63.5977 141.278 63.8861 141.122C64.1744 140.966 64.4926 140.85 64.8406 140.774C65.1919 140.695 65.5449 140.632 65.8996 140.585C66.3636 140.526 66.7398 140.481 67.0281 140.451C67.3198 140.418 67.5319 140.363 67.6645 140.287C67.8004 140.211 67.8683 140.078 67.8683 139.889V139.849C67.8683 139.359 67.7341 138.978 67.4656 138.706C67.2005 138.434 66.7978 138.298 66.2575 138.298C65.6974 138.298 65.2582 138.421 64.94 138.666C64.6219 138.911 64.3981 139.173 64.2689 139.452L63.1552 139.054C63.3541 138.59 63.6193 138.229 63.9507 137.97C64.2854 137.708 64.65 137.526 65.0444 137.423C65.4422 137.317 65.8333 137.264 66.2177 137.264C66.463 137.264 66.7447 137.294 67.0629 137.354C67.3844 137.41 67.6943 137.528 67.9926 137.707C68.2942 137.886 68.5444 138.156 68.7433 138.517C68.9422 138.878 69.0416 139.362 69.0416 139.969V145H67.8683V143.966H67.8086C67.7291 144.132 67.5965 144.309 67.4109 144.498C67.2253 144.687 66.9784 144.848 66.6702 144.98C66.3619 145.113 65.9857 145.179 65.5416 145.179ZM65.7206 144.125C66.1846 144.125 66.5757 144.034 66.8939 143.852C67.2154 143.669 67.4573 143.434 67.6197 143.146C67.7854 142.857 67.8683 142.554 67.8683 142.236V141.162C67.8186 141.222 67.7092 141.276 67.5402 141.326C67.3745 141.372 67.1822 141.414 66.9635 141.45C66.748 141.483 66.5376 141.513 66.3321 141.54C66.1299 141.563 65.9658 141.583 65.8399 141.599C65.535 141.639 65.2499 141.704 64.9848 141.793C64.7229 141.879 64.5108 142.01 64.3484 142.186C64.1893 142.358 64.1098 142.594 64.1098 142.892C64.1098 143.3 64.2606 143.608 64.5622 143.817C64.8671 144.022 65.2533 144.125 65.7206 144.125ZM71.1831 145V137.364H72.3166V138.517H72.3962C72.5354 138.139 72.7873 137.833 73.1519 137.597C73.5165 137.362 73.9274 137.244 74.3848 137.244C74.471 137.244 74.5787 137.246 74.708 137.249C74.8372 137.253 74.935 137.258 75.0013 137.264V138.457C74.9615 138.447 74.8704 138.433 74.7279 138.413C74.5887 138.389 74.4412 138.378 74.2854 138.378C73.9142 138.378 73.5827 138.456 73.2911 138.612C73.0027 138.764 72.774 138.976 72.605 139.248C72.4393 139.516 72.3564 139.823 72.3564 140.168V145H71.1831ZM79.2421 148.023C78.6753 148.023 78.1881 147.95 77.7804 147.804C77.3727 147.661 77.033 147.473 76.7612 147.237C76.4928 147.005 76.279 146.757 76.1199 146.491L77.0546 145.835C77.1606 145.974 77.2949 146.134 77.4573 146.312C77.6197 146.495 77.8417 146.652 78.1235 146.785C78.4085 146.921 78.7814 146.989 79.2421 146.989C79.8585 146.989 80.3673 146.839 80.7683 146.541C81.1694 146.243 81.3699 145.776 81.3699 145.139V143.588H81.2705C81.1843 143.727 81.0617 143.9 80.9026 144.105C80.7468 144.307 80.5214 144.488 80.2264 144.647C79.9348 144.803 79.5404 144.881 79.0432 144.881C78.4267 144.881 77.8732 144.735 77.3827 144.443C76.8955 144.152 76.5093 143.727 76.2243 143.17C75.9426 142.614 75.8017 141.937 75.8017 141.142C75.8017 140.36 75.9393 139.679 76.2144 139.099C76.4895 138.515 76.8723 138.065 77.3628 137.746C77.8533 137.425 78.4201 137.264 79.0631 137.264C79.5602 137.264 79.9547 137.347 80.2463 137.513C80.5413 137.675 80.7667 137.861 80.9225 138.07C81.0816 138.275 81.2042 138.444 81.2904 138.577H81.4097V137.364H82.5432V145.219C82.5432 145.875 82.3941 146.409 82.0958 146.82C81.8008 147.234 81.4031 147.537 80.9026 147.729C80.4054 147.925 79.8519 148.023 79.2421 148.023ZM79.2023 143.827C79.6729 143.827 80.0707 143.719 80.3955 143.504C80.7203 143.288 80.9672 142.978 81.1362 142.574C81.3053 142.17 81.3898 141.686 81.3898 141.122C81.3898 140.572 81.3069 140.086 81.1412 139.665C80.9755 139.245 80.7302 138.915 80.4054 138.676C80.0806 138.437 79.6796 138.318 79.2023 138.318C78.7051 138.318 78.2908 138.444 77.9594 138.696C77.6313 138.948 77.3843 139.286 77.2186 139.71C77.0562 140.134 76.975 140.605 76.975 141.122C76.975 141.652 77.0579 142.121 77.2236 142.529C77.3926 142.933 77.6412 143.252 77.9693 143.484C78.3008 143.712 78.7118 143.827 79.2023 143.827Z" fill="#DADADA"/>
<rect x="208.338" y="159" width="68" height="32" rx="5" fill="#2F2F31"/>
<path d="M218.588 178.938V181.75H221.4L229.695 173.455L226.883 170.643L218.588 178.938ZM231.87 171.28C231.94 171.211 231.995 171.128 232.033 171.037C232.07 170.947 232.09 170.849 232.09 170.751C232.09 170.653 232.07 170.556 232.033 170.465C231.995 170.374 231.94 170.292 231.87 170.223L230.115 168.468C230.046 168.398 229.963 168.343 229.873 168.305C229.782 168.268 229.685 168.248 229.587 168.248C229.488 168.248 229.391 168.268 229.3 168.305C229.21 168.343 229.127 168.398 229.058 168.468L227.685 169.84L230.498 172.653L231.87 171.28Z" fill="#DADADA"/>
<line x1="242.838" y1="163" x2="242.838" y2="187" stroke="#DADADA"/>
<path d="M265.338 169.75C265.537 169.75 265.727 169.829 265.868 169.97C266.009 170.11 266.088 170.301 266.088 170.5C266.088 170.699 266.009 170.89 265.868 171.03C265.727 171.171 265.537 171.25 265.338 171.25H264.588L264.586 171.303L263.886 181.107C263.859 181.485 263.689 181.839 263.412 182.098C263.134 182.356 262.769 182.5 262.39 182.5H256.285C255.906 182.5 255.541 182.356 255.263 182.098C254.985 181.839 254.816 181.485 254.789 181.107L254.089 171.304C254.088 171.286 254.088 171.268 254.088 171.25H253.338C253.139 171.25 252.948 171.171 252.807 171.03C252.667 170.89 252.588 170.699 252.588 170.5C252.588 170.301 252.667 170.11 252.807 169.97C252.948 169.829 253.139 169.75 253.338 169.75H265.338ZM263.086 171.25H255.59L256.286 181H262.39L263.086 171.25ZM260.838 167.5C261.037 167.5 261.227 167.579 261.368 167.72C261.509 167.86 261.588 168.051 261.588 168.25C261.588 168.449 261.509 168.64 261.368 168.78C261.227 168.921 261.037 169 260.838 169H257.838C257.639 169 257.448 168.921 257.307 168.78C257.167 168.64 257.088 168.449 257.088 168.25C257.088 168.051 257.167 167.86 257.307 167.72C257.448 167.579 257.639 167.5 257.838 167.5H260.838Z" fill="#DADADA"/>
<defs>
<filter id="filter0_d_13_192" x="0.337769" y="0" width="301.169" height="218" filterUnits="userSpaceOnUse" color-interpolation-filters="sRGB">
<feFlood flood-opacity="0" result="BackgroundImageFix"/>
<feColorMatrix in="SourceAlpha" type="matrix" values="0 0 0 0 0 0 0 0 0 0 0 0 0 0 0 0 0 0 127 0" result="hardAlpha"/>
<feOffset dy="4"/>
<feGaussianBlur stdDeviation="2"/>
<feComposite in2="hardAlpha" operator="out"/>
<feColorMatrix type="matrix" values="0 0 0 0 0 0 0 0 0 0 0 0 0 0 0 0 0 0 0.25 0"/>
<feBlend mode="normal" in2="BackgroundImageFix" result="effect1_dropShadow_13_192"/>
<feBlend mode="normal" in="SourceGraphic" in2="effect1_dropShadow_13_192" result="shape"/>
</filter>
</defs>
</svg>
