<svg width="302" height="218" viewBox="0 0 302 218" fill="none" xmlns="http://www.w3.org/2000/svg">
<g filter="url(#filter0_d_11_140)">
<rect x="4" width="293.169" height="210" rx="10" fill="#3E3E40"/>
</g>
<path d="M4 10C4 4.47715 8.47715 0 14 0H287C292.523 0 297 4.47715 297 10V60H4V10Z" fill="#2F2F31"/>
<path d="M46.22 34.04C46.22 34.88 46.0133 35.6133 45.6 36.24C45.1867 36.8667 44.5867 37.3533 43.8 37.7C43.0267 38.0333 42.08 38.2 40.96 38.2C40.4667 38.2 39.98 38.1667 39.5 38.1C39.0333 38.0333 38.58 37.94 38.14 37.82C37.7133 37.6867 37.3067 37.5267 36.92 37.34V34.52C37.6 34.8133 38.3 35.0867 39.02 35.34C39.7533 35.58 40.48 35.7 41.2 35.7C41.6933 35.7 42.0867 35.6333 42.38 35.5C42.6867 35.3667 42.9067 35.1867 43.04 34.96C43.1867 34.7333 43.26 34.4733 43.26 34.18C43.26 33.82 43.1333 33.5133 42.88 33.26C42.64 33.0067 42.3133 32.7733 41.9 32.56C41.4867 32.3333 41.0133 32.0933 40.48 31.84C40.1467 31.68 39.7867 31.4933 39.4 31.28C39.0133 31.0533 38.64 30.78 38.28 30.46C37.9333 30.1267 37.6467 29.7267 37.42 29.26C37.1933 28.7933 37.08 28.2333 37.08 27.58C37.08 26.7267 37.2733 26 37.66 25.4C38.06 24.7867 38.62 24.32 39.34 24C40.0733 23.68 40.9333 23.52 41.92 23.52C42.6667 23.52 43.3733 23.6067 44.04 23.78C44.72 23.9533 45.4267 24.2 46.16 24.52L45.18 26.88C44.5267 26.6133 43.94 26.4067 43.42 26.26C42.9 26.1133 42.3667 26.04 41.82 26.04C41.4467 26.04 41.1267 26.1 40.86 26.22C40.5933 26.34 40.3867 26.5067 40.24 26.72C40.1067 26.9333 40.04 27.1867 40.04 27.48C40.04 27.8133 40.14 28.1 40.34 28.34C40.54 28.5667 40.84 28.7867 41.24 29C41.64 29.2133 42.14 29.4667 42.74 29.76C43.4733 30.1067 44.0933 30.4667 44.6 30.84C45.12 31.2133 45.52 31.6533 45.8 32.16C46.08 32.6667 46.22 33.2933 46.22 34.04ZM51.5556 29.6C51.5556 30.0133 51.5356 30.4267 51.4956 30.84C51.469 31.24 51.4356 31.6467 51.3956 32.06H51.4356C51.569 31.8733 51.7023 31.6867 51.8356 31.5C51.9823 31.3133 52.129 31.1267 52.2756 30.94C52.4223 30.7533 52.5756 30.5733 52.7356 30.4L55.7956 27.08H59.1556L54.8156 31.82L59.4156 38H55.9756L52.8356 33.58L51.5556 34.6V38H48.5756V22.8H51.5556V29.6ZM67.078 26.88C67.2246 26.88 67.398 26.8867 67.598 26.9C67.798 26.9133 67.958 26.9333 68.078 26.96L67.858 29.76C67.7646 29.7333 67.6246 29.7133 67.438 29.7C67.2646 29.6733 67.1113 29.66 66.978 29.66C66.5913 29.66 66.218 29.7133 65.858 29.82C65.498 29.9133 65.1713 30.0667 64.878 30.28C64.598 30.4933 64.3713 30.78 64.198 31.14C64.038 31.4867 63.958 31.92 63.958 32.44V38H60.978V27.08H63.238L63.678 28.92H63.818C64.0313 28.5467 64.298 28.2067 64.618 27.9C64.938 27.5933 65.3046 27.3467 65.718 27.16C66.1446 26.9733 66.598 26.88 67.078 26.88ZM73.04 27.08V38H70.06V27.08H73.04ZM71.56 22.8C72 22.8 72.38 22.9067 72.7 23.12C73.02 23.32 73.18 23.7 73.18 24.26C73.18 24.8067 73.02 25.1867 72.7 25.4C72.38 25.6133 72 25.72 71.56 25.72C71.1067 25.72 70.72 25.6133 70.4 25.4C70.0933 25.1867 69.94 24.8067 69.94 24.26C69.94 23.7 70.0933 23.32 70.4 23.12C70.72 22.9067 71.1067 22.8 71.56 22.8ZM78.7538 38L74.5938 27.08H77.7138L79.8138 33.3C79.8938 33.54 79.9604 33.7933 80.0138 34.06C80.0804 34.3267 80.1271 34.5867 80.1538 34.84C80.1938 35.0933 80.2204 35.3267 80.2338 35.54H80.3138C80.3271 35.3133 80.3538 35.0733 80.3938 34.82C80.4338 34.5667 80.4804 34.3133 80.5338 34.06C80.6004 33.7933 80.6738 33.54 80.7538 33.3L82.8538 27.08H85.9738L81.8138 38H78.7538ZM92.0205 26.86C93.4871 26.86 94.6071 27.18 95.3805 27.82C96.1671 28.4467 96.5605 29.4133 96.5605 30.72V38H94.4805L93.9005 36.52H93.8205C93.5138 36.9067 93.1938 37.2267 92.8605 37.48C92.5405 37.7333 92.1671 37.9133 91.7405 38.02C91.3271 38.14 90.8138 38.2 90.2005 38.2C89.5605 38.2 88.9805 38.08 88.4605 37.84C87.9538 37.5867 87.5538 37.2067 87.2605 36.7C86.9671 36.18 86.8205 35.5267 86.8205 34.74C86.8205 33.58 87.2271 32.7267 88.0405 32.18C88.8538 31.62 90.0738 31.3133 91.7005 31.26L93.6005 31.2V30.72C93.6005 30.1467 93.4471 29.7267 93.1405 29.46C92.8471 29.1933 92.4338 29.06 91.9005 29.06C91.3671 29.06 90.8471 29.14 90.3405 29.3C89.8338 29.4467 89.3271 29.6333 88.8205 29.86L87.8405 27.84C88.4271 27.5333 89.0738 27.2933 89.7805 27.12C90.5005 26.9467 91.2471 26.86 92.0205 26.86ZM92.4405 32.98C91.4805 33.0067 90.8138 33.18 90.4405 33.5C90.0671 33.82 89.8805 34.24 89.8805 34.76C89.8805 35.2133 90.0138 35.54 90.2805 35.74C90.5471 35.9267 90.8938 36.02 91.3205 36.02C91.9605 36.02 92.5005 35.8333 92.9405 35.46C93.3805 35.0733 93.6005 34.5333 93.6005 33.84V32.94L92.4405 32.98ZM114.826 27.08V38H112.546L112.146 36.6H111.986C111.759 36.9733 111.466 37.28 111.106 37.52C110.759 37.7467 110.373 37.9133 109.946 38.02C109.519 38.14 109.079 38.2 108.626 38.2C107.853 38.2 107.173 38.06 106.586 37.78C105.999 37.5 105.546 37.0667 105.226 36.48C104.906 35.8933 104.746 35.1333 104.746 34.2V27.08H107.726V33.46C107.726 34.2333 107.866 34.82 108.146 35.22C108.426 35.62 108.873 35.82 109.486 35.82C110.099 35.82 110.573 35.68 110.906 35.4C111.253 35.12 111.493 34.7133 111.626 34.18C111.773 33.6467 111.846 32.9933 111.846 32.22V27.08H114.826ZM124.031 26.88C125.257 26.88 126.251 27.36 127.011 28.32C127.771 29.2667 128.151 30.6667 128.151 32.52C128.151 33.76 127.971 34.8067 127.611 35.66C127.251 36.5 126.757 37.1333 126.131 37.56C125.504 37.9867 124.777 38.2 123.951 38.2C123.431 38.2 122.977 38.1333 122.591 38C122.217 37.8667 121.897 37.6933 121.631 37.48C121.364 37.2667 121.131 37.04 120.931 36.8H120.771C120.824 37.0533 120.864 37.32 120.891 37.6C120.917 37.8667 120.931 38.1333 120.931 38.4V42.8H117.951V27.08H120.371L120.791 28.5H120.931C121.131 28.2067 121.371 27.94 121.651 27.7C121.931 27.4467 122.264 27.2467 122.651 27.1C123.051 26.9533 123.511 26.88 124.031 26.88ZM123.071 29.26C122.551 29.26 122.137 29.3667 121.831 29.58C121.524 29.7933 121.297 30.12 121.151 30.56C121.017 30.9867 120.944 31.5267 120.931 32.18V32.5C120.931 33.2067 120.997 33.8067 121.131 34.3C121.264 34.78 121.491 35.1467 121.811 35.4C122.131 35.6533 122.564 35.78 123.111 35.78C123.564 35.78 123.937 35.6533 124.231 35.4C124.524 35.1467 124.744 34.7733 124.891 34.28C125.037 33.7867 125.111 33.1867 125.111 32.48C125.111 31.4133 124.944 30.6133 124.611 30.08C124.291 29.5333 123.777 29.26 123.071 29.26ZM136.687 26.88C137.914 26.88 138.907 27.36 139.667 28.32C140.427 29.2667 140.807 30.6667 140.807 32.52C140.807 33.76 140.627 34.8067 140.267 35.66C139.907 36.5 139.414 37.1333 138.787 37.56C138.16 37.9867 137.434 38.2 136.607 38.2C136.087 38.2 135.634 38.1333 135.247 38C134.874 37.8667 134.554 37.6933 134.287 37.48C134.02 37.2667 133.787 37.04 133.587 36.8H133.427C133.48 37.0533 133.52 37.32 133.547 37.6C133.574 37.8667 133.587 38.1333 133.587 38.4V42.8H130.607V27.08H133.027L133.447 28.5H133.587C133.787 28.2067 134.027 27.94 134.307 27.7C134.587 27.4467 134.92 27.2467 135.307 27.1C135.707 26.9533 136.167 26.88 136.687 26.88ZM135.727 29.26C135.207 29.26 134.794 29.3667 134.487 29.58C134.18 29.7933 133.954 30.12 133.807 30.56C133.674 30.9867 133.6 31.5267 133.587 32.18V32.5C133.587 33.2067 133.654 33.8067 133.787 34.3C133.92 34.78 134.147 35.1467 134.467 35.4C134.787 35.6533 135.22 35.78 135.767 35.78C136.22 35.78 136.594 35.6533 136.887 35.4C137.18 35.1467 137.4 34.7733 137.547 34.28C137.694 33.7867 137.767 33.1867 137.767 32.48C137.767 31.4133 137.6 30.6133 137.267 30.08C136.947 29.5333 136.434 29.26 135.727 29.26ZM161.278 26.88C162.518 26.88 163.452 27.2 164.078 27.84C164.718 28.4667 165.038 29.48 165.038 30.88V38H162.058V31.62C162.058 30.8333 161.925 30.2467 161.658 29.86C161.392 29.46 160.978 29.26 160.418 29.26C159.632 29.26 159.072 29.54 158.738 30.1C158.405 30.66 158.238 31.4667 158.238 32.52V38H155.258V31.62C155.258 31.1 155.198 30.6667 155.078 30.32C154.958 29.9733 154.778 29.7133 154.538 29.54C154.298 29.3533 153.992 29.26 153.618 29.26C153.072 29.26 152.638 29.4 152.318 29.68C151.998 29.96 151.772 30.3667 151.638 30.9C151.505 31.4333 151.438 32.0867 151.438 32.86V38H148.458V27.08H150.738L151.138 28.48H151.298C151.525 28.1067 151.805 27.8067 152.138 27.58C152.472 27.34 152.838 27.1667 153.238 27.06C153.652 26.94 154.065 26.88 154.478 26.88C155.278 26.88 155.958 27.0133 156.518 27.28C157.078 27.5333 157.505 27.9333 157.798 28.48H158.058C158.392 27.92 158.852 27.5133 159.438 27.26C160.038 27.0067 160.652 26.88 161.278 26.88ZM171.087 27.08V38H168.107V27.08H171.087ZM169.607 22.8C170.047 22.8 170.427 22.9067 170.747 23.12C171.067 23.32 171.227 23.7 171.227 24.26C171.227 24.8067 171.067 25.1867 170.747 25.4C170.427 25.6133 170.047 25.72 169.607 25.72C169.154 25.72 168.767 25.6133 168.447 25.4C168.14 25.1867 167.987 24.8067 167.987 24.26C167.987 23.7 168.14 23.32 168.447 23.12C168.767 22.9067 169.154 22.8 169.607 22.8ZM177.741 26.88C178.407 26.88 179.007 27.0133 179.541 27.28C180.074 27.5467 180.527 27.9467 180.901 28.48H180.981L181.221 27.08H183.741V38.02C183.741 39.06 183.534 39.9333 183.121 40.64C182.721 41.3467 182.114 41.88 181.301 42.24C180.487 42.6133 179.481 42.8 178.281 42.8C177.507 42.8 176.787 42.7533 176.121 42.66C175.467 42.5667 174.827 42.4 174.201 42.16V39.78C174.654 39.9667 175.107 40.12 175.561 40.24C176.027 40.3733 176.501 40.4667 176.981 40.52C177.474 40.5867 177.967 40.62 178.461 40.62C179.234 40.62 179.807 40.4133 180.181 40C180.567 39.5867 180.761 38.9667 180.761 38.14V37.92C180.761 37.6933 180.767 37.46 180.781 37.22C180.807 36.98 180.827 36.7667 180.841 36.58H180.761C180.387 37.1533 179.941 37.5667 179.421 37.82C178.901 38.0733 178.314 38.2 177.661 38.2C176.367 38.2 175.354 37.7067 174.621 36.72C173.901 35.72 173.541 34.3333 173.541 32.56C173.541 31.36 173.707 30.34 174.041 29.5C174.374 28.6467 174.854 28 175.481 27.56C176.121 27.1067 176.874 26.88 177.741 26.88ZM178.681 29.3C178.214 29.3 177.821 29.4267 177.501 29.68C177.194 29.92 176.961 30.2867 176.801 30.78C176.654 31.26 176.581 31.8667 176.581 32.6C176.581 33.6933 176.754 34.5133 177.101 35.06C177.447 35.5933 177.987 35.86 178.721 35.86C179.107 35.86 179.441 35.8133 179.721 35.72C180.001 35.6133 180.227 35.4467 180.401 35.22C180.587 34.98 180.727 34.6733 180.821 34.3C180.914 33.9267 180.961 33.4733 180.961 32.94V32.58C180.961 31.7933 180.881 31.16 180.721 30.68C180.561 30.2 180.314 29.8533 179.981 29.64C179.647 29.4133 179.214 29.3 178.681 29.3ZM198.132 26.88C199.359 26.88 200.352 27.36 201.112 28.32C201.872 29.2667 202.252 30.6667 202.252 32.52C202.252 33.76 202.072 34.8067 201.712 35.66C201.352 36.5 200.859 37.1333 200.232 37.56C199.606 37.9867 198.879 38.2 198.052 38.2C197.532 38.2 197.079 38.1333 196.692 38C196.319 37.8667 195.999 37.6933 195.732 37.48C195.466 37.2667 195.232 37.04 195.032 36.8H194.872C194.926 37.0533 194.966 37.32 194.992 37.6C195.019 37.8667 195.032 38.1333 195.032 38.4V42.8H192.052V27.08H194.472L194.892 28.5H195.032C195.232 28.2067 195.472 27.94 195.752 27.7C196.032 27.4467 196.366 27.2467 196.752 27.1C197.152 26.9533 197.612 26.88 198.132 26.88ZM197.172 29.26C196.652 29.26 196.239 29.3667 195.932 29.58C195.626 29.7933 195.399 30.12 195.252 30.56C195.119 30.9867 195.046 31.5267 195.032 32.18V32.5C195.032 33.2067 195.099 33.8067 195.232 34.3C195.366 34.78 195.592 35.1467 195.912 35.4C196.232 35.6533 196.666 35.78 197.212 35.78C197.666 35.78 198.039 35.6533 198.332 35.4C198.626 35.1467 198.846 34.7733 198.992 34.28C199.139 33.7867 199.212 33.1867 199.212 32.48C199.212 31.4133 199.046 30.6133 198.712 30.08C198.392 29.5333 197.879 29.26 197.172 29.26ZM209.188 26.86C210.655 26.86 211.775 27.18 212.548 27.82C213.335 28.4467 213.728 29.4133 213.728 30.72V38H211.648L211.068 36.52H210.988C210.682 36.9067 210.362 37.2267 210.028 37.48C209.708 37.7333 209.335 37.9133 208.908 38.02C208.495 38.14 207.982 38.2 207.368 38.2C206.728 38.2 206.148 38.08 205.628 37.84C205.122 37.5867 204.722 37.2067 204.428 36.7C204.135 36.18 203.988 35.5267 203.988 34.74C203.988 33.58 204.395 32.7267 205.208 32.18C206.022 31.62 207.242 31.3133 208.868 31.26L210.768 31.2V30.72C210.768 30.1467 210.615 29.7267 210.308 29.46C210.015 29.1933 209.602 29.06 209.068 29.06C208.535 29.06 208.015 29.14 207.508 29.3C207.002 29.4467 206.495 29.6333 205.988 29.86L205.008 27.84C205.595 27.5333 206.242 27.2933 206.948 27.12C207.668 26.9467 208.415 26.86 209.188 26.86ZM209.608 32.98C208.648 33.0067 207.982 33.18 207.608 33.5C207.235 33.82 207.048 34.24 207.048 34.76C207.048 35.2133 207.182 35.54 207.448 35.74C207.715 35.9267 208.062 36.02 208.488 36.02C209.128 36.02 209.668 35.8333 210.108 35.46C210.548 35.0733 210.768 34.5333 210.768 33.84V32.94L209.608 32.98ZM209.148 25.9C208.428 25.9 207.842 25.6933 207.388 25.28C206.948 24.8667 206.728 24.3 206.728 23.58C206.728 22.86 206.948 22.2933 207.388 21.88C207.842 21.4667 208.428 21.26 209.148 21.26C209.842 21.26 210.428 21.4667 210.908 21.88C211.388 22.2933 211.628 22.8533 211.628 23.56C211.628 24.2933 211.388 24.8667 210.908 25.28C210.442 25.6933 209.855 25.9 209.148 25.9ZM209.148 24.52C209.415 24.52 209.635 24.44 209.808 24.28C209.995 24.1067 210.088 23.8733 210.088 23.58C210.088 23.2867 209.995 23.06 209.808 22.9C209.635 22.7267 209.415 22.64 209.148 22.64C208.882 22.64 208.655 22.7267 208.468 22.9C208.295 23.06 208.208 23.2867 208.208 23.58C208.208 23.8733 208.288 24.1067 208.448 24.28C208.608 24.44 208.842 24.52 209.148 24.52ZM224.954 29.6C224.954 30.0133 224.934 30.4267 224.894 30.84C224.867 31.24 224.834 31.6467 224.794 32.06H224.834C224.967 31.8733 225.101 31.6867 225.234 31.5C225.381 31.3133 225.527 31.1267 225.674 30.94C225.821 30.7533 225.974 30.5733 226.134 30.4L229.194 27.08H232.554L228.214 31.82L232.814 38H229.374L226.234 33.58L224.954 34.6V38H221.974V22.8H224.954V29.6ZM244.396 27.08V38H242.116L241.716 36.6H241.556C241.33 36.9733 241.036 37.28 240.676 37.52C240.33 37.7467 239.943 37.9133 239.516 38.02C239.09 38.14 238.65 38.2 238.196 38.2C237.423 38.2 236.743 38.06 236.156 37.78C235.57 37.5 235.116 37.0667 234.796 36.48C234.476 35.8933 234.316 35.1333 234.316 34.2V27.08H237.296V33.46C237.296 34.2333 237.436 34.82 237.716 35.22C237.996 35.62 238.443 35.82 239.056 35.82C239.67 35.82 240.143 35.68 240.476 35.4C240.823 35.12 241.063 34.7133 241.196 34.18C241.343 33.6467 241.416 32.9933 241.416 32.22V27.08H244.396ZM253.621 26.88C253.768 26.88 253.941 26.8867 254.141 26.9C254.341 26.9133 254.501 26.9333 254.621 26.96L254.401 29.76C254.308 29.7333 254.168 29.7133 253.981 29.7C253.808 29.6733 253.654 29.66 253.521 29.66C253.134 29.66 252.761 29.7133 252.401 29.82C252.041 29.9133 251.714 30.0667 251.421 30.28C251.141 30.4933 250.914 30.78 250.741 31.14C250.581 31.4867 250.501 31.92 250.501 32.44V38H247.521V27.08H249.781L250.221 28.92H250.361C250.574 28.5467 250.841 28.2067 251.161 27.9C251.481 27.5933 251.848 27.3467 252.261 27.16C252.688 26.9733 253.141 26.88 253.621 26.88ZM264.223 34.76C264.223 35.4933 264.05 36.12 263.703 36.64C263.356 37.1467 262.836 37.5333 262.143 37.8C261.45 38.0667 260.59 38.2 259.563 38.2C258.803 38.2 258.15 38.1467 257.603 38.04C257.056 37.9467 256.51 37.7867 255.963 37.56V35.1C256.55 35.3667 257.183 35.5867 257.863 35.76C258.543 35.9333 259.143 36.02 259.663 36.02C260.25 36.02 260.663 35.9333 260.903 35.76C261.156 35.5867 261.283 35.36 261.283 35.08C261.283 34.8933 261.23 34.7267 261.123 34.58C261.03 34.4333 260.816 34.2667 260.483 34.08C260.15 33.8933 259.63 33.6533 258.923 33.36C258.243 33.0667 257.683 32.78 257.243 32.5C256.803 32.2067 256.476 31.86 256.263 31.46C256.05 31.0467 255.943 30.5333 255.943 29.92C255.943 28.9067 256.336 28.1467 257.123 27.64C257.91 27.1333 258.956 26.88 260.263 26.88C260.943 26.88 261.59 26.9467 262.203 27.08C262.816 27.2133 263.45 27.4333 264.103 27.74L263.203 29.88C262.843 29.72 262.496 29.58 262.163 29.46C261.83 29.34 261.503 29.2467 261.183 29.18C260.876 29.1133 260.556 29.08 260.223 29.08C259.783 29.08 259.45 29.14 259.223 29.26C259.01 29.38 258.903 29.56 258.903 29.8C258.903 29.9733 258.956 30.1333 259.063 30.28C259.183 30.4133 259.403 30.56 259.723 30.72C260.056 30.88 260.543 31.0933 261.183 31.36C261.81 31.6133 262.35 31.88 262.803 32.16C263.256 32.4267 263.603 32.7667 263.843 33.18C264.096 33.58 264.223 34.1067 264.223 34.76Z" fill="#DEDEE0"/>
<rect x="30" y="156" width="75.2558" height="31" rx="5" fill="#988ACF"/>
<path d="M36.3501 176V167.273H39.6228C40.2932 167.273 40.8557 167.398 41.3103 167.648C41.7677 167.898 42.1128 168.241 42.3458 168.679C42.5816 169.114 42.6995 169.608 42.6995 170.162C42.6995 170.722 42.5816 171.219 42.3458 171.653C42.11 172.088 41.762 172.43 41.3018 172.68C40.8415 172.928 40.2748 173.051 39.6015 173.051H37.4324V171.751H39.3884C39.7805 171.751 40.1015 171.683 40.3515 171.547C40.6015 171.411 40.7861 171.223 40.9055 170.984C41.0276 170.746 41.0887 170.472 41.0887 170.162C41.0887 169.852 41.0276 169.58 40.9055 169.344C40.7861 169.108 40.6001 168.925 40.3472 168.794C40.0972 168.661 39.7748 168.594 39.3799 168.594H37.931V176H36.3501ZM44.0727 176V167.273H49.7488V168.598H45.6537V170.967H49.4548V172.293H45.6537V174.675H49.7829V176H44.0727ZM51.3618 176V167.273H54.6345C55.305 167.273 55.8675 167.389 56.322 167.622C56.7794 167.855 57.1246 168.182 57.3575 168.602C57.5933 169.02 57.7112 169.507 57.7112 170.064C57.7112 170.624 57.5919 171.109 57.3532 171.521C57.1175 171.93 56.7694 172.247 56.3092 172.472C55.849 172.693 55.2836 172.804 54.6132 172.804H52.2822V171.491H54.4001C54.7922 171.491 55.1132 171.437 55.3632 171.33C55.6132 171.219 55.7979 171.058 55.9172 170.848C56.0393 170.635 56.1004 170.374 56.1004 170.064C56.1004 169.754 56.0393 169.49 55.9172 169.271C55.795 169.05 55.6089 168.882 55.3589 168.768C55.1089 168.652 54.7865 168.594 54.3916 168.594H52.9427V176H51.3618ZM55.8703 172.045L58.0308 176H56.2666L54.1444 172.045H55.8703ZM63.9094 169.672C63.8696 169.3 63.702 169.01 63.4065 168.803C63.1139 168.595 62.7332 168.491 62.2645 168.491C61.9349 168.491 61.6523 168.541 61.4165 168.641C61.1807 168.74 61.0003 168.875 60.8753 169.045C60.7503 169.216 60.6863 169.411 60.6835 169.629C60.6835 169.811 60.7247 169.969 60.8071 170.102C60.8923 170.236 61.0074 170.349 61.1523 170.443C61.2971 170.534 61.4577 170.611 61.6338 170.673C61.8099 170.736 61.9875 170.788 62.1665 170.831L62.9846 171.036C63.3142 171.112 63.6309 171.216 63.9349 171.347C64.2417 171.477 64.5159 171.642 64.7574 171.841C65.0017 172.04 65.1949 172.28 65.3369 172.561C65.479 172.842 65.55 173.172 65.55 173.55C65.55 174.061 65.4193 174.511 65.1579 174.901C64.8966 175.287 64.5187 175.589 64.0244 175.808C63.5329 176.024 62.9378 176.132 62.2389 176.132C61.5599 176.132 60.9704 176.027 60.4704 175.817C59.9733 175.607 59.5841 175.3 59.3028 174.896C59.0244 174.493 58.8738 174.001 58.8511 173.422H60.4065C60.4292 173.726 60.523 173.979 60.6878 174.18C60.8525 174.382 61.067 174.533 61.3312 174.632C61.5983 174.732 61.8966 174.781 62.2261 174.781C62.5699 174.781 62.871 174.73 63.1295 174.628C63.3909 174.523 63.5954 174.378 63.7432 174.193C63.8909 174.006 63.9662 173.787 63.969 173.537C63.9662 173.31 63.8994 173.122 63.7687 172.974C63.6381 172.824 63.4548 172.699 63.219 172.599C62.9861 172.497 62.7133 172.406 62.4008 172.327L61.4079 172.071C60.6892 171.886 60.121 171.607 59.7034 171.232C59.2886 170.854 59.0812 170.352 59.0812 169.727C59.0812 169.213 59.2204 168.763 59.4988 168.376C59.7801 167.99 60.1622 167.69 60.6452 167.477C61.1281 167.261 61.675 167.153 62.2858 167.153C62.9051 167.153 63.4477 167.261 63.9136 167.477C64.3824 167.69 64.7503 167.987 65.0173 168.368C65.2844 168.746 65.4221 169.18 65.4307 169.672H63.9094ZM74.7577 171.636C74.7577 172.577 74.5816 173.382 74.2293 174.053C73.8799 174.72 73.4026 175.232 72.7975 175.587C72.1952 175.942 71.512 176.119 70.7478 176.119C69.9836 176.119 69.2989 175.942 68.6938 175.587C68.0915 175.229 67.6143 174.716 67.262 174.048C66.9126 173.378 66.7378 172.574 66.7378 171.636C66.7378 170.696 66.9126 169.892 67.262 169.224C67.6143 168.554 68.0915 168.041 68.6938 167.686C69.2989 167.331 69.9836 167.153 70.7478 167.153C71.512 167.153 72.1952 167.331 72.7975 167.686C73.4026 168.041 73.8799 168.554 74.2293 169.224C74.5816 169.892 74.7577 170.696 74.7577 171.636ZM73.1682 171.636C73.1682 170.974 73.0645 170.416 72.8572 169.962C72.6526 169.504 72.3685 169.159 72.0049 168.926C71.6412 168.69 71.2222 168.572 70.7478 168.572C70.2733 168.572 69.8543 168.69 69.4907 168.926C69.127 169.159 68.8415 169.504 68.6341 169.962C68.4296 170.416 68.3273 170.974 68.3273 171.636C68.3273 172.298 68.4296 172.858 68.6341 173.315C68.8415 173.77 69.127 174.115 69.4907 174.351C69.8543 174.584 70.2733 174.7 70.7478 174.7C71.2222 174.7 71.6412 174.584 72.0049 174.351C72.3685 174.115 72.6526 173.77 72.8572 173.315C73.0645 172.858 73.1682 172.298 73.1682 171.636ZM83.4243 167.273V176H82.018L77.9058 170.055H77.8334V176H76.2524V167.273H77.6672L81.7751 173.222H81.8518V167.273H83.4243ZM86.2677 176H84.5802L87.6526 167.273H89.6043L92.681 176H90.9935L88.6626 169.062H88.5944L86.2677 176ZM86.3231 172.578H90.9253V173.848H86.3231V172.578ZM93.8305 176V167.273H95.4115V174.675H99.2552V176H93.8305Z" fill="#DEDEE0"/>
<path d="M36.8011 86.3636C36.7415 85.8598 36.4995 85.4688 36.0753 85.1903C35.651 84.9119 35.1307 84.7727 34.5142 84.7727C34.0634 84.7727 33.669 84.8456 33.331 84.9915C32.9962 85.1373 32.7344 85.3378 32.5455 85.593C32.3598 85.8482 32.267 86.1383 32.267 86.4631C32.267 86.7348 32.3317 86.9685 32.4609 87.1641C32.5935 87.3563 32.7625 87.517 32.968 87.6463C33.1735 87.7723 33.389 87.8767 33.6143 87.9595C33.8397 88.0391 34.0469 88.1037 34.2358 88.1534L35.2699 88.4318C35.535 88.5014 35.83 88.5975 36.1548 88.7202C36.483 88.8428 36.7962 89.0102 37.0945 89.2223C37.3961 89.4311 37.6446 89.6996 37.8402 90.0277C38.0357 90.3558 38.1335 90.7585 38.1335 91.2358C38.1335 91.786 37.9893 92.2831 37.701 92.7273C37.416 93.1714 36.9983 93.5244 36.4482 93.7862C35.9013 94.0481 35.2367 94.179 34.4545 94.179C33.7254 94.179 33.094 94.0613 32.5604 93.826C32.0301 93.5907 31.6125 93.2625 31.3075 92.8416C31.0059 92.4207 30.8352 91.9318 30.7955 91.375H32.0682C32.1013 91.7595 32.2306 92.0777 32.456 92.3295C32.6847 92.5781 32.973 92.7637 33.321 92.8864C33.6723 93.0057 34.0502 93.0653 34.4545 93.0653C34.9252 93.0653 35.3478 92.9891 35.7223 92.8366C36.0968 92.6809 36.3935 92.4654 36.6122 92.1903C36.831 91.9119 36.9403 91.5871 36.9403 91.2159C36.9403 90.8778 36.8459 90.6027 36.657 90.3906C36.468 90.1785 36.2195 90.0062 35.9112 89.8736C35.603 89.741 35.2699 89.625 34.9119 89.5256L33.6591 89.1676C32.8636 88.9389 32.2339 88.6125 31.7699 88.1882C31.3059 87.764 31.0739 87.2088 31.0739 86.5227C31.0739 85.9527 31.228 85.4555 31.5362 85.0312C31.8478 84.6037 32.2654 84.2723 32.7891 84.0369C33.3161 83.7983 33.9044 83.679 34.554 83.679C35.2102 83.679 35.7936 83.7966 36.304 84.032C36.8144 84.264 37.2188 84.5821 37.517 84.9865C37.8187 85.3909 37.9777 85.8499 37.9943 86.3636H36.8011ZM43.1039 94.1591C42.4145 94.1591 41.8096 93.995 41.2892 93.6669C40.7722 93.3388 40.3678 92.8797 40.0762 92.2898C39.7878 91.6998 39.6436 91.0104 39.6436 90.2216C39.6436 89.4261 39.7878 88.7318 40.0762 88.1385C40.3678 87.5452 40.7722 87.0845 41.2892 86.7564C41.8096 86.4283 42.4145 86.2642 43.1039 86.2642C43.7933 86.2642 44.3965 86.4283 44.9135 86.7564C45.4339 87.0845 45.8382 87.5452 46.1266 88.1385C46.4183 88.7318 46.5641 89.4261 46.5641 90.2216C46.5641 91.0104 46.4183 91.6998 46.1266 92.2898C45.8382 92.8797 45.4339 93.3388 44.9135 93.6669C44.3965 93.995 43.7933 94.1591 43.1039 94.1591ZM43.1039 93.1051C43.6275 93.1051 44.0584 92.9709 44.3965 92.7024C44.7346 92.4339 44.9848 92.081 45.1472 91.6435C45.3096 91.206 45.3908 90.732 45.3908 90.2216C45.3908 89.7112 45.3096 89.2356 45.1472 88.7947C44.9848 88.3539 44.7346 87.9976 44.3965 87.7259C44.0584 87.4541 43.6275 87.3182 43.1039 87.3182C42.5802 87.3182 42.1493 87.4541 41.8113 87.7259C41.4732 87.9976 41.223 88.3539 41.0605 88.7947C40.8981 89.2356 40.8169 89.7112 40.8169 90.2216C40.8169 90.732 40.8981 91.206 41.0605 91.6435C41.223 92.081 41.4732 92.4339 41.8113 92.7024C42.1493 92.9709 42.5802 93.1051 43.1039 93.1051ZM48.3551 94V86.3636H49.4886V87.5568H49.5881C49.7472 87.1491 50.004 86.8326 50.3587 86.6072C50.7133 86.3786 51.1392 86.2642 51.6364 86.2642C52.1402 86.2642 52.5594 86.3786 52.8942 86.6072C53.2322 86.8326 53.4957 87.1491 53.6847 87.5568H53.7642C53.9598 87.1624 54.2531 86.8492 54.6442 86.6172C55.0353 86.3819 55.5043 86.2642 56.0511 86.2642C56.7339 86.2642 57.2924 86.478 57.7266 86.9055C58.1607 87.3298 58.3778 87.991 58.3778 88.8892V94H57.2045V88.8892C57.2045 88.3258 57.0504 87.9231 56.7422 87.6811C56.4339 87.4392 56.071 87.3182 55.6534 87.3182C55.1165 87.3182 54.7005 87.4806 54.4055 87.8054C54.1106 88.1269 53.9631 88.5346 53.9631 89.0284V94H52.7699V88.7699C52.7699 88.3357 52.629 87.986 52.3473 87.7209C52.0656 87.4524 51.7027 87.3182 51.2585 87.3182C50.9536 87.3182 50.6686 87.3994 50.4034 87.5618C50.1416 87.7242 49.9295 87.9496 49.767 88.2379C49.608 88.523 49.5284 88.8527 49.5284 89.2273V94H48.3551ZM63.7248 94.1591C62.989 94.1591 62.3543 93.9967 61.8207 93.6719C61.2904 93.3438 60.881 92.8864 60.5927 92.2997C60.3076 91.7098 60.1651 91.0237 60.1651 90.2415C60.1651 89.4593 60.3076 88.7699 60.5927 88.1733C60.881 87.5734 61.2821 87.1061 61.7958 86.7713C62.3129 86.4332 62.9161 86.2642 63.6055 86.2642C64.0032 86.2642 64.396 86.3305 64.7837 86.4631C65.1715 86.5956 65.5245 86.8111 65.8427 87.1094C66.1609 87.4044 66.4144 87.7955 66.6033 88.2827C66.7923 88.7699 66.8867 89.3698 66.8867 90.0824V90.5795H61.0004V89.5653H65.6935C65.6935 89.1345 65.6074 88.75 65.435 88.4119C65.266 88.0739 65.024 87.8071 64.7092 87.6115C64.3976 87.416 64.0297 87.3182 63.6055 87.3182C63.1381 87.3182 62.7338 87.4342 62.3924 87.6662C62.0543 87.8949 61.7942 88.1932 61.6119 88.5611C61.4296 88.929 61.3384 89.3234 61.3384 89.7443V90.4205C61.3384 90.9972 61.4379 91.486 61.6367 91.8871C61.8389 92.2848 62.119 92.5881 62.4769 92.7969C62.8349 93.0024 63.2508 93.1051 63.7248 93.1051C64.033 93.1051 64.3114 93.062 64.56 92.9759C64.8119 92.8864 65.029 92.7538 65.2113 92.5781C65.3936 92.3991 65.5344 92.1771 65.6339 91.9119L66.7674 92.2301C66.6481 92.6146 66.4476 92.9527 66.1658 93.2443C65.8841 93.5327 65.5361 93.758 65.1218 93.9205C64.7075 94.0795 64.2418 94.1591 63.7248 94.1591ZM72.2113 84.9119V83.8182H79.8477V84.9119H76.646V94H75.413V84.9119H72.2113ZM83.6857 94.1591C82.9499 94.1591 82.3152 93.9967 81.7816 93.6719C81.2513 93.3438 80.842 92.8864 80.5536 92.2997C80.2686 91.7098 80.1261 91.0237 80.1261 90.2415C80.1261 89.4593 80.2686 88.7699 80.5536 88.1733C80.842 87.5734 81.243 87.1061 81.7567 86.7713C82.2738 86.4332 82.877 86.2642 83.5664 86.2642C83.9641 86.2642 84.3569 86.3305 84.7447 86.4631C85.1325 86.5956 85.4854 86.8111 85.8036 87.1094C86.1218 87.4044 86.3754 87.7955 86.5643 88.2827C86.7532 88.7699 86.8477 89.3698 86.8477 90.0824V90.5795H80.9613V89.5653H85.6545C85.6545 89.1345 85.5683 88.75 85.396 88.4119C85.2269 88.0739 84.985 87.8071 84.6701 87.6115C84.3585 87.416 83.9906 87.3182 83.5664 87.3182C83.0991 87.3182 82.6947 87.4342 82.3533 87.6662C82.0153 87.8949 81.7551 88.1932 81.5728 88.5611C81.3905 88.929 81.2994 89.3234 81.2994 89.7443V90.4205C81.2994 90.9972 81.3988 91.486 81.5977 91.8871C81.7998 92.2848 82.0799 92.5881 82.4379 92.7969C82.7958 93.0024 83.2118 93.1051 83.6857 93.1051C83.994 93.1051 84.2724 93.062 84.521 92.9759C84.7728 92.8864 84.9899 92.7538 85.1722 92.5781C85.3545 92.3991 85.4954 92.1771 85.5948 91.9119L86.7283 92.2301C86.609 92.6146 86.4085 92.9527 86.1268 93.2443C85.8451 93.5327 85.497 93.758 85.0827 93.9205C84.6684 94.0795 84.2028 94.1591 83.6857 94.1591ZM89.3024 86.3636L91.1319 89.4858L92.9615 86.3636H94.3137L91.8478 90.1818L94.3137 94H92.9615L91.1319 91.0369L89.3024 94H87.9501L90.3762 90.1818L87.9501 86.3636H89.3024ZM99.3089 86.3636V87.358H95.3516V86.3636H99.3089ZM96.505 84.5341H97.6783V91.8125C97.6783 92.1439 97.7263 92.3925 97.8224 92.5582C97.9219 92.7206 98.0478 92.83 98.2003 92.8864C98.3561 92.9394 98.5201 92.9659 98.6925 92.9659C98.8217 92.9659 98.9278 92.9593 99.0107 92.946C99.0935 92.9295 99.1598 92.9162 99.2095 92.9062L99.4482 93.9602C99.3686 93.9901 99.2576 94.0199 99.1151 94.0497C98.9725 94.0829 98.7919 94.0994 98.5732 94.0994C98.2417 94.0994 97.9169 94.0282 97.5987 93.8857C97.2839 93.7431 97.022 93.526 96.8132 93.2344C96.6077 92.9427 96.505 92.5748 96.505 92.1307V84.5341ZM107.259 94.179C106.775 94.179 106.335 94.0878 105.941 93.9055C105.547 93.7199 105.233 93.4531 105.001 93.1051C104.769 92.7538 104.653 92.3295 104.653 91.8324C104.653 91.3949 104.74 91.0402 104.912 90.7685C105.084 90.4934 105.315 90.2779 105.603 90.1222C105.891 89.9664 106.21 89.8504 106.558 89.7741C106.909 89.6946 107.262 89.6316 107.616 89.5852C108.08 89.5256 108.457 89.4808 108.745 89.451C109.037 89.4179 109.249 89.3632 109.381 89.2869C109.517 89.2107 109.585 89.0781 109.585 88.8892V88.8494C109.585 88.3589 109.451 87.9777 109.183 87.706C108.917 87.4342 108.515 87.2983 107.974 87.2983C107.414 87.2983 106.975 87.4209 106.657 87.6662C106.339 87.9115 106.115 88.1733 105.986 88.4517L104.872 88.054C105.071 87.59 105.336 87.2287 105.668 86.9702C106.002 86.7083 106.367 86.526 106.761 86.4233C107.159 86.3172 107.55 86.2642 107.935 86.2642C108.18 86.2642 108.462 86.294 108.78 86.3537C109.101 86.41 109.411 86.5277 109.71 86.7067C110.011 86.8857 110.261 87.1558 110.46 87.517C110.659 87.8783 110.759 88.3622 110.759 88.9688V94H109.585V92.9659H109.526C109.446 93.1316 109.313 93.3089 109.128 93.4979C108.942 93.6868 108.695 93.8475 108.387 93.9801C108.079 94.1127 107.703 94.179 107.259 94.179ZM107.438 93.125C107.902 93.125 108.293 93.0339 108.611 92.8516C108.932 92.6693 109.174 92.4339 109.337 92.1456C109.502 91.8572 109.585 91.554 109.585 91.2358V90.1619C109.536 90.2216 109.426 90.2763 109.257 90.326C109.091 90.3724 108.899 90.4138 108.68 90.4503C108.465 90.4834 108.254 90.5133 108.049 90.5398C107.847 90.563 107.683 90.5829 107.557 90.5994C107.252 90.6392 106.967 90.7038 106.702 90.7933C106.44 90.8795 106.228 91.0104 106.065 91.1861C105.906 91.3584 105.827 91.5937 105.827 91.892C105.827 92.2997 105.978 92.608 106.279 92.8168C106.584 93.0223 106.97 93.125 107.438 93.125ZM113.059 94V83.8182H114.232V87.5767H114.332C114.418 87.4441 114.537 87.2751 114.69 87.0696C114.846 86.8608 115.068 86.6752 115.356 86.5128C115.648 86.3471 116.042 86.2642 116.539 86.2642C117.182 86.2642 117.749 86.425 118.24 86.7464C118.73 87.0679 119.113 87.5237 119.388 88.1136C119.663 88.7036 119.801 89.3996 119.801 90.2017C119.801 91.0104 119.663 91.7114 119.388 92.3047C119.113 92.8946 118.732 93.352 118.244 93.6768C117.757 93.9983 117.195 94.1591 116.559 94.1591C116.069 94.1591 115.676 94.0779 115.381 93.9155C115.086 93.7498 114.859 93.5625 114.7 93.3537C114.541 93.1416 114.418 92.9659 114.332 92.8267H114.193V94H113.059ZM114.213 90.1818C114.213 90.7585 114.297 91.2673 114.466 91.7081C114.635 92.1456 114.882 92.4886 115.207 92.7372C115.532 92.9825 115.929 93.1051 116.4 93.1051C116.891 93.1051 117.3 92.9759 117.628 92.7173C117.959 92.4555 118.208 92.1042 118.374 91.6634C118.543 91.2192 118.627 90.7254 118.627 90.1818C118.627 89.6449 118.544 89.161 118.379 88.7301C118.216 88.2959 117.969 87.9529 117.638 87.701C117.31 87.4458 116.897 87.3182 116.4 87.3182C115.923 87.3182 115.522 87.4392 115.197 87.6811C114.872 87.9197 114.627 88.2545 114.461 88.6854C114.295 89.1129 114.213 89.6117 114.213 90.1818ZM124.698 94.1591C124.008 94.1591 123.403 93.995 122.883 93.6669C122.366 93.3388 121.962 92.8797 121.67 92.2898C121.382 91.6998 121.237 91.0104 121.237 90.2216C121.237 89.4261 121.382 88.7318 121.67 88.1385C121.962 87.5452 122.366 87.0845 122.883 86.7564C123.403 86.4283 124.008 86.2642 124.698 86.2642C125.387 86.2642 125.99 86.4283 126.507 86.7564C127.028 87.0845 127.432 87.5452 127.72 88.1385C128.012 88.7318 128.158 89.4261 128.158 90.2216C128.158 91.0104 128.012 91.6998 127.72 92.2898C127.432 92.8797 127.028 93.3388 126.507 93.6669C125.99 93.995 125.387 94.1591 124.698 94.1591ZM124.698 93.1051C125.221 93.1051 125.652 92.9709 125.99 92.7024C126.328 92.4339 126.579 92.081 126.741 91.6435C126.903 91.206 126.985 90.732 126.985 90.2216C126.985 89.7112 126.903 89.2356 126.741 88.7947C126.579 88.3539 126.328 87.9976 125.99 87.7259C125.652 87.4541 125.221 87.3182 124.698 87.3182C124.174 87.3182 123.743 87.4541 123.405 87.7259C123.067 87.9976 122.817 88.3539 122.654 88.7947C122.492 89.2356 122.411 89.7112 122.411 90.2216C122.411 90.732 122.492 91.206 122.654 91.6435C122.817 92.081 123.067 92.4339 123.405 92.7024C123.743 92.9709 124.174 93.1051 124.698 93.1051ZM134.761 90.8778V86.3636H135.935V94H134.761V92.7074H134.682C134.503 93.0952 134.224 93.425 133.847 93.6967C133.469 93.9652 132.991 94.0994 132.415 94.0994C131.938 94.0994 131.513 93.995 131.142 93.7862C130.771 93.5741 130.479 93.2559 130.267 92.8317C130.055 92.4041 129.949 91.8655 129.949 91.2159V86.3636H131.122V91.1364C131.122 91.6932 131.278 92.1373 131.589 92.4688C131.904 92.8002 132.305 92.9659 132.793 92.9659C133.084 92.9659 133.381 92.8913 133.683 92.7422C133.987 92.593 134.243 92.3643 134.448 92.0561C134.657 91.7479 134.761 91.3551 134.761 90.8778ZM141.405 86.3636V87.358H137.447V86.3636H141.405ZM138.601 84.5341H139.774V91.8125C139.774 92.1439 139.822 92.3925 139.918 92.5582C140.018 92.7206 140.144 92.83 140.296 92.8864C140.452 92.9394 140.616 92.9659 140.788 92.9659C140.917 92.9659 141.023 92.9593 141.106 92.946C141.189 92.9295 141.256 92.9162 141.305 92.9062L141.544 93.9602C141.464 93.9901 141.353 94.0199 141.211 94.0497C141.068 94.0829 140.888 94.0994 140.669 94.0994C140.337 94.0994 140.013 94.0282 139.694 93.8857C139.38 93.7431 139.118 93.526 138.909 93.2344C138.703 92.9427 138.601 92.5748 138.601 92.1307V84.5341ZM150.428 86.3636V87.358H146.471V86.3636H150.428ZM147.624 84.5341H148.797V91.8125C148.797 92.1439 148.845 92.3925 148.942 92.5582C149.041 92.7206 149.167 92.83 149.319 92.8864C149.475 92.9394 149.639 92.9659 149.812 92.9659C149.941 92.9659 150.047 92.9593 150.13 92.946C150.213 92.9295 150.279 92.9162 150.329 92.9062L150.567 93.9602C150.488 93.9901 150.377 94.0199 150.234 94.0497C150.092 94.0829 149.911 94.0994 149.692 94.0994C149.361 94.0994 149.036 94.0282 148.718 93.8857C148.403 93.7431 148.141 93.526 147.932 93.2344C147.727 92.9427 147.624 92.5748 147.624 92.1307V84.5341ZM153.53 89.4062V94H152.357V83.8182H153.53V87.5568H153.63C153.809 87.1624 154.077 86.8492 154.435 86.6172C154.796 86.3819 155.277 86.2642 155.877 86.2642C156.397 86.2642 156.853 86.3686 157.244 86.5774C157.635 86.7829 157.939 87.0994 158.154 87.527C158.373 87.9512 158.482 88.4915 158.482 89.1477V94H157.309V89.2273C157.309 88.6207 157.151 88.1518 156.836 87.8203C156.525 87.4856 156.092 87.3182 155.539 87.3182C155.154 87.3182 154.81 87.3994 154.505 87.5618C154.203 87.7242 153.965 87.9612 153.789 88.2727C153.617 88.5843 153.53 88.9621 153.53 89.4062ZM160.629 94V86.3636H161.802V94H160.629ZM161.225 85.0909C160.996 85.0909 160.799 85.013 160.634 84.8572C160.471 84.7015 160.39 84.5142 160.39 84.2955C160.39 84.0767 160.471 83.8894 160.634 83.7337C160.799 83.5779 160.996 83.5 161.225 83.5C161.454 83.5 161.649 83.5779 161.812 83.7337C161.978 83.8894 162.06 84.0767 162.06 84.2955C162.06 84.5142 161.978 84.7015 161.812 84.8572C161.649 85.013 161.454 85.0909 161.225 85.0909ZM165.124 89.4062V94H163.951V86.3636H165.084V87.5568H165.184C165.363 87.169 165.635 86.8575 165.999 86.6222C166.364 86.3835 166.834 86.2642 167.411 86.2642C167.928 86.2642 168.381 86.3703 168.768 86.5824C169.156 86.7912 169.458 87.1094 169.673 87.5369C169.889 87.9612 169.996 88.4981 169.996 89.1477V94H168.823V89.2273C168.823 88.6274 168.667 88.16 168.356 87.8253C168.044 87.4872 167.617 87.3182 167.073 87.3182C166.698 87.3182 166.364 87.3994 166.069 87.5618C165.777 87.7242 165.547 87.9612 165.378 88.2727C165.209 88.5843 165.124 88.9621 165.124 89.4062ZM175.223 97.0227C174.656 97.0227 174.169 96.9498 173.761 96.804C173.353 96.6615 173.014 96.4725 172.742 96.2372C172.473 96.0052 172.26 95.7566 172.1 95.4915L173.035 94.8352C173.141 94.9744 173.275 95.1335 173.438 95.3125C173.6 95.4948 173.822 95.6522 174.104 95.7848C174.389 95.9207 174.762 95.9886 175.223 95.9886C175.839 95.9886 176.348 95.8395 176.749 95.5412C177.15 95.2429 177.35 94.7756 177.35 94.1392V92.5881H177.251C177.165 92.7273 177.042 92.8996 176.883 93.1051C176.727 93.3073 176.502 93.4879 176.207 93.647C175.915 93.8028 175.521 93.8807 175.024 93.8807C174.407 93.8807 173.854 93.7348 173.363 93.4432C172.876 93.1515 172.49 92.7273 172.205 92.1705C171.923 91.6136 171.782 90.9375 171.782 90.142C171.782 89.3598 171.92 88.6787 172.195 88.0987C172.47 87.5154 172.853 87.0646 173.343 86.7464C173.834 86.425 174.401 86.2642 175.044 86.2642C175.541 86.2642 175.935 86.3471 176.227 86.5128C176.522 86.6752 176.747 86.8608 176.903 87.0696C177.062 87.2751 177.185 87.4441 177.271 87.5767H177.39V86.3636H178.524V94.2188C178.524 94.875 178.375 95.4086 178.076 95.8196C177.781 96.2339 177.384 96.5372 176.883 96.7294C176.386 96.925 175.833 97.0227 175.223 97.0227ZM175.183 92.8267C175.654 92.8267 176.051 92.719 176.376 92.5036C176.701 92.2881 176.948 91.9782 177.117 91.5739C177.286 91.1695 177.37 90.6856 177.37 90.1222C177.37 89.572 177.288 89.0864 177.122 88.6655C176.956 88.2446 176.711 87.9148 176.386 87.6761C176.061 87.4375 175.66 87.3182 175.183 87.3182C174.686 87.3182 174.271 87.4441 173.94 87.696C173.612 87.9479 173.365 88.286 173.199 88.7102C173.037 89.1345 172.956 89.6051 172.956 90.1222C172.956 90.6525 173.038 91.1214 173.204 91.5291C173.373 91.9335 173.622 92.2517 173.95 92.4837C174.281 92.7124 174.692 92.8267 175.183 92.8267ZM186.856 94.179C186.372 94.179 185.933 94.0878 185.539 93.9055C185.144 93.7199 184.831 93.4531 184.599 93.1051C184.367 92.7538 184.251 92.3295 184.251 91.8324C184.251 91.3949 184.337 91.0402 184.51 90.7685C184.682 90.4934 184.912 90.2779 185.201 90.1222C185.489 89.9664 185.807 89.8504 186.155 89.7741C186.507 89.6946 186.859 89.6316 187.214 89.5852C187.678 89.5256 188.054 89.4808 188.343 89.451C188.634 89.4179 188.846 89.3632 188.979 89.2869C189.115 89.2107 189.183 89.0781 189.183 88.8892V88.8494C189.183 88.3589 189.049 87.9777 188.78 87.706C188.515 87.4342 188.112 87.2983 187.572 87.2983C187.012 87.2983 186.573 87.4209 186.255 87.6662C185.936 87.9115 185.713 88.1733 185.583 88.4517L184.47 88.054C184.669 87.59 184.934 87.2287 185.265 86.9702C185.6 86.7083 185.965 86.526 186.359 86.4233C186.757 86.3172 187.148 86.2642 187.532 86.2642C187.778 86.2642 188.059 86.294 188.377 86.3537C188.699 86.41 189.009 86.5277 189.307 86.7067C189.609 86.8857 189.859 87.1558 190.058 87.517C190.257 87.8783 190.356 88.3622 190.356 88.9688V94H189.183V92.9659H189.123C189.044 93.1316 188.911 93.3089 188.725 93.4979C188.54 93.6868 188.293 93.8475 187.985 93.9801C187.676 94.1127 187.3 94.179 186.856 94.179ZM187.035 93.125C187.499 93.125 187.89 93.0339 188.208 92.8516C188.53 92.6693 188.772 92.4339 188.934 92.1456C189.1 91.8572 189.183 91.554 189.183 91.2358V90.1619C189.133 90.2216 189.024 90.2763 188.855 90.326C188.689 90.3724 188.497 90.4138 188.278 90.4503C188.063 90.4834 187.852 90.5133 187.647 90.5398C187.444 90.563 187.28 90.5829 187.154 90.5994C186.85 90.6392 186.565 90.7038 186.299 90.7933C186.038 90.8795 185.825 91.0104 185.663 91.1861C185.504 91.3584 185.424 91.5937 185.424 91.892C185.424 92.2997 185.575 92.608 185.877 92.8168C186.182 93.0223 186.568 93.125 187.035 93.125ZM192.657 94V83.8182H193.83V87.5767H193.93C194.016 87.4441 194.135 87.2751 194.287 87.0696C194.443 86.8608 194.665 86.6752 194.954 86.5128C195.245 86.3471 195.64 86.2642 196.137 86.2642C196.78 86.2642 197.347 86.425 197.837 86.7464C198.328 87.0679 198.711 87.5237 198.986 88.1136C199.261 88.7036 199.398 89.3996 199.398 90.2017C199.398 91.0104 199.261 91.7114 198.986 92.3047C198.711 92.8946 198.329 93.352 197.842 93.6768C197.355 93.9983 196.793 94.1591 196.157 94.1591C195.666 94.1591 195.273 94.0779 194.979 93.9155C194.684 93.7498 194.456 93.5625 194.297 93.3537C194.138 93.1416 194.016 92.9659 193.93 92.8267H193.79V94H192.657ZM193.81 90.1818C193.81 90.7585 193.895 91.2673 194.064 91.7081C194.233 92.1456 194.48 92.4886 194.805 92.7372C195.129 92.9825 195.527 93.1051 195.998 93.1051C196.488 93.1051 196.898 92.9759 197.226 92.7173C197.557 92.4555 197.806 92.1042 197.971 91.6634C198.14 91.2192 198.225 90.7254 198.225 90.1818C198.225 89.6449 198.142 89.161 197.976 88.7301C197.814 88.2959 197.567 87.9529 197.236 87.701C196.907 87.4458 196.495 87.3182 195.998 87.3182C195.52 87.3182 195.119 87.4392 194.795 87.6811C194.47 87.9197 194.224 88.2545 194.059 88.6854C193.893 89.1129 193.81 89.6117 193.81 90.1818ZM204.295 94.1591C203.606 94.1591 203.001 93.995 202.481 93.6669C201.964 93.3388 201.559 92.8797 201.268 92.2898C200.979 91.6998 200.835 91.0104 200.835 90.2216C200.835 89.4261 200.979 88.7318 201.268 88.1385C201.559 87.5452 201.964 87.0845 202.481 86.7564C203.001 86.4283 203.606 86.2642 204.295 86.2642C204.985 86.2642 205.588 86.4283 206.105 86.7564C206.625 87.0845 207.03 87.5452 207.318 88.1385C207.61 88.7318 207.756 89.4261 207.756 90.2216C207.756 91.0104 207.61 91.6998 207.318 92.2898C207.03 92.8797 206.625 93.3388 206.105 93.6669C205.588 93.995 204.985 94.1591 204.295 94.1591ZM204.295 93.1051C204.819 93.1051 205.25 92.9709 205.588 92.7024C205.926 92.4339 206.176 92.081 206.339 91.6435C206.501 91.206 206.582 90.732 206.582 90.2216C206.582 89.7112 206.501 89.2356 206.339 88.7947C206.176 88.3539 205.926 87.9976 205.588 87.7259C205.25 87.4541 204.819 87.3182 204.295 87.3182C203.772 87.3182 203.341 87.4541 203.003 87.7259C202.665 87.9976 202.414 88.3539 202.252 88.7947C202.09 89.2356 202.008 89.7112 202.008 90.2216C202.008 90.732 202.09 91.206 202.252 91.6435C202.414 92.081 202.665 92.4339 203.003 92.7024C203.341 92.9709 203.772 93.1051 204.295 93.1051ZM214.359 90.8778V86.3636H215.532V94H214.359V92.7074H214.279C214.1 93.0952 213.822 93.425 213.444 93.6967C213.066 93.9652 212.589 94.0994 212.012 94.0994C211.535 94.0994 211.111 93.995 210.74 93.7862C210.368 93.5741 210.077 93.2559 209.865 92.8317C209.653 92.4041 209.547 91.8655 209.547 91.2159V86.3636H210.72V91.1364C210.72 91.6932 210.876 92.1373 211.187 92.4688C211.502 92.8002 211.903 92.9659 212.39 92.9659C212.682 92.9659 212.979 92.8913 213.28 92.7422C213.585 92.593 213.84 92.3643 214.046 92.0561C214.255 91.7479 214.359 91.3551 214.359 90.8778ZM221.002 86.3636V87.358H217.045V86.3636H221.002ZM218.198 84.5341H219.372V91.8125C219.372 92.1439 219.42 92.3925 219.516 92.5582C219.615 92.7206 219.741 92.83 219.894 92.8864C220.049 92.9394 220.213 92.9659 220.386 92.9659C220.515 92.9659 220.621 92.9593 220.704 92.946C220.787 92.9295 220.853 92.9162 220.903 92.9062L221.142 93.9602C221.062 93.9901 220.951 94.0199 220.808 94.0497C220.666 94.0829 220.485 94.0994 220.267 94.0994C219.935 94.0994 219.61 94.0282 219.292 93.8857C218.977 93.7431 218.715 93.526 218.507 93.2344C218.301 92.9427 218.198 92.5748 218.198 92.1307V84.5341ZM230.026 86.3636V87.358H226.068V86.3636H230.026ZM227.222 84.5341H228.395V91.8125C228.395 92.1439 228.443 92.3925 228.539 92.5582C228.639 92.7206 228.765 92.83 228.917 92.8864C229.073 92.9394 229.237 92.9659 229.409 92.9659C229.539 92.9659 229.645 92.9593 229.727 92.946C229.81 92.9295 229.877 92.9162 229.926 92.9062L230.165 93.9602C230.085 93.9901 229.974 94.0199 229.832 94.0497C229.689 94.0829 229.509 94.0994 229.29 94.0994C228.959 94.0994 228.634 94.0282 228.316 93.8857C228.001 93.7431 227.739 93.526 227.53 93.2344C227.325 92.9427 227.222 92.5748 227.222 92.1307V84.5341ZM233.128 89.4062V94H231.955V83.8182H233.128V87.5568H233.227C233.406 87.1624 233.675 86.8492 234.033 86.6172C234.394 86.3819 234.875 86.2642 235.475 86.2642C235.995 86.2642 236.451 86.3686 236.842 86.5774C237.233 86.7829 237.536 87.0994 237.752 87.527C237.97 87.9512 238.08 88.4915 238.08 89.1477V94H236.906V89.2273C236.906 88.6207 236.749 88.1518 236.434 87.8203C236.123 87.4856 235.69 87.3182 235.137 87.3182C234.752 87.3182 234.407 87.3994 234.102 87.5618C233.801 87.7242 233.562 87.9612 233.387 88.2727C233.214 88.5843 233.128 88.9621 233.128 89.4062ZM240.226 94V86.3636H241.4V94H240.226ZM240.823 85.0909C240.594 85.0909 240.397 85.013 240.231 84.8572C240.069 84.7015 239.988 84.5142 239.988 84.2955C239.988 84.0767 240.069 83.8894 240.231 83.7337C240.397 83.5779 240.594 83.5 240.823 83.5C241.051 83.5 241.247 83.5779 241.409 83.7337C241.575 83.8894 241.658 84.0767 241.658 84.2955C241.658 84.5142 241.575 84.7015 241.409 84.8572C241.247 85.013 241.051 85.0909 240.823 85.0909ZM244.722 89.4062V94H243.548V86.3636H244.682V87.5568H244.781C244.96 87.169 245.232 86.8575 245.597 86.6222C245.961 86.3835 246.432 86.2642 247.009 86.2642C247.526 86.2642 247.978 86.3703 248.366 86.5824C248.754 86.7912 249.055 87.1094 249.271 87.5369C249.486 87.9612 249.594 88.4981 249.594 89.1477V94H248.421V89.2273C248.421 88.6274 248.265 88.16 247.953 87.8253C247.642 87.4872 247.214 87.3182 246.671 87.3182C246.296 87.3182 245.961 87.3994 245.666 87.5618C245.375 87.7242 245.144 87.9612 244.975 88.2727C244.806 88.5843 244.722 88.9621 244.722 89.4062ZM254.82 97.0227C254.254 97.0227 253.766 96.9498 253.359 96.804C252.951 96.6615 252.611 96.4725 252.339 96.2372C252.071 96.0052 251.857 95.7566 251.698 95.4915L252.633 94.8352C252.739 94.9744 252.873 95.1335 253.036 95.3125C253.198 95.4948 253.42 95.6522 253.702 95.7848C253.987 95.9207 254.36 95.9886 254.82 95.9886C255.437 95.9886 255.946 95.8395 256.347 95.5412C256.748 95.2429 256.948 94.7756 256.948 94.1392V92.5881H256.849C256.763 92.7273 256.64 92.8996 256.481 93.1051C256.325 93.3073 256.1 93.4879 255.805 93.647C255.513 93.8028 255.119 93.8807 254.621 93.8807C254.005 93.8807 253.451 93.7348 252.961 93.4432C252.474 93.1515 252.088 92.7273 251.803 92.1705C251.521 91.6136 251.38 90.9375 251.38 90.142C251.38 89.3598 251.518 88.6787 251.793 88.0987C252.068 87.5154 252.451 87.0646 252.941 86.7464C253.432 86.425 253.998 86.2642 254.641 86.2642C255.138 86.2642 255.533 86.3471 255.825 86.5128C256.12 86.6752 256.345 86.8608 256.501 87.0696C256.66 87.2751 256.782 87.4441 256.869 87.5767H256.988V86.3636H258.121V94.2188C258.121 94.875 257.972 95.4086 257.674 95.8196C257.379 96.2339 256.981 96.5372 256.481 96.7294C255.984 96.925 255.43 97.0227 254.82 97.0227ZM254.781 92.8267C255.251 92.8267 255.649 92.719 255.974 92.5036C256.299 92.2881 256.545 91.9782 256.714 91.5739C256.884 91.1695 256.968 90.6856 256.968 90.1222C256.968 89.572 256.885 89.0864 256.719 88.6655C256.554 88.2446 256.308 87.9148 255.984 87.6761C255.659 87.4375 255.258 87.3182 254.781 87.3182C254.283 87.3182 253.869 87.4441 253.538 87.696C253.21 87.9479 252.963 88.286 252.797 88.7102C252.634 89.1345 252.553 89.6051 252.553 90.1222C252.553 90.6525 252.636 91.1214 252.802 91.5291C252.971 91.9335 253.219 92.2517 253.548 92.4837C253.879 92.7124 254.29 92.8267 254.781 92.8267ZM265.678 88.0739L264.624 88.3722C264.558 88.1965 264.46 88.0258 264.331 87.8601C264.205 87.6911 264.033 87.5518 263.814 87.4425C263.595 87.3331 263.315 87.2784 262.974 87.2784C262.506 87.2784 262.117 87.3861 261.805 87.6016C261.497 87.8137 261.343 88.0838 261.343 88.4119C261.343 88.7036 261.449 88.9339 261.661 89.103C261.873 89.272 262.205 89.4129 262.656 89.5256L263.789 89.804C264.472 89.9697 264.981 90.2232 265.315 90.5646C265.65 90.9027 265.817 91.3385 265.817 91.8722C265.817 92.3097 265.692 92.7008 265.44 93.0455C265.191 93.3902 264.843 93.6619 264.396 93.8608C263.948 94.0597 263.428 94.1591 262.835 94.1591C262.056 94.1591 261.411 93.9901 260.901 93.652C260.39 93.3139 260.067 92.8201 259.931 92.1705L261.045 91.892C261.151 92.303 261.351 92.6113 261.646 92.8168C261.945 93.0223 262.334 93.125 262.815 93.125C263.362 93.125 263.796 93.009 264.117 92.777C264.442 92.5417 264.604 92.2599 264.604 91.9318C264.604 91.6667 264.512 91.4446 264.326 91.2656C264.14 91.0833 263.855 90.9474 263.471 90.858L262.198 90.5597C261.499 90.3939 260.985 90.1371 260.657 89.7891C260.332 89.4377 260.17 88.9986 260.17 88.4716C260.17 88.0407 260.291 87.6596 260.533 87.3281C260.778 86.9967 261.111 86.7365 261.532 86.5476C261.956 86.3587 262.437 86.2642 262.974 86.2642C263.729 86.2642 264.323 86.4299 264.754 86.7614C265.188 87.0928 265.496 87.5303 265.678 88.0739ZM33.321 111.179C32.8371 111.179 32.398 111.088 32.0036 110.906C31.6091 110.72 31.2959 110.453 31.0639 110.105C30.8319 109.754 30.7159 109.33 30.7159 108.832C30.7159 108.395 30.8021 108.04 30.9744 107.768C31.1468 107.493 31.3771 107.278 31.6655 107.122C31.9538 106.966 32.272 106.85 32.62 106.774C32.9714 106.695 33.3243 106.632 33.679 106.585C34.143 106.526 34.5192 106.481 34.8075 106.451C35.0992 106.418 35.3113 106.363 35.4439 106.287C35.5798 106.211 35.6477 106.078 35.6477 105.889V105.849C35.6477 105.359 35.5135 104.978 35.245 104.706C34.9799 104.434 34.5772 104.298 34.0369 104.298C33.4768 104.298 33.0376 104.421 32.7195 104.666C32.4013 104.911 32.1776 105.173 32.0483 105.452L30.9347 105.054C31.1335 104.59 31.3987 104.229 31.7301 103.97C32.0649 103.708 32.4295 103.526 32.8239 103.423C33.2216 103.317 33.6127 103.264 33.9972 103.264C34.2424 103.264 34.5241 103.294 34.8423 103.354C35.1638 103.41 35.4737 103.528 35.772 103.707C36.0736 103.886 36.3239 104.156 36.5227 104.517C36.7216 104.878 36.821 105.362 36.821 105.969V111H35.6477V109.966H35.5881C35.5085 110.132 35.3759 110.309 35.1903 110.498C35.0047 110.687 34.7578 110.848 34.4496 110.98C34.1413 111.113 33.7652 111.179 33.321 111.179ZM33.5 110.125C33.964 110.125 34.3551 110.034 34.6733 109.852C34.9948 109.669 35.2367 109.434 35.3991 109.146C35.5649 108.857 35.6477 108.554 35.6477 108.236V107.162C35.598 107.222 35.4886 107.276 35.3196 107.326C35.1539 107.372 34.9616 107.414 34.7429 107.45C34.5275 107.483 34.317 107.513 34.1115 107.54C33.9093 107.563 33.7453 107.583 33.6193 107.599C33.3144 107.639 33.0294 107.704 32.7642 107.793C32.5024 107.879 32.2902 108.01 32.1278 108.186C31.9688 108.358 31.8892 108.594 31.8892 108.892C31.8892 109.3 32.04 109.608 32.3416 109.817C32.6465 110.022 33.0327 110.125 33.5 110.125ZM39.1216 111V100.818H40.2949V104.577H40.3944C40.4805 104.444 40.5998 104.275 40.7523 104.07C40.9081 103.861 41.1301 103.675 41.4185 103.513C41.7102 103.347 42.1046 103.264 42.6017 103.264C43.2447 103.264 43.8115 103.425 44.302 103.746C44.7926 104.068 45.1754 104.524 45.4505 105.114C45.7256 105.704 45.8631 106.4 45.8631 107.202C45.8631 108.01 45.7256 108.711 45.4505 109.305C45.1754 109.895 44.7942 110.352 44.307 110.677C43.8198 110.998 43.258 111.159 42.6216 111.159C42.1311 111.159 41.7383 111.078 41.4434 110.915C41.1484 110.75 40.9213 110.562 40.7623 110.354C40.6032 110.142 40.4805 109.966 40.3944 109.827H40.2551V111H39.1216ZM40.275 107.182C40.275 107.759 40.3596 108.267 40.5286 108.708C40.6976 109.146 40.9445 109.489 41.2694 109.737C41.5942 109.982 41.9919 110.105 42.4625 110.105C42.9531 110.105 43.3624 109.976 43.6905 109.717C44.022 109.455 44.2705 109.104 44.4363 108.663C44.6053 108.219 44.6898 107.725 44.6898 107.182C44.6898 106.645 44.6069 106.161 44.4412 105.73C44.2788 105.296 44.0319 104.953 43.7005 104.701C43.3723 104.446 42.9597 104.318 42.4625 104.318C41.9853 104.318 41.5842 104.439 41.2594 104.681C40.9346 104.92 40.6893 105.254 40.5236 105.685C40.3579 106.113 40.275 106.612 40.275 107.182ZM50.7601 111.159C50.0707 111.159 49.4659 110.995 48.9455 110.667C48.4284 110.339 48.0241 109.88 47.7324 109.29C47.4441 108.7 47.2999 108.01 47.2999 107.222C47.2999 106.426 47.4441 105.732 47.7324 105.138C48.0241 104.545 48.4284 104.085 48.9455 103.756C49.4659 103.428 50.0707 103.264 50.7601 103.264C51.4495 103.264 52.0527 103.428 52.5698 103.756C53.0901 104.085 53.4945 104.545 53.7828 105.138C54.0745 105.732 54.2203 106.426 54.2203 107.222C54.2203 108.01 54.0745 108.7 53.7828 109.29C53.4945 109.88 53.0901 110.339 52.5698 110.667C52.0527 110.995 51.4495 111.159 50.7601 111.159ZM50.7601 110.105C51.2838 110.105 51.7147 109.971 52.0527 109.702C52.3908 109.434 52.641 109.081 52.8034 108.643C52.9659 108.206 53.0471 107.732 53.0471 107.222C53.0471 106.711 52.9659 106.236 52.8034 105.795C52.641 105.354 52.3908 104.998 52.0527 104.726C51.7147 104.454 51.2838 104.318 50.7601 104.318C50.2364 104.318 49.8056 104.454 49.4675 104.726C49.1294 104.998 48.8792 105.354 48.7168 105.795C48.5544 106.236 48.4732 106.711 48.4732 107.222C48.4732 107.732 48.5544 108.206 48.7168 108.643C48.8792 109.081 49.1294 109.434 49.4675 109.702C49.8056 109.971 50.2364 110.105 50.7601 110.105ZM60.8239 107.878V103.364H61.9972V111H60.8239V109.707H60.7443C60.5653 110.095 60.2869 110.425 59.9091 110.697C59.5313 110.965 59.054 111.099 58.4773 111.099C58 111.099 57.5758 110.995 57.2045 110.786C56.8333 110.574 56.5417 110.256 56.3295 109.832C56.1174 109.404 56.0114 108.866 56.0114 108.216V103.364H57.1847V108.136C57.1847 108.693 57.3404 109.137 57.652 109.469C57.9669 109.8 58.3679 109.966 58.8551 109.966C59.1468 109.966 59.4434 109.891 59.745 109.742C60.05 109.593 60.3052 109.364 60.5107 109.056C60.7195 108.748 60.8239 108.355 60.8239 107.878ZM67.4672 103.364V104.358H63.5098V103.364H67.4672ZM64.6632 101.534H65.8365V108.812C65.8365 109.144 65.8845 109.393 65.9806 109.558C66.0801 109.721 66.206 109.83 66.3585 109.886C66.5143 109.939 66.6783 109.966 66.8507 109.966C66.9799 109.966 67.086 109.959 67.1689 109.946C67.2517 109.929 67.318 109.916 67.3677 109.906L67.6064 110.96C67.5268 110.99 67.4158 111.02 67.2733 111.05C67.1307 111.083 66.9501 111.099 66.7314 111.099C66.3999 111.099 66.0751 111.028 65.7569 110.886C65.4421 110.743 65.1802 110.526 64.9714 110.234C64.7659 109.943 64.6632 109.575 64.6632 109.131V101.534ZM76.4906 103.364V104.358H72.5332V103.364H76.4906ZM73.6866 101.534H74.8599V108.812C74.8599 109.144 74.908 109.393 75.0041 109.558C75.1035 109.721 75.2295 109.83 75.3819 109.886C75.5377 109.939 75.7018 109.966 75.8741 109.966C76.0034 109.966 76.1094 109.959 76.1923 109.946C76.2752 109.929 76.3414 109.916 76.3912 109.906L76.6298 110.96C76.5502 110.99 76.4392 111.02 76.2967 111.05C76.1542 111.083 75.9735 111.099 75.7548 111.099C75.4234 111.099 75.0985 111.028 74.7804 110.886C74.4655 110.743 74.2037 110.526 73.9949 110.234C73.7894 109.943 73.6866 109.575 73.6866 109.131V101.534ZM81.3752 111.159C80.6394 111.159 80.0047 110.997 79.4711 110.672C78.9408 110.344 78.5314 109.886 78.2431 109.3C77.958 108.71 77.8155 108.024 77.8155 107.241C77.8155 106.459 77.958 105.77 78.2431 105.173C78.5314 104.573 78.9325 104.106 79.4462 103.771C79.9632 103.433 80.5665 103.264 81.2559 103.264C81.6536 103.264 82.0463 103.33 82.4341 103.463C82.8219 103.596 83.1749 103.811 83.4931 104.109C83.8113 104.404 84.0648 104.795 84.2537 105.283C84.4426 105.77 84.5371 106.37 84.5371 107.082V107.58H78.6507V106.565H83.3439C83.3439 106.134 83.2578 105.75 83.0854 105.412C82.9164 105.074 82.6744 104.807 82.3596 104.612C82.048 104.416 81.6801 104.318 81.2559 104.318C80.7885 104.318 80.3842 104.434 80.0428 104.666C79.7047 104.895 79.4445 105.193 79.2623 105.561C79.08 105.929 78.9888 106.323 78.9888 106.744V107.42C78.9888 107.997 79.0882 108.486 79.2871 108.887C79.4893 109.285 79.7694 109.588 80.1273 109.797C80.4853 110.002 80.9012 110.105 81.3752 110.105C81.6834 110.105 81.9618 110.062 82.2104 109.976C82.4623 109.886 82.6794 109.754 82.8617 109.578C83.044 109.399 83.1848 109.177 83.2843 108.912L84.4178 109.23C84.2985 109.615 84.098 109.953 83.8162 110.244C83.5345 110.533 83.1865 110.758 82.7722 110.92C82.3579 111.08 81.8922 111.159 81.3752 111.159ZM86.9918 103.364L88.8214 106.486L90.6509 103.364H92.0032L89.5373 107.182L92.0032 111H90.6509L88.8214 108.037L86.9918 111H85.6396L88.0657 107.182L85.6396 103.364H86.9918ZM96.9984 103.364V104.358H93.041V103.364H96.9984ZM94.1944 101.534H95.3677V108.812C95.3677 109.144 95.4158 109.393 95.5119 109.558C95.6113 109.721 95.7373 109.83 95.8897 109.886C96.0455 109.939 96.2096 109.966 96.3819 109.966C96.5112 109.966 96.6172 109.959 96.7001 109.946C96.783 109.929 96.8493 109.916 96.899 109.906L97.1376 110.96C97.0581 110.99 96.947 111.02 96.8045 111.05C96.662 111.083 96.4814 111.099 96.2626 111.099C95.9312 111.099 95.6064 111.028 95.2882 110.886C94.9733 110.743 94.7115 110.526 94.5027 110.234C94.2972 109.943 94.1944 109.575 94.1944 109.131V101.534ZM104.948 111.179C104.464 111.179 104.025 111.088 103.631 110.906C103.236 110.72 102.923 110.453 102.691 110.105C102.459 109.754 102.343 109.33 102.343 108.832C102.343 108.395 102.429 108.04 102.601 107.768C102.774 107.493 103.004 107.278 103.292 107.122C103.581 106.966 103.899 106.85 104.247 106.774C104.598 106.695 104.951 106.632 105.306 106.585C105.77 106.526 106.146 106.481 106.434 106.451C106.726 106.418 106.938 106.363 107.071 106.287C107.207 106.211 107.275 106.078 107.275 105.889V105.849C107.275 105.359 107.14 104.978 106.872 104.706C106.607 104.434 106.204 104.298 105.664 104.298C105.104 104.298 104.665 104.421 104.346 104.666C104.028 104.911 103.805 105.173 103.675 105.452L102.562 105.054C102.76 104.59 103.026 104.229 103.357 103.97C103.692 103.708 104.056 103.526 104.451 103.423C104.849 103.317 105.24 103.264 105.624 103.264C105.869 103.264 106.151 103.294 106.469 103.354C106.791 103.41 107.101 103.528 107.399 103.707C107.701 103.886 107.951 104.156 108.15 104.517C108.349 104.878 108.448 105.362 108.448 105.969V111H107.275V109.966H107.215C107.135 110.132 107.003 110.309 106.817 110.498C106.632 110.687 106.385 110.848 106.077 110.98C105.768 111.113 105.392 111.179 104.948 111.179ZM105.127 110.125C105.591 110.125 105.982 110.034 106.3 109.852C106.622 109.669 106.864 109.434 107.026 109.146C107.192 108.857 107.275 108.554 107.275 108.236V107.162C107.225 107.222 107.116 107.276 106.947 107.326C106.781 107.372 106.589 107.414 106.37 107.45C106.154 107.483 105.944 107.513 105.738 107.54C105.536 107.563 105.372 107.583 105.246 107.599C104.941 107.639 104.656 107.704 104.391 107.793C104.129 107.879 103.917 108.01 103.755 108.186C103.596 108.358 103.516 108.594 103.516 108.892C103.516 109.3 103.667 109.608 103.969 109.817C104.273 110.022 104.66 110.125 105.127 110.125ZM111.763 106.406V111H110.589V103.364H111.723V104.557H111.822C112.001 104.169 112.273 103.857 112.638 103.622C113.002 103.384 113.473 103.264 114.05 103.264C114.567 103.264 115.019 103.37 115.407 103.582C115.795 103.791 116.096 104.109 116.312 104.537C116.527 104.961 116.635 105.498 116.635 106.148V111H115.462V106.227C115.462 105.627 115.306 105.16 114.994 104.825C114.683 104.487 114.255 104.318 113.712 104.318C113.337 104.318 113.002 104.399 112.707 104.562C112.416 104.724 112.185 104.961 112.016 105.273C111.847 105.584 111.763 105.962 111.763 106.406ZM121.662 111.159C121.026 111.159 120.464 110.998 119.977 110.677C119.49 110.352 119.109 109.895 118.834 109.305C118.559 108.711 118.421 108.01 118.421 107.202C118.421 106.4 118.559 105.704 118.834 105.114C119.109 104.524 119.492 104.068 119.982 103.746C120.473 103.425 121.039 103.264 121.682 103.264C122.18 103.264 122.572 103.347 122.861 103.513C123.152 103.675 123.374 103.861 123.527 104.07C123.683 104.275 123.804 104.444 123.89 104.577H123.989V100.818H125.162V111H124.029V109.827H123.89C123.804 109.966 123.681 110.142 123.522 110.354C123.363 110.562 123.136 110.75 122.841 110.915C122.546 111.078 122.153 111.159 121.662 111.159ZM121.822 110.105C122.292 110.105 122.69 109.982 123.015 109.737C123.34 109.489 123.586 109.146 123.756 108.708C123.925 108.267 124.009 107.759 124.009 107.182C124.009 106.612 123.926 106.113 123.76 105.685C123.595 105.254 123.349 104.92 123.025 104.681C122.7 104.439 122.299 104.318 121.822 104.318C121.324 104.318 120.91 104.446 120.579 104.701C120.251 104.953 120.004 105.296 119.838 105.73C119.675 106.161 119.594 106.645 119.594 107.182C119.594 107.725 119.677 108.219 119.843 108.663C120.012 109.104 120.26 109.455 120.589 109.717C120.92 109.976 121.331 110.105 121.822 110.105ZM136.821 105.074L135.767 105.372C135.701 105.196 135.603 105.026 135.474 104.86C135.348 104.691 135.175 104.552 134.956 104.442C134.738 104.333 134.458 104.278 134.116 104.278C133.649 104.278 133.26 104.386 132.948 104.602C132.64 104.814 132.486 105.084 132.486 105.412C132.486 105.704 132.592 105.934 132.804 106.103C133.016 106.272 133.347 106.413 133.798 106.526L134.932 106.804C135.614 106.97 136.123 107.223 136.458 107.565C136.793 107.903 136.96 108.339 136.96 108.872C136.96 109.31 136.834 109.701 136.582 110.045C136.334 110.39 135.986 110.662 135.538 110.861C135.091 111.06 134.57 111.159 133.977 111.159C133.198 111.159 132.554 110.99 132.043 110.652C131.533 110.314 131.21 109.82 131.074 109.17L132.187 108.892C132.293 109.303 132.494 109.611 132.789 109.817C133.087 110.022 133.477 110.125 133.957 110.125C134.504 110.125 134.938 110.009 135.26 109.777C135.585 109.542 135.747 109.26 135.747 108.932C135.747 108.667 135.654 108.445 135.469 108.266C135.283 108.083 134.998 107.947 134.613 107.858L133.341 107.56C132.641 107.394 132.128 107.137 131.8 106.789C131.475 106.438 131.312 105.999 131.312 105.472C131.312 105.041 131.433 104.66 131.675 104.328C131.921 103.997 132.254 103.737 132.675 103.548C133.099 103.359 133.579 103.264 134.116 103.264C134.872 103.264 135.465 103.43 135.896 103.761C136.33 104.093 136.639 104.53 136.821 105.074ZM141.828 111.159C141.139 111.159 140.534 110.995 140.014 110.667C139.497 110.339 139.092 109.88 138.801 109.29C138.512 108.7 138.368 108.01 138.368 107.222C138.368 106.426 138.512 105.732 138.801 105.138C139.092 104.545 139.497 104.085 140.014 103.756C140.534 103.428 141.139 103.264 141.828 103.264C142.518 103.264 143.121 103.428 143.638 103.756C144.158 104.085 144.563 104.545 144.851 105.138C145.143 105.732 145.289 106.426 145.289 107.222C145.289 108.01 145.143 108.7 144.851 109.29C144.563 109.88 144.158 110.339 143.638 110.667C143.121 110.995 142.518 111.159 141.828 111.159ZM141.828 110.105C142.352 110.105 142.783 109.971 143.121 109.702C143.459 109.434 143.709 109.081 143.872 108.643C144.034 108.206 144.115 107.732 144.115 107.222C144.115 106.711 144.034 106.236 143.872 105.795C143.709 105.354 143.459 104.998 143.121 104.726C142.783 104.454 142.352 104.318 141.828 104.318C141.305 104.318 140.874 104.454 140.536 104.726C140.198 104.998 139.948 105.354 139.785 105.795C139.623 106.236 139.542 106.711 139.542 107.222C139.542 107.732 139.623 108.206 139.785 108.643C139.948 109.081 140.198 109.434 140.536 109.702C140.874 109.971 141.305 110.105 141.828 110.105ZM147.08 111V103.364H148.213V104.557H148.313C148.472 104.149 148.729 103.833 149.083 103.607C149.438 103.379 149.864 103.264 150.361 103.264C150.865 103.264 151.284 103.379 151.619 103.607C151.957 103.833 152.22 104.149 152.409 104.557H152.489C152.684 104.162 152.978 103.849 153.369 103.617C153.76 103.382 154.229 103.264 154.776 103.264C155.459 103.264 156.017 103.478 156.451 103.906C156.885 104.33 157.102 104.991 157.102 105.889V111H155.929V105.889C155.929 105.326 155.775 104.923 155.467 104.681C155.159 104.439 154.796 104.318 154.378 104.318C153.841 104.318 153.425 104.481 153.13 104.805C152.835 105.127 152.688 105.535 152.688 106.028V111H151.494V105.77C151.494 105.336 151.354 104.986 151.072 104.721C150.79 104.452 150.427 104.318 149.983 104.318C149.678 104.318 149.393 104.399 149.128 104.562C148.866 104.724 148.654 104.95 148.492 105.238C148.333 105.523 148.253 105.853 148.253 106.227V111H147.08ZM162.449 111.159C161.714 111.159 161.079 110.997 160.545 110.672C160.015 110.344 159.606 109.886 159.317 109.3C159.032 108.71 158.89 108.024 158.89 107.241C158.89 106.459 159.032 105.77 159.317 105.173C159.606 104.573 160.007 104.106 160.52 103.771C161.037 103.433 161.641 103.264 162.33 103.264C162.728 103.264 163.121 103.33 163.508 103.463C163.896 103.596 164.249 103.811 164.567 104.109C164.885 104.404 165.139 104.795 165.328 105.283C165.517 105.77 165.611 106.37 165.611 107.082V107.58H159.725V106.565H164.418C164.418 106.134 164.332 105.75 164.16 105.412C163.991 105.074 163.749 104.807 163.434 104.612C163.122 104.416 162.754 104.318 162.33 104.318C161.863 104.318 161.458 104.434 161.117 104.666C160.779 104.895 160.519 105.193 160.336 105.561C160.154 105.929 160.063 106.323 160.063 106.744V107.42C160.063 107.997 160.162 108.486 160.361 108.887C160.564 109.285 160.844 109.588 161.202 109.797C161.559 110.002 161.975 110.105 162.449 110.105C162.758 110.105 163.036 110.062 163.285 109.976C163.537 109.886 163.754 109.754 163.936 109.578C164.118 109.399 164.259 109.177 164.358 108.912L165.492 109.23C165.373 109.615 165.172 109.953 164.89 110.244C164.609 110.533 164.261 110.758 163.846 110.92C163.432 111.08 162.966 111.159 162.449 111.159ZM174.655 103.364V104.358H170.697V103.364H174.655ZM171.851 101.534H173.024V108.812C173.024 109.144 173.072 109.393 173.168 109.558C173.268 109.721 173.394 109.83 173.546 109.886C173.702 109.939 173.866 109.966 174.038 109.966C174.167 109.966 174.273 109.959 174.356 109.946C174.439 109.929 174.506 109.916 174.555 109.906L174.794 110.96C174.714 110.99 174.603 111.02 174.461 111.05C174.318 111.083 174.138 111.099 173.919 111.099C173.587 111.099 173.263 111.028 172.944 110.886C172.63 110.743 172.368 110.526 172.159 110.234C171.953 109.943 171.851 109.575 171.851 109.131V101.534ZM177.757 106.406V111H176.584V100.818H177.757V104.557H177.856C178.035 104.162 178.304 103.849 178.662 103.617C179.023 103.382 179.504 103.264 180.104 103.264C180.624 103.264 181.08 103.369 181.471 103.577C181.862 103.783 182.165 104.099 182.381 104.527C182.599 104.951 182.709 105.491 182.709 106.148V111H181.535V106.227C181.535 105.621 181.378 105.152 181.063 104.82C180.751 104.486 180.319 104.318 179.765 104.318C179.381 104.318 179.036 104.399 178.731 104.562C178.43 104.724 178.191 104.961 178.015 105.273C177.843 105.584 177.757 105.962 177.757 106.406ZM184.855 111V103.364H186.028V111H184.855ZM185.452 102.091C185.223 102.091 185.026 102.013 184.86 101.857C184.698 101.701 184.616 101.514 184.616 101.295C184.616 101.077 184.698 100.889 184.86 100.734C185.026 100.578 185.223 100.5 185.452 100.5C185.68 100.5 185.876 100.578 186.038 100.734C186.204 100.889 186.287 101.077 186.287 101.295C186.287 101.514 186.204 101.701 186.038 101.857C185.876 102.013 185.68 102.091 185.452 102.091ZM189.351 106.406V111H188.177V103.364H189.311V104.557H189.41C189.589 104.169 189.861 103.857 190.226 103.622C190.59 103.384 191.061 103.264 191.638 103.264C192.155 103.264 192.607 103.37 192.995 103.582C193.383 103.791 193.684 104.109 193.9 104.537C194.115 104.961 194.223 105.498 194.223 106.148V111H193.05V106.227C193.05 105.627 192.894 105.16 192.582 104.825C192.271 104.487 191.843 104.318 191.3 104.318C190.925 104.318 190.59 104.399 190.295 104.562C190.004 104.724 189.773 104.961 189.604 105.273C189.435 105.584 189.351 105.962 189.351 106.406ZM199.449 114.023C198.882 114.023 198.395 113.95 197.988 113.804C197.58 113.661 197.24 113.473 196.968 113.237C196.7 113.005 196.486 112.757 196.327 112.491L197.262 111.835C197.368 111.974 197.502 112.134 197.664 112.312C197.827 112.495 198.049 112.652 198.331 112.785C198.616 112.921 198.989 112.989 199.449 112.989C200.066 112.989 200.574 112.839 200.975 112.541C201.377 112.243 201.577 111.776 201.577 111.139V109.588H201.478C201.391 109.727 201.269 109.9 201.11 110.105C200.954 110.307 200.729 110.488 200.434 110.647C200.142 110.803 199.748 110.881 199.25 110.881C198.634 110.881 198.08 110.735 197.59 110.443C197.103 110.152 196.717 109.727 196.431 109.17C196.15 108.614 196.009 107.937 196.009 107.142C196.009 106.36 196.146 105.679 196.422 105.099C196.697 104.515 197.079 104.065 197.57 103.746C198.06 103.425 198.627 103.264 199.27 103.264C199.767 103.264 200.162 103.347 200.453 103.513C200.748 103.675 200.974 103.861 201.13 104.07C201.289 104.275 201.411 104.444 201.498 104.577H201.617V103.364H202.75V111.219C202.75 111.875 202.601 112.409 202.303 112.82C202.008 113.234 201.61 113.537 201.11 113.729C200.613 113.925 200.059 114.023 199.449 114.023ZM199.409 109.827C199.88 109.827 200.278 109.719 200.603 109.504C200.927 109.288 201.174 108.978 201.343 108.574C201.512 108.17 201.597 107.686 201.597 107.122C201.597 106.572 201.514 106.086 201.348 105.665C201.183 105.245 200.937 104.915 200.613 104.676C200.288 104.437 199.887 104.318 199.409 104.318C198.912 104.318 198.498 104.444 198.167 104.696C197.838 104.948 197.592 105.286 197.426 105.71C197.263 106.134 197.182 106.605 197.182 107.122C197.182 107.652 197.265 108.121 197.431 108.529C197.6 108.933 197.848 109.252 198.176 109.484C198.508 109.712 198.919 109.827 199.409 109.827ZM210.307 105.074L209.253 105.372C209.187 105.196 209.089 105.026 208.96 104.86C208.834 104.691 208.662 104.552 208.443 104.442C208.224 104.333 207.944 104.278 207.603 104.278C207.135 104.278 206.746 104.386 206.434 104.602C206.126 104.814 205.972 105.084 205.972 105.412C205.972 105.704 206.078 105.934 206.29 106.103C206.502 106.272 206.834 106.413 207.284 106.526L208.418 106.804C209.101 106.97 209.609 107.223 209.944 107.565C210.279 107.903 210.446 108.339 210.446 108.872C210.446 109.31 210.32 109.701 210.069 110.045C209.82 110.39 209.472 110.662 209.025 110.861C208.577 111.06 208.057 111.159 207.463 111.159C206.685 111.159 206.04 110.99 205.529 110.652C205.019 110.314 204.696 109.82 204.56 109.17L205.674 108.892C205.78 109.303 205.98 109.611 206.275 109.817C206.574 110.022 206.963 110.125 207.444 110.125C207.99 110.125 208.425 110.009 208.746 109.777C209.071 109.542 209.233 109.26 209.233 108.932C209.233 108.667 209.141 108.445 208.955 108.266C208.769 108.083 208.484 107.947 208.1 107.858L206.827 107.56C206.128 107.394 205.614 107.137 205.286 106.789C204.961 106.438 204.799 105.999 204.799 105.472C204.799 105.041 204.92 104.66 205.162 104.328C205.407 103.997 205.74 103.737 206.161 103.548C206.585 103.359 207.066 103.264 207.603 103.264C208.358 103.264 208.952 103.43 209.382 103.761C209.817 104.093 210.125 104.53 210.307 105.074ZM218.397 111.179C217.913 111.179 217.474 111.088 217.08 110.906C216.685 110.72 216.372 110.453 216.14 110.105C215.908 109.754 215.792 109.33 215.792 108.832C215.792 108.395 215.878 108.04 216.051 107.768C216.223 107.493 216.453 107.278 216.742 107.122C217.03 106.966 217.348 106.85 217.696 106.774C218.048 106.695 218.401 106.632 218.755 106.585C219.219 106.526 219.595 106.481 219.884 106.451C220.175 106.418 220.387 106.363 220.52 106.287C220.656 106.211 220.724 106.078 220.724 105.889V105.849C220.724 105.359 220.59 104.978 220.321 104.706C220.056 104.434 219.653 104.298 219.113 104.298C218.553 104.298 218.114 104.421 217.796 104.666C217.477 104.911 217.254 105.173 217.124 105.452L216.011 105.054C216.21 104.59 216.475 104.229 216.806 103.97C217.141 103.708 217.506 103.526 217.9 103.423C218.298 103.317 218.689 103.264 219.073 103.264C219.319 103.264 219.6 103.294 219.919 103.354C220.24 103.41 220.55 103.528 220.848 103.707C221.15 103.886 221.4 104.156 221.599 104.517C221.798 104.878 221.897 105.362 221.897 105.969V111H220.724V109.966H220.664C220.585 110.132 220.452 110.309 220.267 110.498C220.081 110.687 219.834 110.848 219.526 110.98C219.218 111.113 218.841 111.179 218.397 111.179ZM218.576 110.125C219.04 110.125 219.431 110.034 219.749 109.852C220.071 109.669 220.313 109.434 220.475 109.146C220.641 108.857 220.724 108.554 220.724 108.236V107.162C220.674 107.222 220.565 107.276 220.396 107.326C220.23 107.372 220.038 107.414 219.819 107.45C219.604 107.483 219.393 107.513 219.188 107.54C218.985 107.563 218.821 107.583 218.695 107.599C218.391 107.639 218.106 107.704 217.84 107.793C217.579 107.879 217.366 108.01 217.204 108.186C217.045 108.358 216.965 108.594 216.965 108.892C216.965 109.3 217.116 109.608 217.418 109.817C217.723 110.022 218.109 110.125 218.576 110.125ZM225.212 106.406V111H224.039V103.364H225.172V104.557H225.272C225.451 104.169 225.722 103.857 226.087 103.622C226.452 103.384 226.922 103.264 227.499 103.264C228.016 103.264 228.468 103.37 228.856 103.582C229.244 103.791 229.546 104.109 229.761 104.537C229.976 104.961 230.084 105.498 230.084 106.148V111H228.911V106.227C228.911 105.627 228.755 105.16 228.444 104.825C228.132 104.487 227.704 104.318 227.161 104.318C226.786 104.318 226.452 104.399 226.157 104.562C225.865 104.724 225.635 104.961 225.466 105.273C225.297 105.584 225.212 105.962 225.212 106.406ZM235.112 111.159C234.475 111.159 233.914 110.998 233.426 110.677C232.939 110.352 232.558 109.895 232.283 109.305C232.008 108.711 231.87 108.01 231.87 107.202C231.87 106.4 232.008 105.704 232.283 105.114C232.558 104.524 232.941 104.068 233.431 103.746C233.922 103.425 234.489 103.264 235.132 103.264C235.629 103.264 236.021 103.347 236.31 103.513C236.602 103.675 236.824 103.861 236.976 104.07C237.132 104.275 237.253 104.444 237.339 104.577H237.438V100.818H238.612V111H237.478V109.827H237.339C237.253 109.966 237.13 110.142 236.971 110.354C236.812 110.562 236.585 110.75 236.29 110.915C235.995 111.078 235.602 111.159 235.112 111.159ZM235.271 110.105C235.741 110.105 236.139 109.982 236.464 109.737C236.789 109.489 237.036 109.146 237.205 108.708C237.374 108.267 237.458 107.759 237.458 107.182C237.458 106.612 237.375 106.113 237.21 105.685C237.044 105.254 236.799 104.92 236.474 104.681C236.149 104.439 235.748 104.318 235.271 104.318C234.774 104.318 234.359 104.446 234.028 104.701C233.7 104.953 233.453 105.296 233.287 105.73C233.125 106.161 233.044 106.645 233.044 107.182C233.044 107.725 233.126 108.219 233.292 108.663C233.461 109.104 233.71 109.455 234.038 109.717C234.369 109.976 234.78 110.105 235.271 110.105ZM244.861 111V103.364H246.034V111H244.861ZM245.458 102.091C245.229 102.091 245.032 102.013 244.866 101.857C244.704 101.701 244.622 101.514 244.622 101.295C244.622 101.077 244.704 100.889 244.866 100.734C245.032 100.578 245.229 100.5 245.458 100.5C245.686 100.5 245.882 100.578 246.044 100.734C246.21 100.889 246.293 101.077 246.293 101.295C246.293 101.514 246.21 101.701 246.044 101.857C245.882 102.013 245.686 102.091 245.458 102.091ZM251.504 103.364V104.358H247.547V103.364H251.504ZM248.7 101.534H249.874V108.812C249.874 109.144 249.922 109.393 250.018 109.558C250.117 109.721 250.243 109.83 250.396 109.886C250.551 109.939 250.715 109.966 250.888 109.966C251.017 109.966 251.123 109.959 251.206 109.946C251.289 109.929 251.355 109.916 251.405 109.906L251.643 110.96C251.564 110.99 251.453 111.02 251.31 111.05C251.168 111.083 250.987 111.099 250.768 111.099C250.437 111.099 250.112 111.028 249.794 110.886C249.479 110.743 249.217 110.526 249.009 110.234C248.803 109.943 248.7 109.575 248.7 109.131V101.534ZM258.542 105.074L257.488 105.372C257.421 105.196 257.324 105.026 257.194 104.86C257.068 104.691 256.896 104.552 256.677 104.442C256.458 104.333 256.178 104.278 255.837 104.278C255.37 104.278 254.98 104.386 254.669 104.602C254.36 104.814 254.206 105.084 254.206 105.412C254.206 105.704 254.312 105.934 254.525 106.103C254.737 106.272 255.068 106.413 255.519 106.526L256.652 106.804C257.335 106.97 257.844 107.223 258.179 107.565C258.513 107.903 258.681 108.339 258.681 108.872C258.681 109.31 258.555 109.701 258.303 110.045C258.054 110.39 257.706 110.662 257.259 110.861C256.811 111.06 256.291 111.159 255.698 111.159C254.919 111.159 254.274 110.99 253.764 110.652C253.253 110.314 252.93 109.82 252.794 109.17L253.908 108.892C254.014 109.303 254.215 109.611 254.51 109.817C254.808 110.022 255.197 110.125 255.678 110.125C256.225 110.125 256.659 110.009 256.98 109.777C257.305 109.542 257.468 109.26 257.468 108.932C257.468 108.667 257.375 108.445 257.189 108.266C257.004 108.083 256.719 107.947 256.334 107.858L255.061 107.56C254.362 107.394 253.848 107.137 253.52 106.789C253.195 106.438 253.033 105.999 253.033 105.472C253.033 105.041 253.154 104.66 253.396 104.328C253.641 103.997 253.974 103.737 254.395 103.548C254.819 103.359 255.3 103.264 255.837 103.264C256.593 103.264 257.186 103.43 257.617 103.761C258.051 104.093 258.359 104.53 258.542 105.074ZM269.794 105.074L268.74 105.372C268.673 105.196 268.575 105.026 268.446 104.86C268.32 104.691 268.148 104.552 267.929 104.442C267.71 104.333 267.43 104.278 267.089 104.278C266.622 104.278 266.232 104.386 265.921 104.602C265.612 104.814 265.458 105.084 265.458 105.412C265.458 105.704 265.564 105.934 265.776 106.103C265.989 106.272 266.32 106.413 266.771 106.526L267.904 106.804C268.587 106.97 269.096 107.223 269.431 107.565C269.765 107.903 269.933 108.339 269.933 108.872C269.933 109.31 269.807 109.701 269.555 110.045C269.306 110.39 268.958 110.662 268.511 110.861C268.063 111.06 267.543 111.159 266.95 111.159C266.171 111.159 265.526 110.99 265.016 110.652C264.505 110.314 264.182 109.82 264.046 109.17L265.16 108.892C265.266 109.303 265.467 109.611 265.762 109.817C266.06 110.022 266.449 110.125 266.93 110.125C267.477 110.125 267.911 110.009 268.232 109.777C268.557 109.542 268.72 109.26 268.72 108.932C268.72 108.667 268.627 108.445 268.441 108.266C268.256 108.083 267.971 107.947 267.586 107.858L266.313 107.56C265.614 107.394 265.1 107.137 264.772 106.789C264.447 106.438 264.285 105.999 264.285 105.472C264.285 105.041 264.406 104.66 264.648 104.328C264.893 103.997 265.226 103.737 265.647 103.548C266.071 103.359 266.552 103.264 267.089 103.264C267.845 103.264 268.438 103.43 268.869 103.761C269.303 104.093 269.611 104.53 269.794 105.074ZM274.801 111.159C274.112 111.159 273.507 110.995 272.987 110.667C272.469 110.339 272.065 109.88 271.773 109.29C271.485 108.7 271.341 108.01 271.341 107.222C271.341 106.426 271.485 105.732 271.773 105.138C272.065 104.545 272.469 104.085 272.987 103.756C273.507 103.428 274.112 103.264 274.801 103.264C275.491 103.264 276.094 103.428 276.611 103.756C277.131 104.085 277.536 104.545 277.824 105.138C278.116 105.732 278.261 106.426 278.261 107.222C278.261 108.01 278.116 108.7 277.824 109.29C277.536 109.88 277.131 110.339 276.611 110.667C276.094 110.995 275.491 111.159 274.801 111.159ZM274.801 110.105C275.325 110.105 275.756 109.971 276.094 109.702C276.432 109.434 276.682 109.081 276.844 108.643C277.007 108.206 277.088 107.732 277.088 107.222C277.088 106.711 277.007 106.236 276.844 105.795C276.682 105.354 276.432 104.998 276.094 104.726C275.756 104.454 275.325 104.318 274.801 104.318C274.277 104.318 273.847 104.454 273.509 104.726C273.17 104.998 272.92 105.354 272.758 105.795C272.595 106.236 272.514 106.711 272.514 107.222C272.514 107.732 272.595 108.206 272.758 108.643C272.92 109.081 273.17 109.434 273.509 109.702C273.847 109.971 274.277 110.105 274.801 110.105ZM34.1761 128.159C33.4602 128.159 32.8438 127.99 32.3267 127.652C31.8097 127.314 31.4119 126.848 31.1335 126.255C30.8551 125.662 30.7159 124.984 30.7159 124.222C30.7159 123.446 30.8584 122.762 31.1435 122.168C31.4318 121.572 31.8329 121.106 32.3466 120.771C32.8636 120.433 33.4669 120.264 34.1562 120.264C34.6932 120.264 35.1771 120.364 35.608 120.562C36.0388 120.761 36.3918 121.04 36.6669 121.398C36.942 121.756 37.1127 122.173 37.179 122.651H36.0057C35.9162 122.303 35.7173 121.994 35.4091 121.726C35.1042 121.454 34.6932 121.318 34.1761 121.318C33.7188 121.318 33.3177 121.437 32.973 121.676C32.6316 121.911 32.3648 122.245 32.1726 122.675C31.9837 123.103 31.8892 123.605 31.8892 124.182C31.8892 124.772 31.982 125.286 32.1676 125.723C32.3565 126.161 32.6217 126.5 32.9631 126.742C33.3078 126.984 33.7121 127.105 34.1761 127.105C34.4811 127.105 34.7578 127.052 35.0064 126.946C35.255 126.84 35.4654 126.688 35.6378 126.489C35.8101 126.29 35.9328 126.051 36.0057 125.773H37.179C37.1127 126.223 36.9486 126.629 36.6868 126.991C36.4283 127.349 36.0852 127.634 35.6577 127.846C35.2334 128.055 34.7396 128.159 34.1761 128.159ZM41.9964 128.159C41.3071 128.159 40.7022 127.995 40.1818 127.667C39.6648 127.339 39.2604 126.88 38.9688 126.29C38.6804 125.7 38.5362 125.01 38.5362 124.222C38.5362 123.426 38.6804 122.732 38.9688 122.138C39.2604 121.545 39.6648 121.085 40.1818 120.756C40.7022 120.428 41.3071 120.264 41.9964 120.264C42.6858 120.264 43.2891 120.428 43.8061 120.756C44.3265 121.085 44.7308 121.545 45.0192 122.138C45.3108 122.732 45.4567 123.426 45.4567 124.222C45.4567 125.01 45.3108 125.7 45.0192 126.29C44.7308 126.88 44.3265 127.339 43.8061 127.667C43.2891 127.995 42.6858 128.159 41.9964 128.159ZM41.9964 127.105C42.5201 127.105 42.951 126.971 43.2891 126.702C43.6271 126.434 43.8774 126.081 44.0398 125.643C44.2022 125.206 44.2834 124.732 44.2834 124.222C44.2834 123.711 44.2022 123.236 44.0398 122.795C43.8774 122.354 43.6271 121.998 43.2891 121.726C42.951 121.454 42.5201 121.318 41.9964 121.318C41.4728 121.318 41.0419 121.454 40.7038 121.726C40.3658 121.998 40.1155 122.354 39.9531 122.795C39.7907 123.236 39.7095 123.711 39.7095 124.222C39.7095 124.732 39.7907 125.206 39.9531 125.643C40.1155 126.081 40.3658 126.434 40.7038 126.702C41.0419 126.971 41.4728 127.105 41.9964 127.105ZM50.35 128.159C49.6606 128.159 49.0557 127.995 48.5353 127.667C48.0183 127.339 47.6139 126.88 47.3223 126.29C47.0339 125.7 46.8897 125.01 46.8897 124.222C46.8897 123.426 47.0339 122.732 47.3223 122.138C47.6139 121.545 48.0183 121.085 48.5353 120.756C49.0557 120.428 49.6606 120.264 50.35 120.264C51.0394 120.264 51.6426 120.428 52.1596 120.756C52.68 121.085 53.0843 121.545 53.3727 122.138C53.6644 122.732 53.8102 123.426 53.8102 124.222C53.8102 125.01 53.6644 125.7 53.3727 126.29C53.0843 126.88 52.68 127.339 52.1596 127.667C51.6426 127.995 51.0394 128.159 50.35 128.159ZM50.35 127.105C50.8736 127.105 51.3045 126.971 51.6426 126.702C51.9806 126.434 52.2309 126.081 52.3933 125.643C52.5557 125.206 52.6369 124.732 52.6369 124.222C52.6369 123.711 52.5557 123.236 52.3933 122.795C52.2309 122.354 51.9806 121.998 51.6426 121.726C51.3045 121.454 50.8736 121.318 50.35 121.318C49.8263 121.318 49.3954 121.454 49.0574 121.726C48.7193 121.998 48.469 122.354 48.3066 122.795C48.1442 123.236 48.063 123.711 48.063 124.222C48.063 124.732 48.1442 125.206 48.3066 125.643C48.469 126.081 48.7193 126.434 49.0574 126.702C49.3954 126.971 49.8263 127.105 50.35 127.105ZM56.7745 117.818V128H55.6012V117.818H56.7745ZM60.6735 126.608L60.5939 127.145C60.5376 127.523 60.4514 127.927 60.3354 128.358C60.2227 128.789 60.1051 129.195 59.9824 129.576C59.8598 129.957 59.7587 130.26 59.6792 130.486H58.7843C58.8274 130.274 58.8837 129.994 58.9533 129.646C59.0229 129.298 59.0925 128.908 59.1621 128.477C59.235 128.05 59.2947 127.612 59.3411 127.165L59.4007 126.608H60.6735ZM68.5149 128L66.1882 120.364H67.4212L69.0717 126.21H69.1513L70.782 120.364H72.0348L73.6456 126.19H73.7251L75.3757 120.364H76.6087L74.282 128H73.1286L71.4581 122.134H71.3388L69.6683 128H68.5149ZM81.0023 128.159C80.3129 128.159 79.708 127.995 79.1877 127.667C78.6706 127.339 78.2663 126.88 77.9746 126.29C77.6863 125.7 77.5421 125.01 77.5421 124.222C77.5421 123.426 77.6863 122.732 77.9746 122.138C78.2663 121.545 78.6706 121.085 79.1877 120.756C79.708 120.428 80.3129 120.264 81.0023 120.264C81.6917 120.264 82.2949 120.428 82.812 120.756C83.3323 121.085 83.7367 121.545 84.025 122.138C84.3167 122.732 84.4625 123.426 84.4625 124.222C84.4625 125.01 84.3167 125.7 84.025 126.29C83.7367 126.88 83.3323 127.339 82.812 127.667C82.2949 127.995 81.6917 128.159 81.0023 128.159ZM81.0023 127.105C81.526 127.105 81.9569 126.971 82.2949 126.702C82.633 126.434 82.8832 126.081 83.0456 125.643C83.208 125.206 83.2892 124.732 83.2892 124.222C83.2892 123.711 83.208 123.236 83.0456 122.795C82.8832 122.354 82.633 121.998 82.2949 121.726C81.9569 121.454 81.526 121.318 81.0023 121.318C80.4786 121.318 80.0478 121.454 79.7097 121.726C79.3716 121.998 79.1214 122.354 78.959 122.795C78.7966 123.236 78.7154 123.711 78.7154 124.222C78.7154 124.732 78.7966 125.206 78.959 125.643C79.1214 126.081 79.3716 126.434 79.7097 126.702C80.0478 126.971 80.4786 127.105 81.0023 127.105ZM91.0661 124.878V120.364H92.2393V128H91.0661V126.707H90.9865C90.8075 127.095 90.5291 127.425 90.1513 127.697C89.7734 127.965 89.2962 128.099 88.7195 128.099C88.2422 128.099 87.8179 127.995 87.4467 127.786C87.0755 127.574 86.7839 127.256 86.5717 126.832C86.3596 126.404 86.2536 125.866 86.2536 125.216V120.364H87.4268V125.136C87.4268 125.693 87.5826 126.137 87.8942 126.469C88.209 126.8 88.6101 126.966 89.0973 126.966C89.389 126.966 89.6856 126.891 89.9872 126.742C90.2921 126.593 90.5473 126.364 90.7528 126.056C90.9616 125.748 91.0661 125.355 91.0661 124.878ZM95.5616 117.818V128H94.3883V117.818H95.5616ZM100.594 128.159C99.9577 128.159 99.396 127.998 98.9087 127.677C98.4215 127.352 98.0404 126.895 97.7653 126.305C97.4902 125.711 97.3526 125.01 97.3526 124.202C97.3526 123.4 97.4902 122.704 97.7653 122.114C98.0404 121.524 98.4232 121.068 98.9137 120.746C99.4042 120.425 99.971 120.264 100.614 120.264C101.111 120.264 101.504 120.347 101.792 120.513C102.084 120.675 102.306 120.861 102.458 121.07C102.614 121.275 102.735 121.444 102.821 121.577H102.921V117.818H104.094V128H102.961V126.827H102.821C102.735 126.966 102.613 127.142 102.453 127.354C102.294 127.562 102.067 127.75 101.772 127.915C101.477 128.078 101.085 128.159 100.594 128.159ZM100.753 127.105C101.224 127.105 101.622 126.982 101.946 126.737C102.271 126.489 102.518 126.146 102.687 125.708C102.856 125.267 102.941 124.759 102.941 124.182C102.941 123.612 102.858 123.113 102.692 122.685C102.526 122.254 102.281 121.92 101.956 121.681C101.632 121.439 101.23 121.318 100.753 121.318C100.256 121.318 99.8417 121.446 99.5103 121.701C99.1822 121.953 98.9353 122.296 98.7695 122.73C98.6071 123.161 98.5259 123.645 98.5259 124.182C98.5259 124.725 98.6088 125.219 98.7745 125.663C98.9435 126.104 99.1921 126.455 99.5202 126.717C99.8517 126.976 100.263 127.105 100.753 127.105ZM111.517 117.818V128H110.343V117.818H111.517ZM116.768 128.159C116.079 128.159 115.474 127.995 114.953 127.667C114.436 127.339 114.032 126.88 113.74 126.29C113.452 125.7 113.308 125.01 113.308 124.222C113.308 123.426 113.452 122.732 113.74 122.138C114.032 121.545 114.436 121.085 114.953 120.756C115.474 120.428 116.079 120.264 116.768 120.264C117.457 120.264 118.061 120.428 118.578 120.756C119.098 121.085 119.502 121.545 119.791 122.138C120.082 122.732 120.228 123.426 120.228 124.222C120.228 125.01 120.082 125.7 119.791 126.29C119.502 126.88 119.098 127.339 118.578 127.667C118.061 127.995 117.457 128.159 116.768 128.159ZM116.768 127.105C117.292 127.105 117.722 126.971 118.061 126.702C118.399 126.434 118.649 126.081 118.811 125.643C118.974 125.206 119.055 124.732 119.055 124.222C119.055 123.711 118.974 123.236 118.811 122.795C118.649 122.354 118.399 121.998 118.061 121.726C117.722 121.454 117.292 121.318 116.768 121.318C116.244 121.318 115.813 121.454 115.475 121.726C115.137 121.998 114.887 122.354 114.725 122.795C114.562 123.236 114.481 123.711 114.481 124.222C114.481 124.732 114.562 125.206 114.725 125.643C114.887 126.081 115.137 126.434 115.475 126.702C115.813 126.971 116.244 127.105 116.768 127.105ZM127.99 120.364L125.166 128H123.973L121.149 120.364H122.422L124.53 126.449H124.609L126.717 120.364H127.99ZM132.467 128.159C131.731 128.159 131.096 127.997 130.563 127.672C130.033 127.344 129.623 126.886 129.335 126.3C129.05 125.71 128.907 125.024 128.907 124.241C128.907 123.459 129.05 122.77 129.335 122.173C129.623 121.573 130.024 121.106 130.538 120.771C131.055 120.433 131.658 120.264 132.348 120.264C132.745 120.264 133.138 120.33 133.526 120.463C133.914 120.596 134.267 120.811 134.585 121.109C134.903 121.404 135.157 121.795 135.346 122.283C135.534 122.77 135.629 123.37 135.629 124.082V124.58H129.743V123.565H134.436C134.436 123.134 134.35 122.75 134.177 122.412C134.008 122.074 133.766 121.807 133.451 121.612C133.14 121.416 132.772 121.318 132.348 121.318C131.88 121.318 131.476 121.434 131.135 121.666C130.797 121.895 130.536 122.193 130.354 122.561C130.172 122.929 130.081 123.323 130.081 123.744V124.42C130.081 124.997 130.18 125.486 130.379 125.887C130.581 126.285 130.861 126.588 131.219 126.797C131.577 127.002 131.993 127.105 132.467 127.105C132.775 127.105 133.054 127.062 133.302 126.976C133.554 126.886 133.771 126.754 133.953 126.578C134.136 126.399 134.277 126.177 134.376 125.912L135.51 126.23C135.39 126.615 135.19 126.953 134.908 127.244C134.626 127.533 134.278 127.758 133.864 127.92C133.45 128.08 132.984 128.159 132.467 128.159ZM144.672 120.364V121.358H140.715V120.364H144.672ZM141.868 118.534H143.042V125.812C143.042 126.144 143.09 126.393 143.186 126.558C143.285 126.721 143.411 126.83 143.564 126.886C143.719 126.939 143.883 126.966 144.056 126.966C144.185 126.966 144.291 126.959 144.374 126.946C144.457 126.929 144.523 126.916 144.573 126.906L144.811 127.96C144.732 127.99 144.621 128.02 144.478 128.05C144.336 128.083 144.155 128.099 143.936 128.099C143.605 128.099 143.28 128.028 142.962 127.886C142.647 127.743 142.385 127.526 142.176 127.234C141.971 126.943 141.868 126.575 141.868 126.131V118.534ZM149.457 128.159C148.768 128.159 148.163 127.995 147.643 127.667C147.126 127.339 146.721 126.88 146.43 126.29C146.141 125.7 145.997 125.01 145.997 124.222C145.997 123.426 146.141 122.732 146.43 122.138C146.721 121.545 147.126 121.085 147.643 120.756C148.163 120.428 148.768 120.264 149.457 120.264C150.147 120.264 150.75 120.428 151.267 120.756C151.787 121.085 152.192 121.545 152.48 122.138C152.772 122.732 152.918 123.426 152.918 124.222C152.918 125.01 152.772 125.7 152.48 126.29C152.192 126.88 151.787 127.339 151.267 127.667C150.75 127.995 150.147 128.159 149.457 128.159ZM149.457 127.105C149.981 127.105 150.412 126.971 150.75 126.702C151.088 126.434 151.338 126.081 151.501 125.643C151.663 125.206 151.744 124.732 151.744 124.222C151.744 123.711 151.663 123.236 151.501 122.795C151.338 122.354 151.088 121.998 150.75 121.726C150.412 121.454 149.981 121.318 149.457 121.318C148.934 121.318 148.503 121.454 148.165 121.726C147.827 121.998 147.576 122.354 147.414 122.795C147.252 123.236 147.17 123.711 147.17 124.222C147.17 124.732 147.252 125.206 147.414 125.643C147.576 126.081 147.827 126.434 148.165 126.702C148.503 126.971 148.934 127.105 149.457 127.105ZM159.819 117.818V128H158.646V117.818H159.819ZM165.17 128.159C164.434 128.159 163.8 127.997 163.266 127.672C162.736 127.344 162.326 126.886 162.038 126.3C161.753 125.71 161.61 125.024 161.61 124.241C161.61 123.459 161.753 122.77 162.038 122.173C162.326 121.573 162.727 121.106 163.241 120.771C163.758 120.433 164.361 120.264 165.051 120.264C165.449 120.264 165.841 120.33 166.229 120.463C166.617 120.596 166.97 120.811 167.288 121.109C167.606 121.404 167.86 121.795 168.049 122.283C168.238 122.77 168.332 123.37 168.332 124.082V124.58H162.446V123.565H167.139C167.139 123.134 167.053 122.75 166.88 122.412C166.711 122.074 166.469 121.807 166.154 121.612C165.843 121.416 165.475 121.318 165.051 121.318C164.583 121.318 164.179 121.434 163.838 121.666C163.5 121.895 163.239 122.193 163.057 122.561C162.875 122.929 162.784 123.323 162.784 123.744V124.42C162.784 124.997 162.883 125.486 163.082 125.887C163.284 126.285 163.564 126.588 163.922 126.797C164.28 127.002 164.696 127.105 165.17 127.105C165.478 127.105 165.757 127.062 166.005 126.976C166.257 126.886 166.474 126.754 166.657 126.578C166.839 126.399 166.98 126.177 167.079 125.912L168.213 126.23C168.093 126.615 167.893 126.953 167.611 127.244C167.329 127.533 166.981 127.758 166.567 127.92C166.153 128.08 165.687 128.159 165.17 128.159ZM172.364 128.179C171.88 128.179 171.441 128.088 171.047 127.906C170.652 127.72 170.339 127.453 170.107 127.105C169.875 126.754 169.759 126.33 169.759 125.832C169.759 125.395 169.845 125.04 170.017 124.768C170.19 124.493 170.42 124.278 170.708 124.122C170.997 123.966 171.315 123.85 171.663 123.774C172.014 123.695 172.367 123.632 172.722 123.585C173.186 123.526 173.562 123.481 173.85 123.451C174.142 123.418 174.354 123.363 174.487 123.287C174.623 123.211 174.691 123.078 174.691 122.889V122.849C174.691 122.359 174.556 121.978 174.288 121.706C174.023 121.434 173.62 121.298 173.08 121.298C172.52 121.298 172.081 121.421 171.762 121.666C171.444 121.911 171.221 122.173 171.091 122.452L169.978 122.054C170.176 121.59 170.442 121.229 170.773 120.97C171.108 120.708 171.472 120.526 171.867 120.423C172.265 120.317 172.656 120.264 173.04 120.264C173.285 120.264 173.567 120.294 173.885 120.354C174.207 120.41 174.517 120.528 174.815 120.707C175.117 120.886 175.367 121.156 175.566 121.517C175.765 121.878 175.864 122.362 175.864 122.969V128H174.691V126.966H174.631C174.551 127.132 174.419 127.309 174.233 127.498C174.048 127.687 173.801 127.848 173.493 127.98C173.184 128.113 172.808 128.179 172.364 128.179ZM172.543 127.125C173.007 127.125 173.398 127.034 173.716 126.852C174.038 126.669 174.28 126.434 174.442 126.146C174.608 125.857 174.691 125.554 174.691 125.236V124.162C174.641 124.222 174.532 124.276 174.363 124.326C174.197 124.372 174.005 124.414 173.786 124.45C173.57 124.483 173.36 124.513 173.154 124.54C172.952 124.563 172.788 124.583 172.662 124.599C172.357 124.639 172.072 124.704 171.807 124.793C171.545 124.879 171.333 125.01 171.171 125.186C171.012 125.358 170.932 125.594 170.932 125.892C170.932 126.3 171.083 126.608 171.385 126.817C171.69 127.022 172.076 127.125 172.543 127.125ZM178.006 128V120.364H179.139V121.517H179.219C179.358 121.139 179.61 120.833 179.974 120.597C180.339 120.362 180.75 120.244 181.207 120.244C181.293 120.244 181.401 120.246 181.53 120.249C181.66 120.253 181.757 120.258 181.824 120.264V121.457C181.784 121.447 181.693 121.433 181.55 121.413C181.411 121.389 181.264 121.378 181.108 121.378C180.737 121.378 180.405 121.456 180.113 121.612C179.825 121.764 179.596 121.976 179.427 122.248C179.262 122.516 179.179 122.823 179.179 123.168V128H178.006ZM184.388 123.406V128H183.214V120.364H184.348V121.557H184.447C184.626 121.169 184.898 120.857 185.263 120.622C185.627 120.384 186.098 120.264 186.675 120.264C187.192 120.264 187.644 120.37 188.032 120.582C188.42 120.791 188.721 121.109 188.937 121.537C189.152 121.961 189.26 122.498 189.26 123.148V128H188.087V123.227C188.087 122.627 187.931 122.16 187.619 121.825C187.308 121.487 186.88 121.318 186.337 121.318C185.962 121.318 185.627 121.399 185.332 121.562C185.041 121.724 184.81 121.961 184.641 122.273C184.472 122.584 184.388 122.962 184.388 123.406ZM195.341 128V120.364H196.475V121.557H196.574C196.733 121.149 196.99 120.833 197.345 120.607C197.7 120.379 198.126 120.264 198.623 120.264C199.126 120.264 199.546 120.379 199.881 120.607C200.219 120.833 200.482 121.149 200.671 121.557H200.751C200.946 121.162 201.239 120.849 201.631 120.617C202.022 120.382 202.491 120.264 203.037 120.264C203.72 120.264 204.279 120.478 204.713 120.906C205.147 121.33 205.364 121.991 205.364 122.889V128H204.191V122.889C204.191 122.326 204.037 121.923 203.729 121.681C203.42 121.439 203.057 121.318 202.64 121.318C202.103 121.318 201.687 121.481 201.392 121.805C201.097 122.127 200.949 122.535 200.949 123.028V128H199.756V122.77C199.756 122.336 199.615 121.986 199.334 121.721C199.052 121.452 198.689 121.318 198.245 121.318C197.94 121.318 197.655 121.399 197.39 121.562C197.128 121.724 196.916 121.95 196.753 122.238C196.594 122.523 196.515 122.853 196.515 123.227V128H195.341ZM210.612 128.159C209.922 128.159 209.317 127.995 208.797 127.667C208.28 127.339 207.876 126.88 207.584 126.29C207.296 125.7 207.151 125.01 207.151 124.222C207.151 123.426 207.296 122.732 207.584 122.138C207.876 121.545 208.28 121.085 208.797 120.756C209.317 120.428 209.922 120.264 210.612 120.264C211.301 120.264 211.904 120.428 212.421 120.756C212.942 121.085 213.346 121.545 213.634 122.138C213.926 122.732 214.072 123.426 214.072 124.222C214.072 125.01 213.926 125.7 213.634 126.29C213.346 126.88 212.942 127.339 212.421 127.667C211.904 127.995 211.301 128.159 210.612 128.159ZM210.612 127.105C211.135 127.105 211.566 126.971 211.904 126.702C212.242 126.434 212.493 126.081 212.655 125.643C212.817 125.206 212.899 124.732 212.899 124.222C212.899 123.711 212.817 123.236 212.655 122.795C212.493 122.354 212.242 121.998 211.904 121.726C211.566 121.454 211.135 121.318 210.612 121.318C210.088 121.318 209.657 121.454 209.319 121.726C208.981 121.998 208.731 122.354 208.568 122.795C208.406 123.236 208.325 123.711 208.325 124.222C208.325 124.732 208.406 125.206 208.568 125.643C208.731 126.081 208.981 126.434 209.319 126.702C209.657 126.971 210.088 127.105 210.612 127.105ZM215.863 128V120.364H216.996V121.517H217.076C217.215 121.139 217.467 120.833 217.832 120.597C218.196 120.362 218.607 120.244 219.065 120.244C219.151 120.244 219.259 120.246 219.388 120.249C219.517 120.253 219.615 120.258 219.681 120.264V121.457C219.641 121.447 219.55 121.433 219.408 121.413C219.268 121.389 219.121 121.378 218.965 121.378C218.594 121.378 218.263 121.456 217.971 121.612C217.683 121.764 217.454 121.976 217.285 122.248C217.119 122.516 217.036 122.823 217.036 123.168V128H215.863ZM224.041 128.159C223.305 128.159 222.671 127.997 222.137 127.672C221.607 127.344 221.197 126.886 220.909 126.3C220.624 125.71 220.482 125.024 220.482 124.241C220.482 123.459 220.624 122.77 220.909 122.173C221.197 121.573 221.598 121.106 222.112 120.771C222.629 120.433 223.232 120.264 223.922 120.264C224.32 120.264 224.712 120.33 225.1 120.463C225.488 120.596 225.841 120.811 226.159 121.109C226.477 121.404 226.731 121.795 226.92 122.283C227.109 122.77 227.203 123.37 227.203 124.082V124.58H221.317V123.565H226.01C226.01 123.134 225.924 122.75 225.751 122.412C225.582 122.074 225.34 121.807 225.026 121.612C224.714 121.416 224.346 121.318 223.922 121.318C223.455 121.318 223.05 121.434 222.709 121.666C222.371 121.895 222.111 122.193 221.928 122.561C221.746 122.929 221.655 123.323 221.655 123.744V124.42C221.655 124.997 221.754 125.486 221.953 125.887C222.155 126.285 222.435 126.588 222.793 126.797C223.151 127.002 223.567 127.105 224.041 127.105C224.349 127.105 224.628 127.062 224.876 126.976C225.128 126.886 225.345 126.754 225.528 126.578C225.71 126.399 225.851 126.177 225.95 125.912L227.084 126.23C226.964 126.615 226.764 126.953 226.482 127.244C226.201 127.533 225.853 127.758 225.438 127.92C225.024 128.08 224.558 128.159 224.041 128.159ZM229.843 128.08C229.598 128.08 229.387 127.992 229.212 127.816C229.036 127.64 228.948 127.43 228.948 127.185C228.948 126.939 229.036 126.729 229.212 126.553C229.387 126.378 229.598 126.29 229.843 126.29C230.088 126.29 230.299 126.378 230.474 126.553C230.65 126.729 230.738 126.939 230.738 127.185C230.738 127.347 230.696 127.496 230.614 127.632C230.534 127.768 230.426 127.877 230.29 127.96C230.158 128.04 230.009 128.08 229.843 128.08Z" fill="#DADADA"/>
<rect x="208" y="159" width="68" height="32" rx="5" fill="#2F2F31"/>
<path d="M218.25 178.938V181.75H221.062L229.358 173.455L226.545 170.643L218.25 178.938ZM231.532 171.28C231.602 171.211 231.657 171.128 231.695 171.037C231.732 170.947 231.752 170.849 231.752 170.751C231.752 170.653 231.732 170.556 231.695 170.465C231.657 170.374 231.602 170.292 231.532 170.223L229.778 168.468C229.708 168.398 229.626 168.343 229.535 168.305C229.444 168.268 229.347 168.248 229.249 168.248C229.151 168.248 229.053 168.268 228.963 168.305C228.872 168.343 228.789 168.398 228.72 168.468L227.347 169.84L230.16 172.653L231.532 171.28Z" fill="#DADADA"/>
<line x1="242.5" y1="163" x2="242.5" y2="187" stroke="#DADADA"/>
<path d="M265 169.75C265.199 169.75 265.39 169.829 265.53 169.97C265.671 170.11 265.75 170.301 265.75 170.5C265.75 170.699 265.671 170.89 265.53 171.03C265.39 171.171 265.199 171.25 265 171.25H264.25L264.248 171.303L263.548 181.107C263.521 181.485 263.352 181.839 263.074 182.098C262.796 182.356 262.431 182.5 262.052 182.5H255.947C255.568 182.5 255.203 182.356 254.925 182.098C254.648 181.839 254.478 181.485 254.451 181.107L253.751 171.304C253.75 171.286 253.75 171.268 253.75 171.25H253C252.801 171.25 252.61 171.171 252.47 171.03C252.329 170.89 252.25 170.699 252.25 170.5C252.25 170.301 252.329 170.11 252.47 169.97C252.61 169.829 252.801 169.75 253 169.75H265ZM262.748 171.25H255.252L255.948 181H262.052L262.748 171.25ZM260.5 167.5C260.699 167.5 260.89 167.579 261.03 167.72C261.171 167.86 261.25 168.051 261.25 168.25C261.25 168.449 261.171 168.64 261.03 168.78C260.89 168.921 260.699 169 260.5 169H257.5C257.301 169 257.11 168.921 256.97 168.78C256.829 168.64 256.75 168.449 256.75 168.25C256.75 168.051 256.829 167.86 256.97 167.72C257.11 167.579 257.301 167.5 257.5 167.5H260.5Z" fill="#DADADA"/>
<defs>
<filter id="filter0_d_11_140" x="0" y="0" width="301.169" height="218" filterUnits="userSpaceOnUse" color-interpolation-filters="sRGB">
<feFlood flood-opacity="0" result="BackgroundImageFix"/>
<feColorMatrix in="SourceAlpha" type="matrix" values="0 0 0 0 0 0 0 0 0 0 0 0 0 0 0 0 0 0 127 0" result="hardAlpha"/>
<feOffset dy="4"/>
<feGaussianBlur stdDeviation="2"/>
<feComposite in2="hardAlpha" operator="out"/>
<feColorMatrix type="matrix" values="0 0 0 0 0 0 0 0 0 0 0 0 0 0 0 0 0 0 0.25 0"/>
<feBlend mode="normal" in2="BackgroundImageFix" result="effect1_dropShadow_11_140"/>
<feBlend mode="normal" in="SourceGraphic" in2="effect1_dropShadow_11_140" result="shape"/>
</filter>
</defs>
</svg>
