<svg width="302" height="218" viewBox="0 0 302 218" fill="none" xmlns="http://www.w3.org/2000/svg">
<g filter="url(#filter0_d_13_177)">
<rect x="4.16888" width="293.169" height="210" rx="10" fill="#3E3E40"/>
</g>
<path d="M4.16888 10C4.16888 4.47715 8.64604 0 14.1689 0H287.169C292.692 0 297.169 4.47715 297.169 10V60H4.16888V10Z" fill="#2F2F31"/>
<path d="M132.509 38L129.069 26.8H128.989C129.002 27.0667 129.022 27.4667 129.049 28C129.076 28.5333 129.102 29.1067 129.129 29.72C129.156 30.32 129.169 30.8667 129.169 31.36V38H126.469V23.72H130.589L133.969 34.64H134.029L137.609 23.72H141.729V38H138.909V31.24C138.909 30.7867 138.916 30.2667 138.929 29.68C138.956 29.0933 138.976 28.54 138.989 28.02C139.016 27.4867 139.036 27.0867 139.049 26.82H138.969L135.289 38H132.509ZM155.016 32.52C155.016 33.4267 154.889 34.2333 154.636 34.94C154.396 35.6467 154.043 36.2467 153.576 36.74C153.123 37.22 152.569 37.5867 151.916 37.84C151.263 38.08 150.523 38.2 149.696 38.2C148.936 38.2 148.229 38.08 147.576 37.84C146.936 37.5867 146.383 37.22 145.916 36.74C145.449 36.2467 145.083 35.6467 144.816 34.94C144.563 34.2333 144.436 33.4267 144.436 32.52C144.436 31.3067 144.649 30.2867 145.076 29.46C145.503 28.62 146.116 27.98 146.916 27.54C147.716 27.1 148.663 26.88 149.756 26.88C150.783 26.88 151.689 27.1 152.476 27.54C153.263 27.98 153.883 28.62 154.336 29.46C154.789 30.2867 155.016 31.3067 155.016 32.52ZM147.476 32.52C147.476 33.24 147.549 33.8467 147.696 34.34C147.856 34.82 148.103 35.1867 148.436 35.44C148.769 35.68 149.203 35.8 149.736 35.8C150.269 35.8 150.696 35.68 151.016 35.44C151.349 35.1867 151.589 34.82 151.736 34.34C151.896 33.8467 151.976 33.24 151.976 32.52C151.976 31.8 151.896 31.2 151.736 30.72C151.589 30.24 151.349 29.88 151.016 29.64C150.683 29.4 150.249 29.28 149.716 29.28C148.929 29.28 148.356 29.5533 147.996 30.1C147.649 30.6333 147.476 31.44 147.476 32.52ZM146.376 24.28C146.376 23.8133 146.509 23.48 146.776 23.28C147.043 23.0667 147.363 22.96 147.736 22.96C148.109 22.96 148.429 23.0667 148.696 23.28C148.976 23.48 149.116 23.8133 149.116 24.28C149.116 24.72 148.976 25.0467 148.696 25.26C148.429 25.4733 148.109 25.58 147.736 25.58C147.363 25.58 147.043 25.4733 146.776 25.26C146.509 25.0467 146.376 24.72 146.376 24.28ZM150.316 24.28C150.316 23.8133 150.449 23.48 150.716 23.28C150.983 23.0667 151.309 22.96 151.696 22.96C152.069 22.96 152.389 23.0667 152.656 23.28C152.936 23.48 153.076 23.8133 153.076 24.28C153.076 24.72 152.936 25.0467 152.656 25.26C152.389 25.4733 152.069 25.58 151.696 25.58C151.323 25.58 150.996 25.4733 150.716 25.26C150.449 25.0467 150.316 24.72 150.316 24.28ZM162.079 35.82C162.412 35.82 162.732 35.7867 163.039 35.72C163.346 35.6533 163.652 35.5733 163.959 35.48V37.7C163.639 37.8333 163.239 37.9467 162.759 38.04C162.292 38.1467 161.779 38.2 161.219 38.2C160.566 38.2 159.979 38.0933 159.459 37.88C158.952 37.6667 158.546 37.3 158.239 36.78C157.946 36.2467 157.799 35.5133 157.799 34.58V29.32H156.379V28.06L158.019 27.06L158.879 24.76H160.779V27.08H163.839V29.32H160.779V34.58C160.779 34.9933 160.899 35.3067 161.139 35.52C161.379 35.72 161.692 35.82 162.079 35.82ZM170.651 26.88C171.664 26.88 172.531 27.0733 173.251 27.46C173.984 27.8467 174.551 28.4067 174.951 29.14C175.351 29.8733 175.551 30.7733 175.551 31.84V33.28H168.511C168.537 34.12 168.784 34.78 169.251 35.26C169.731 35.74 170.391 35.98 171.231 35.98C171.937 35.98 172.577 35.9133 173.151 35.78C173.724 35.6333 174.317 35.4133 174.931 35.12V37.42C174.397 37.6867 173.831 37.88 173.231 38C172.644 38.1333 171.931 38.2 171.091 38.2C169.997 38.2 169.031 38 168.191 37.6C167.351 37.1867 166.691 36.5667 166.211 35.74C165.731 34.9133 165.491 33.8733 165.491 32.62C165.491 31.34 165.704 30.28 166.131 29.44C166.571 28.5867 167.177 27.9467 167.951 27.52C168.724 27.0933 169.624 26.88 170.651 26.88ZM170.671 29C170.097 29 169.617 29.1867 169.231 29.56C168.857 29.9333 168.637 30.5133 168.571 31.3H172.751C172.751 30.86 172.671 30.4667 172.511 30.12C172.364 29.7733 172.137 29.5 171.831 29.3C171.524 29.1 171.137 29 170.671 29Z" fill="#DEDEE0"/>
<rect x="30.1689" y="156" width="75.2558" height="31" rx="5" fill="#8ACF99"/>
<path d="M52.0782 176L49.6152 167.273H51.3155L52.8879 173.686H52.9689L54.6478 167.273H56.1947L57.878 173.69H57.9547L59.5271 167.273H61.2274L58.7643 176H57.2047L55.4575 169.876H55.3893L53.6379 176H52.0782ZM69.6532 171.636C69.6532 172.577 69.477 173.382 69.1248 174.053C68.7753 174.72 68.2981 175.232 67.6929 175.587C67.0907 175.942 66.4074 176.119 65.6432 176.119C64.879 176.119 64.1944 175.942 63.5893 175.587C62.987 175.229 62.5097 174.716 62.1574 174.048C61.808 173.378 61.6333 172.574 61.6333 171.636C61.6333 170.696 61.808 169.892 62.1574 169.224C62.5097 168.554 62.987 168.041 63.5893 167.686C64.1944 167.331 64.879 167.153 65.6432 167.153C66.4074 167.153 67.0907 167.331 67.6929 167.686C68.2981 168.041 68.7753 168.554 69.1248 169.224C69.477 169.892 69.6532 170.696 69.6532 171.636ZM68.0637 171.636C68.0637 170.974 67.96 170.416 67.7526 169.962C67.5481 169.504 67.264 169.159 66.9003 168.926C66.5367 168.69 66.1177 168.572 65.6432 168.572C65.1688 168.572 64.7498 168.69 64.3861 168.926C64.0225 169.159 63.737 169.504 63.5296 169.962C63.325 170.416 63.2228 170.974 63.2228 171.636C63.2228 172.298 63.325 172.858 63.5296 173.315C63.737 173.77 64.0225 174.115 64.3861 174.351C64.7498 174.584 65.1688 174.7 65.6432 174.7C66.1177 174.7 66.5367 174.584 66.9003 174.351C67.264 174.115 67.5481 173.77 67.7526 173.315C67.96 172.858 68.0637 172.298 68.0637 171.636ZM71.1478 176V167.273H74.4206C75.091 167.273 75.6535 167.389 76.1081 167.622C76.5655 167.855 76.9106 168.182 77.1436 168.602C77.3794 169.02 77.4973 169.507 77.4973 170.064C77.4973 170.624 77.378 171.109 77.1393 171.521C76.9035 171.93 76.5555 172.247 76.0953 172.472C75.6351 172.693 75.0697 172.804 74.3993 172.804H72.0683V171.491H74.1862C74.5782 171.491 74.8993 171.437 75.1493 171.33C75.3993 171.219 75.5839 171.058 75.7032 170.848C75.8254 170.635 75.8865 170.374 75.8865 170.064C75.8865 169.754 75.8254 169.49 75.7032 169.271C75.5811 169.05 75.395 168.882 75.145 168.768C74.895 168.652 74.5726 168.594 74.1777 168.594H72.7288V176H71.1478ZM75.6564 172.045L77.8169 176H76.0527L73.9305 172.045H75.6564ZM78.9525 176V167.273H80.5335V171.283H80.64L84.0449 167.273H85.9753L82.6003 171.189L86.0051 176H84.1045L81.5008 172.259L80.5335 173.401V176H78.9525Z" fill="#DEDEE0"/>
<path d="M31.4018 83.8182H32.8734L36.3337 92.2699H36.453L39.9132 83.8182H41.3848V94H40.2314V86.2642H40.132L36.9501 94H35.8365L32.6547 86.2642H32.5552V94H31.4018V83.8182ZM46.8001 94.1591C46.1107 94.1591 45.5058 93.995 44.9855 93.6669C44.4684 93.3388 44.0641 92.8797 43.7724 92.2898C43.484 91.6998 43.3399 91.0104 43.3399 90.2216C43.3399 89.4261 43.484 88.7318 43.7724 88.1385C44.0641 87.5452 44.4684 87.0845 44.9855 86.7564C45.5058 86.4283 46.1107 86.2642 46.8001 86.2642C47.4895 86.2642 48.0927 86.4283 48.6098 86.7564C49.1301 87.0845 49.5345 87.5452 49.8228 88.1385C50.1145 88.7318 50.2603 89.4261 50.2603 90.2216C50.2603 91.0104 50.1145 91.6998 49.8228 92.2898C49.5345 92.8797 49.1301 93.3388 48.6098 93.6669C48.0927 93.995 47.4895 94.1591 46.8001 94.1591ZM46.8001 93.1051C47.3238 93.1051 47.7546 92.9709 48.0927 92.7024C48.4308 92.4339 48.681 92.081 48.8434 91.6435C49.0058 91.206 49.087 90.732 49.087 90.2216C49.087 89.7112 49.0058 89.2356 48.8434 88.7947C48.681 88.3539 48.4308 87.9976 48.0927 87.7259C47.7546 87.4541 47.3238 87.3182 46.8001 87.3182C46.2764 87.3182 45.8456 87.4541 45.5075 87.7259C45.1694 87.9976 44.9192 88.3539 44.7568 88.7947C44.5944 89.2356 44.5132 89.7112 44.5132 90.2216C44.5132 90.732 44.5944 91.206 44.7568 91.6435C44.9192 92.081 45.1694 92.4339 45.5075 92.7024C45.8456 92.9709 46.2764 93.1051 46.8001 93.1051ZM45.3683 85.0909C45.1595 85.0909 44.9739 85.0114 44.8115 84.8523C44.6524 84.6899 44.5728 84.5043 44.5728 84.2955C44.5728 84.0668 44.6524 83.8778 44.8115 83.7287C44.9739 83.5762 45.1595 83.5 45.3683 83.5C45.597 83.5 45.7859 83.5762 45.935 83.7287C46.0875 83.8778 46.1637 84.0668 46.1637 84.2955C46.1637 84.5043 46.0875 84.6899 45.935 84.8523C45.7859 85.0114 45.597 85.0909 45.3683 85.0909ZM48.2319 85.0909C48.0231 85.0909 47.8375 85.0114 47.6751 84.8523C47.516 84.6899 47.4365 84.5043 47.4365 84.2955C47.4365 84.0668 47.516 83.8778 47.6751 83.7287C47.8375 83.5762 48.0231 83.5 48.2319 83.5C48.4606 83.5 48.6495 83.5762 48.7987 83.7287C48.9511 83.8778 49.0274 84.0668 49.0274 84.2955C49.0274 84.5043 48.9511 84.6899 48.7987 84.8523C48.6495 85.0114 48.4606 85.0909 48.2319 85.0909ZM55.3724 86.3636V87.358H51.415V86.3636H55.3724ZM52.5684 84.5341H53.7417V91.8125C53.7417 92.1439 53.7897 92.3925 53.8859 92.5582C53.9853 92.7206 54.1112 92.83 54.2637 92.8864C54.4195 92.9394 54.5835 92.9659 54.7559 92.9659C54.8851 92.9659 54.9912 92.9593 55.0741 92.946C55.1569 92.9295 55.2232 92.9162 55.2729 92.9062L55.5116 93.9602C55.432 93.9901 55.321 94.0199 55.1785 94.0497C55.036 94.0829 54.8553 94.0994 54.6366 94.0994C54.3051 94.0994 53.9803 94.0282 53.6621 93.8857C53.3473 93.7431 53.0854 93.526 52.8766 93.2344C52.6711 92.9427 52.5684 92.5748 52.5684 92.1307V84.5341ZM60.257 94.1591C59.5212 94.1591 58.8865 93.9967 58.3528 93.6719C57.8225 93.3438 57.4132 92.8864 57.1249 92.2997C56.8398 91.7098 56.6973 91.0237 56.6973 90.2415C56.6973 89.4593 56.8398 88.7699 57.1249 88.1733C57.4132 87.5734 57.8142 87.1061 58.328 86.7713C58.845 86.4332 59.4482 86.2642 60.1376 86.2642C60.5354 86.2642 60.9281 86.3305 61.3159 86.4631C61.7037 86.5956 62.0567 86.8111 62.3749 87.1094C62.693 87.4044 62.9466 87.7955 63.1355 88.2827C63.3244 88.7699 63.4189 89.3698 63.4189 90.0824V90.5795H57.5325V89.5653H62.2257C62.2257 89.1345 62.1395 88.75 61.9672 88.4119C61.7981 88.0739 61.5562 87.8071 61.2413 87.6115C60.9298 87.416 60.5619 87.3182 60.1376 87.3182C59.6703 87.3182 59.2659 87.4342 58.9246 87.6662C58.5865 87.8949 58.3263 88.1932 58.144 88.5611C57.9617 88.929 57.8706 89.3234 57.8706 89.7443V90.4205C57.8706 90.9972 57.97 91.486 58.1689 91.8871C58.3711 92.2848 58.6511 92.5881 59.0091 92.7969C59.367 93.0024 59.783 93.1051 60.257 93.1051C60.5652 93.1051 60.8436 93.062 61.0922 92.9759C61.3441 92.8864 61.5612 92.7538 61.7435 92.5781C61.9257 92.3991 62.0666 92.1771 62.166 91.9119L63.2996 92.2301C63.1802 92.6146 62.9797 92.9527 62.698 93.2443C62.4163 93.5327 62.0683 93.758 61.654 93.9205C61.2397 94.0795 60.774 94.1591 60.257 94.1591ZM70.2349 91.2159L70.215 89.7642H70.4537L73.7946 86.3636H75.2463L71.6866 89.9631H71.5872L70.2349 91.2159ZM69.1412 94V83.8182H70.3145V94H69.1412ZM73.9935 94L71.0105 90.2216L71.8457 89.4062L75.4849 94H73.9935ZM77.9297 83.8182V94H76.7564V83.8182H77.9297ZM87.5758 83.8182V94H86.3429V85.1108H86.2832L83.7974 86.7614V85.5085L86.3429 83.8182H87.5758ZM93.6859 94.1392C93.1026 94.1392 92.5773 94.0232 92.1099 93.7912C91.6426 93.5592 91.2681 93.241 90.9864 92.8366C90.7046 92.4323 90.5505 91.9716 90.524 91.4545H91.7172C91.7636 91.9152 91.9724 92.2964 92.3436 92.598C92.7181 92.8963 93.1656 93.0455 93.6859 93.0455C94.1035 93.0455 94.4748 92.9477 94.7996 92.7521C95.1277 92.5566 95.3846 92.2881 95.5702 91.9467C95.7591 91.602 95.8535 91.2126 95.8535 90.7784C95.8535 90.3343 95.7558 89.9382 95.5602 89.5902C95.368 89.2389 95.1028 88.9621 94.7648 88.7599C94.4267 88.5578 94.0406 88.455 93.6064 88.4517C93.2948 88.4484 92.975 88.4964 92.6469 88.5959C92.3187 88.692 92.0486 88.8163 91.8365 88.9688L90.6831 88.8295L91.2996 83.8182H96.5893V84.9119H92.3337L91.9757 87.9148H92.0354C92.2442 87.7491 92.506 87.6115 92.8209 87.5021C93.1357 87.3928 93.4639 87.3381 93.8052 87.3381C94.4284 87.3381 94.9835 87.4872 95.4707 87.7855C95.9613 88.0805 96.3457 88.4848 96.6241 88.9986C96.9059 89.5123 97.0467 90.099 97.0467 90.7585C97.0467 91.4081 96.9009 91.9882 96.6092 92.4986C96.3209 93.0057 95.9231 93.4067 95.416 93.7017C94.9089 93.9934 94.3322 94.1392 93.6859 94.1392ZM99.8967 92.6974C99.6514 92.6974 99.441 92.6096 99.2653 92.4339C99.0896 92.2583 99.0018 92.0478 99.0018 91.8026C99.0018 91.5573 99.0896 91.3468 99.2653 91.1712C99.441 90.9955 99.6514 90.9077 99.8967 90.9077C100.142 90.9077 100.352 90.9955 100.528 91.1712C100.704 91.3468 100.792 91.5573 100.792 91.8026C100.792 91.965 100.75 92.1141 100.667 92.25C100.588 92.3859 100.48 92.4953 100.344 92.5781C100.212 92.6577 100.062 92.6974 99.8967 92.6974ZM99.8967 87.5469C99.6514 87.5469 99.441 87.459 99.2653 87.2834C99.0896 87.1077 99.0018 86.8973 99.0018 86.652C99.0018 86.4067 99.0896 86.1963 99.2653 86.0206C99.441 85.8449 99.6514 85.7571 99.8967 85.7571C100.142 85.7571 100.352 85.8449 100.528 86.0206C100.704 86.1963 100.792 86.4067 100.792 86.652C100.792 86.8144 100.75 86.9635 100.667 87.0994C100.588 87.2353 100.48 87.3447 100.344 87.4276C100.212 87.5071 100.062 87.5469 99.8967 87.5469ZM106.198 94.1392C105.449 94.1392 104.811 93.9354 104.284 93.5277C103.757 93.1167 103.354 92.5218 103.076 91.7429C102.798 90.9607 102.658 90.0161 102.658 88.9091C102.658 87.8087 102.798 86.8691 103.076 86.0902C103.358 85.308 103.762 84.7114 104.289 84.3004C104.819 83.8861 105.456 83.679 106.198 83.679C106.941 83.679 107.575 83.8861 108.102 84.3004C108.633 84.7114 109.037 85.308 109.315 86.0902C109.597 86.8691 109.738 87.8087 109.738 88.9091C109.738 90.0161 109.599 90.9607 109.32 91.7429C109.042 92.5218 108.639 93.1167 108.112 93.5277C107.585 93.9354 106.947 94.1392 106.198 94.1392ZM106.198 93.0455C106.941 93.0455 107.517 92.6875 107.928 91.9716C108.339 91.2557 108.545 90.2348 108.545 88.9091C108.545 88.0275 108.45 87.2768 108.261 86.657C108.076 86.0372 107.807 85.5649 107.456 85.2401C107.108 84.9152 106.689 84.7528 106.198 84.7528C105.462 84.7528 104.887 85.1158 104.473 85.8416C104.059 86.5642 103.852 87.5866 103.852 88.9091C103.852 89.7907 103.944 90.5398 104.13 91.1562C104.316 91.7727 104.582 92.2417 104.93 92.5632C105.282 92.8847 105.704 93.0455 106.198 93.0455ZM114.948 94.1392C114.199 94.1392 113.561 93.9354 113.034 93.5277C112.507 93.1167 112.104 92.5218 111.826 91.7429C111.548 90.9607 111.408 90.0161 111.408 88.9091C111.408 87.8087 111.548 86.8691 111.826 86.0902C112.108 85.308 112.512 84.7114 113.039 84.3004C113.569 83.8861 114.206 83.679 114.948 83.679C115.691 83.679 116.325 83.8861 116.852 84.3004C117.383 84.7114 117.787 85.308 118.065 86.0902C118.347 86.8691 118.488 87.8087 118.488 88.9091C118.488 90.0161 118.349 90.9607 118.07 91.7429C117.792 92.5218 117.389 93.1167 116.862 93.5277C116.335 93.9354 115.697 94.1392 114.948 94.1392ZM114.948 93.0455C115.691 93.0455 116.267 92.6875 116.678 91.9716C117.089 91.2557 117.295 90.2348 117.295 88.9091C117.295 88.0275 117.2 87.2768 117.011 86.657C116.826 86.0372 116.557 85.5649 116.206 85.2401C115.858 84.9152 115.439 84.7528 114.948 84.7528C114.212 84.7528 113.637 85.1158 113.223 85.8416C112.809 86.5642 112.602 87.5866 112.602 88.9091C112.602 89.7907 112.694 90.5398 112.88 91.1562C113.066 91.7727 113.332 92.2417 113.68 92.5632C114.032 92.8847 114.454 93.0455 114.948 93.0455ZM124.335 94V86.3636H125.468V87.5568H125.567C125.727 87.1491 125.983 86.8326 126.338 86.6072C126.693 86.3786 127.119 86.2642 127.616 86.2642C128.12 86.2642 128.539 86.3786 128.874 86.6072C129.212 86.8326 129.475 87.1491 129.664 87.5568H129.744C129.939 87.1624 130.233 86.8492 130.624 86.6172C131.015 86.3819 131.484 86.2642 132.031 86.2642C132.713 86.2642 133.272 86.478 133.706 86.9055C134.14 87.3298 134.357 87.991 134.357 88.8892V94H133.184V88.8892C133.184 88.3258 133.03 87.9231 132.722 87.6811C132.413 87.4392 132.05 87.3182 131.633 87.3182C131.096 87.3182 130.68 87.4806 130.385 87.8054C130.09 88.1269 129.942 88.5346 129.942 89.0284V94H128.749V88.7699C128.749 88.3357 128.608 87.986 128.327 87.7209C128.045 87.4524 127.682 87.3182 127.238 87.3182C126.933 87.3182 126.648 87.3994 126.383 87.5618C126.121 87.7242 125.909 87.9496 125.746 88.2379C125.587 88.523 125.508 88.8527 125.508 89.2273V94H124.335ZM139.704 94.1591C138.968 94.1591 138.334 93.9967 137.8 93.6719C137.27 93.3438 136.86 92.8864 136.572 92.2997C136.287 91.7098 136.145 91.0237 136.145 90.2415C136.145 89.4593 136.287 88.7699 136.572 88.1733C136.86 87.5734 137.262 87.1061 137.775 86.7713C138.292 86.4332 138.896 86.2642 139.585 86.2642C139.983 86.2642 140.375 86.3305 140.763 86.4631C141.151 86.5956 141.504 86.8111 141.822 87.1094C142.14 87.4044 142.394 87.7955 142.583 88.2827C142.772 88.7699 142.866 89.3698 142.866 90.0824V90.5795H136.98V89.5653H141.673C141.673 89.1345 141.587 88.75 141.414 88.4119C141.245 88.0739 141.003 87.8071 140.689 87.6115C140.377 87.416 140.009 87.3182 139.585 87.3182C139.118 87.3182 138.713 87.4342 138.372 87.6662C138.034 87.8949 137.774 88.1932 137.591 88.5611C137.409 88.929 137.318 89.3234 137.318 89.7443V90.4205C137.318 90.9972 137.417 91.486 137.616 91.8871C137.818 92.2848 138.098 92.5881 138.456 92.7969C138.814 93.0024 139.23 93.1051 139.704 93.1051C140.012 93.1051 140.291 93.062 140.539 92.9759C140.791 92.8864 141.008 92.7538 141.191 92.5781C141.373 92.3991 141.514 92.1771 141.613 91.9119L142.747 92.2301C142.628 92.6146 142.427 92.9527 142.145 93.2443C141.864 93.5327 141.516 93.758 141.101 93.9205C140.687 94.0795 140.221 94.1591 139.704 94.1591ZM147.534 94.1591C146.898 94.1591 146.336 93.9983 145.849 93.6768C145.362 93.352 144.981 92.8946 144.706 92.3047C144.431 91.7114 144.293 91.0104 144.293 90.2017C144.293 89.3996 144.431 88.7036 144.706 88.1136C144.981 87.5237 145.364 87.0679 145.854 86.7464C146.345 86.425 146.911 86.2642 147.554 86.2642C148.052 86.2642 148.444 86.3471 148.733 86.5128C149.024 86.6752 149.246 86.8608 149.399 87.0696C149.555 87.2751 149.676 87.4441 149.762 87.5767H149.861V83.8182H151.034V94H149.901V92.8267H149.762C149.676 92.9659 149.553 93.1416 149.394 93.3537C149.235 93.5625 149.008 93.7498 148.713 93.9155C148.418 94.0779 148.025 94.1591 147.534 94.1591ZM147.694 93.1051C148.164 93.1051 148.562 92.9825 148.887 92.7372C149.212 92.4886 149.458 92.1456 149.628 91.7081C149.797 91.2673 149.881 90.7585 149.881 90.1818C149.881 89.6117 149.798 89.1129 149.632 88.6854C149.467 88.2545 149.222 87.9197 148.897 87.6811C148.572 87.4392 148.171 87.3182 147.694 87.3182C147.196 87.3182 146.782 87.4458 146.451 87.701C146.123 87.9529 145.876 88.2959 145.71 88.7301C145.547 89.161 145.466 89.6449 145.466 90.1818C145.466 90.7254 145.549 91.2192 145.715 91.6634C145.884 92.1042 146.132 92.4555 146.461 92.7173C146.792 92.9759 147.203 93.1051 147.694 93.1051ZM157.443 94V83.8182H158.676V88.3523H164.105V83.8182H165.338V94H164.105V89.446H158.676V94H157.443ZM170.849 94.1591C170.113 94.1591 169.478 93.9967 168.945 93.6719C168.414 93.3438 168.005 92.8864 167.717 92.2997C167.432 91.7098 167.289 91.0237 167.289 90.2415C167.289 89.4593 167.432 88.7699 167.717 88.1733C168.005 87.5734 168.406 87.1061 168.92 86.7713C169.437 86.4332 170.04 86.2642 170.729 86.2642C171.127 86.2642 171.52 86.3305 171.908 86.4631C172.295 86.5956 172.648 86.8111 172.967 87.1094C173.285 87.4044 173.538 87.7955 173.727 88.2827C173.916 88.7699 174.011 89.3698 174.011 90.0824V90.5795H168.124V89.5653H172.817C172.817 89.1345 172.731 88.75 172.559 88.4119C172.39 88.0739 172.148 87.8071 171.833 87.6115C171.522 87.416 171.154 87.3182 170.729 87.3182C170.262 87.3182 169.858 87.4342 169.516 87.6662C169.178 87.8949 168.918 88.1932 168.736 88.5611C168.554 88.929 168.462 89.3234 168.462 89.7443V90.4205C168.462 90.9972 168.562 91.486 168.761 91.8871C168.963 92.2848 169.243 92.5881 169.601 92.7969C169.959 93.0024 170.375 93.1051 170.849 93.1051C171.157 93.1051 171.435 93.062 171.684 92.9759C171.936 92.8864 172.153 92.7538 172.335 92.5781C172.518 92.3991 172.658 92.1771 172.758 91.9119L173.891 92.2301C173.772 92.6146 173.572 92.9527 173.29 93.2443C173.008 93.5327 172.66 93.758 172.246 93.9205C171.831 94.0795 171.366 94.1591 170.849 94.1591ZM176.969 89.4062V94H175.795V86.3636H176.929V87.5568H177.028C177.207 87.169 177.479 86.8575 177.844 86.6222C178.208 86.3835 178.679 86.2642 179.256 86.2642C179.773 86.2642 180.225 86.3703 180.613 86.5824C181.001 86.7912 181.302 87.1094 181.518 87.5369C181.733 87.9612 181.841 88.4981 181.841 89.1477V94H180.668V89.2273C180.668 88.6274 180.512 88.16 180.2 87.8253C179.889 87.4872 179.461 87.3182 178.918 87.3182C178.543 87.3182 178.208 87.3994 177.913 87.5618C177.622 87.7242 177.391 87.9612 177.222 88.2727C177.053 88.5843 176.969 88.9621 176.969 89.4062ZM183.985 94V86.3636H185.118V87.517H185.198C185.337 87.1392 185.589 86.8326 185.954 86.5973C186.318 86.362 186.729 86.2443 187.187 86.2443C187.273 86.2443 187.381 86.246 187.51 86.2493C187.639 86.2526 187.737 86.2576 187.803 86.2642V87.4574C187.763 87.4474 187.672 87.4325 187.53 87.4126C187.39 87.3894 187.243 87.3778 187.087 87.3778C186.716 87.3778 186.385 87.4557 186.093 87.6115C185.805 87.764 185.576 87.9761 185.407 88.2479C185.241 88.5163 185.158 88.8229 185.158 89.1676V94H183.985ZM189.194 94V86.3636H190.367V94H189.194ZM189.791 85.0909C189.562 85.0909 189.365 85.013 189.199 84.8572C189.036 84.7015 188.955 84.5142 188.955 84.2955C188.955 84.0767 189.036 83.8894 189.199 83.7337C189.365 83.5779 189.562 83.5 189.791 83.5C190.019 83.5 190.215 83.5779 190.377 83.7337C190.543 83.8894 190.626 84.0767 190.626 84.2955C190.626 84.5142 190.543 84.7015 190.377 84.8572C190.215 85.013 190.019 85.0909 189.791 85.0909ZM193.61 91.2159L193.59 89.7642H193.829L197.17 86.3636H198.621L195.062 89.9631H194.962L193.61 91.2159ZM192.516 94V83.8182H193.689V94H192.516ZM197.368 94L194.386 90.2216L195.221 89.4062L198.86 94H197.368ZM201.881 92.608L201.802 93.1449C201.746 93.5227 201.659 93.9271 201.543 94.358C201.431 94.7888 201.313 95.1948 201.19 95.576C201.068 95.9571 200.967 96.2604 200.887 96.4858H199.992C200.035 96.2737 200.092 95.9936 200.161 95.6456C200.231 95.2976 200.3 94.9081 200.37 94.4773C200.443 94.0497 200.503 93.6122 200.549 93.1648L200.609 92.608H201.881ZM208.569 94H207.277L211.015 83.8182H212.288L216.027 94H214.734L211.692 85.429H211.612L208.569 94ZM209.047 90.0227H214.257V91.1165H209.047V90.0227ZM220.337 94.1591C219.701 94.1591 219.139 93.9983 218.652 93.6768C218.165 93.352 217.783 92.8946 217.508 92.3047C217.233 91.7114 217.096 91.0104 217.096 90.2017C217.096 89.3996 217.233 88.7036 217.508 88.1136C217.783 87.5237 218.166 87.0679 218.657 86.7464C219.147 86.425 219.714 86.2642 220.357 86.2642C220.854 86.2642 221.247 86.3471 221.535 86.5128C221.827 86.6752 222.049 86.8608 222.202 87.0696C222.357 87.2751 222.478 87.4441 222.564 87.5767H222.664V83.8182H223.837V94H222.704V92.8267H222.564C222.478 92.9659 222.356 93.1416 222.197 93.3537C222.037 93.5625 221.81 93.7498 221.515 93.9155C221.22 94.0779 220.828 94.1591 220.337 94.1591ZM220.496 93.1051C220.967 93.1051 221.365 92.9825 221.689 92.7372C222.014 92.4886 222.261 92.1456 222.43 91.7081C222.599 91.2673 222.684 90.7585 222.684 90.1818C222.684 89.6117 222.601 89.1129 222.435 88.6854C222.27 88.2545 222.024 87.9197 221.699 87.6811C221.375 87.4392 220.974 87.3182 220.496 87.3182C219.999 87.3182 219.585 87.4458 219.253 87.701C218.925 87.9529 218.678 88.2959 218.513 88.7301C218.35 89.161 218.269 89.6449 218.269 90.1818C218.269 90.7254 218.352 91.2192 218.518 91.6634C218.687 92.1042 218.935 92.4555 219.263 92.7173C219.595 92.9759 220.006 93.1051 220.496 93.1051ZM228.396 94.179C227.912 94.179 227.473 94.0878 227.079 93.9055C226.684 93.7199 226.371 93.4531 226.139 93.1051C225.907 92.7538 225.791 92.3295 225.791 91.8324C225.791 91.3949 225.877 91.0402 226.05 90.7685C226.222 90.4934 226.452 90.2779 226.741 90.1222C227.029 89.9664 227.347 89.8504 227.695 89.7741C228.046 89.6946 228.399 89.6316 228.754 89.5852C229.218 89.5256 229.594 89.4808 229.883 89.451C230.174 89.4179 230.386 89.3632 230.519 89.2869C230.655 89.2107 230.723 89.0781 230.723 88.8892V88.8494C230.723 88.3589 230.589 87.9777 230.32 87.706C230.055 87.4342 229.652 87.2983 229.112 87.2983C228.552 87.2983 228.113 87.4209 227.795 87.6662C227.476 87.9115 227.253 88.1733 227.123 88.4517L226.01 88.054C226.209 87.59 226.474 87.2287 226.805 86.9702C227.14 86.7083 227.505 86.526 227.899 86.4233C228.297 86.3172 228.688 86.2642 229.072 86.2642C229.318 86.2642 229.599 86.294 229.917 86.3537C230.239 86.41 230.549 86.5277 230.847 86.7067C231.149 86.8857 231.399 87.1558 231.598 87.517C231.797 87.8783 231.896 88.3622 231.896 88.9688V94H230.723V92.9659H230.663C230.584 93.1316 230.451 93.3089 230.265 93.4979C230.08 93.6868 229.833 93.8475 229.525 93.9801C229.216 94.1127 228.84 94.179 228.396 94.179ZM228.575 93.125C229.039 93.125 229.43 93.0339 229.748 92.8516C230.07 92.6693 230.312 92.4339 230.474 92.1456C230.64 91.8572 230.723 91.554 230.723 91.2358V90.1619C230.673 90.2216 230.564 90.2763 230.395 90.326C230.229 90.3724 230.037 90.4138 229.818 90.4503C229.603 90.4834 229.392 90.5133 229.187 90.5398C228.984 90.563 228.82 90.5829 228.694 90.5994C228.39 90.6392 228.104 90.7038 227.839 90.7933C227.578 90.8795 227.365 91.0104 227.203 91.1861C227.044 91.3584 226.964 91.5937 226.964 91.892C226.964 92.2997 227.115 92.608 227.417 92.8168C227.722 93.0223 228.108 93.125 228.575 93.125ZM234.038 94V86.3636H235.171V87.5568H235.271C235.43 87.1491 235.687 86.8326 236.041 86.6072C236.396 86.3786 236.822 86.2642 237.319 86.2642C237.823 86.2642 238.242 86.3786 238.577 86.6072C238.915 86.8326 239.178 87.1491 239.367 87.5568H239.447C239.642 87.1624 239.936 86.8492 240.327 86.6172C240.718 86.3819 241.187 86.2642 241.734 86.2642C242.416 86.2642 242.975 86.478 243.409 86.9055C243.843 87.3298 244.06 87.991 244.06 88.8892V94H242.887V88.8892C242.887 88.3258 242.733 87.9231 242.425 87.6811C242.117 87.4392 241.754 87.3182 241.336 87.3182C240.799 87.3182 240.383 87.4806 240.088 87.8054C239.793 88.1269 239.646 88.5346 239.646 89.0284V94H238.452V88.7699C238.452 88.3357 238.312 87.986 238.03 87.7209C237.748 87.4524 237.385 87.3182 236.941 87.3182C236.636 87.3182 236.351 87.3994 236.086 87.5618C235.824 87.7242 235.612 87.9496 235.45 88.2379C235.291 88.523 235.211 88.8527 235.211 89.2273V94H234.038ZM253.245 94.1591C252.556 94.1591 251.951 93.995 251.431 93.6669C250.914 93.3388 250.509 92.8797 250.218 92.2898C249.929 91.6998 249.785 91.0104 249.785 90.2216C249.785 89.4261 249.929 88.7318 250.218 88.1385C250.509 87.5452 250.914 87.0845 251.431 86.7564C251.951 86.4283 252.556 86.2642 253.245 86.2642C253.935 86.2642 254.538 86.4283 255.055 86.7564C255.575 87.0845 255.98 87.5452 256.268 88.1385C256.56 88.7318 256.706 89.4261 256.706 90.2216C256.706 91.0104 256.56 91.6998 256.268 92.2898C255.98 92.8797 255.575 93.3388 255.055 93.6669C254.538 93.995 253.935 94.1591 253.245 94.1591ZM253.245 93.1051C253.769 93.1051 254.2 92.9709 254.538 92.7024C254.876 92.4339 255.126 92.081 255.289 91.6435C255.451 91.206 255.532 90.732 255.532 90.2216C255.532 89.7112 255.451 89.2356 255.289 88.7947C255.126 88.3539 254.876 87.9976 254.538 87.7259C254.2 87.4541 253.769 87.3182 253.245 87.3182C252.722 87.3182 252.291 87.4541 251.953 87.7259C251.615 87.9976 251.364 88.3539 251.202 88.7947C251.04 89.2356 250.958 89.7112 250.958 90.2216C250.958 90.732 251.04 91.206 251.202 91.6435C251.364 92.081 251.615 92.4339 251.953 92.7024C252.291 92.9709 252.722 93.1051 253.245 93.1051ZM261.599 94.1591C260.883 94.1591 260.267 93.9901 259.749 93.652C259.232 93.3139 258.835 92.8482 258.556 92.255C258.278 91.6617 258.139 90.9839 258.139 90.2216C258.139 89.446 258.281 88.7616 258.566 88.1683C258.855 87.5717 259.256 87.1061 259.769 86.7713C260.286 86.4332 260.89 86.2642 261.579 86.2642C262.116 86.2642 262.6 86.3636 263.031 86.5625C263.462 86.7614 263.815 87.0398 264.09 87.3977C264.365 87.7557 264.535 88.1733 264.602 88.6506H263.428C263.339 88.3026 263.14 87.9943 262.832 87.7259C262.527 87.4541 262.116 87.3182 261.599 87.3182C261.142 87.3182 260.74 87.4375 260.396 87.6761C260.054 87.9115 259.788 88.2446 259.595 88.6754C259.406 89.103 259.312 89.6051 259.312 90.1818C259.312 90.7718 259.405 91.2855 259.59 91.723C259.779 92.1605 260.044 92.5002 260.386 92.7422C260.731 92.9841 261.135 93.1051 261.599 93.1051C261.904 93.1051 262.181 93.0521 262.429 92.946C262.678 92.84 262.888 92.6875 263.061 92.4886C263.233 92.2898 263.356 92.0511 263.428 91.7727H264.602C264.535 92.2235 264.371 92.6295 264.11 92.9908C263.851 93.3487 263.508 93.6338 263.08 93.8459C262.656 94.0547 262.162 94.1591 261.599 94.1591ZM267.49 89.4062V94H266.317V83.8182H267.49V87.5568H267.59C267.769 87.1624 268.037 86.8492 268.395 86.6172C268.756 86.3819 269.237 86.2642 269.837 86.2642C270.357 86.2642 270.813 86.3686 271.204 86.5774C271.595 86.7829 271.898 87.0994 272.114 87.527C272.333 87.9512 272.442 88.4915 272.442 89.1477V94H271.269V89.2273C271.269 88.6207 271.111 88.1518 270.796 87.8203C270.485 87.4856 270.052 87.3182 269.499 87.3182C269.114 87.3182 268.77 87.3994 268.465 87.5618C268.163 87.7242 267.924 87.9612 267.749 88.2727C267.576 88.5843 267.49 88.9621 267.49 89.4062ZM35.2996 100.818H36.5325V108.097C36.5325 108.746 36.4132 109.298 36.1746 109.752C35.9359 110.206 35.5995 110.551 35.1653 110.786C34.7311 111.022 34.2191 111.139 33.6291 111.139C33.0723 111.139 32.5768 111.038 32.1426 110.836C31.7084 110.63 31.367 110.339 31.1185 109.961C30.8699 109.583 30.7456 109.134 30.7456 108.614H31.9587C31.9587 108.902 32.0299 109.154 32.1724 109.369C32.3183 109.581 32.5171 109.747 32.769 109.866C33.0209 109.986 33.3076 110.045 33.6291 110.045C33.9838 110.045 34.2854 109.971 34.5339 109.822C34.7825 109.673 34.9714 109.454 35.1007 109.165C35.2333 108.874 35.2996 108.518 35.2996 108.097V100.818ZM42.046 111.159C41.3102 111.159 40.6755 110.997 40.1419 110.672C39.6116 110.344 39.2023 109.886 38.9139 109.3C38.6289 108.71 38.4864 108.024 38.4864 107.241C38.4864 106.459 38.6289 105.77 38.9139 105.173C39.2023 104.573 39.6033 104.106 40.117 103.771C40.6341 103.433 41.2373 103.264 41.9267 103.264C42.3244 103.264 42.7172 103.33 43.105 103.463C43.4927 103.596 43.8457 103.811 44.1639 104.109C44.4821 104.404 44.7356 104.795 44.9246 105.283C45.1135 105.77 45.2079 106.37 45.2079 107.082V107.58H39.3216V106.565H44.0148C44.0148 106.134 43.9286 105.75 43.7562 105.412C43.5872 105.074 43.3453 104.807 43.0304 104.612C42.7188 104.416 42.3509 104.318 41.9267 104.318C41.4594 104.318 41.055 104.434 40.7136 104.666C40.3756 104.895 40.1154 105.193 39.9331 105.561C39.7508 105.929 39.6597 106.323 39.6597 106.744V107.42C39.6597 107.997 39.7591 108.486 39.9579 108.887C40.1601 109.285 40.4402 109.588 40.7981 109.797C41.1561 110.002 41.5721 110.105 42.046 110.105C42.3543 110.105 42.6327 110.062 42.8812 109.976C43.1331 109.886 43.3502 109.754 43.5325 109.578C43.7148 109.399 43.8557 109.177 43.9551 108.912L45.0886 109.23C44.9693 109.615 44.7688 109.953 44.4871 110.244C44.2053 110.533 43.8573 110.758 43.443 110.92C43.0287 111.08 42.5631 111.159 42.046 111.159ZM48.166 106.406V111H46.9927V103.364H48.1263V104.557H48.2257C48.4047 104.169 48.6765 103.857 49.041 103.622C49.4056 103.384 49.8763 103.264 50.453 103.264C50.97 103.264 51.4224 103.37 51.8102 103.582C52.198 103.791 52.4996 104.109 52.715 104.537C52.9305 104.961 53.0382 105.498 53.0382 106.148V111H51.8649V106.227C51.8649 105.627 51.7091 105.16 51.3976 104.825C51.086 104.487 50.6585 104.318 50.1149 104.318C49.7404 104.318 49.4056 104.399 49.1106 104.562C48.819 104.724 48.5886 104.961 48.4196 105.273C48.2506 105.584 48.166 105.962 48.166 106.406ZM56.3555 106.406V111H55.1822V103.364H56.3157V104.557H56.4152C56.5941 104.169 56.8659 103.857 57.2305 103.622C57.5951 103.384 58.0657 103.264 58.6424 103.264C59.1595 103.264 59.6119 103.37 59.9997 103.582C60.3875 103.791 60.6891 104.109 60.9045 104.537C61.1199 104.961 61.2277 105.498 61.2277 106.148V111H60.0544V106.227C60.0544 105.627 59.8986 105.16 59.587 104.825C59.2755 104.487 58.8479 104.318 58.3044 104.318C57.9298 104.318 57.5951 104.399 57.3001 104.562C57.0084 104.724 56.7781 104.961 56.609 105.273C56.44 105.584 56.3555 105.962 56.3555 106.406ZM63.8539 113.864C63.655 113.864 63.4777 113.847 63.3219 113.814C63.1662 113.784 63.0584 113.754 62.9988 113.724L63.2971 112.69C63.5821 112.763 63.834 112.79 64.0528 112.77C64.2715 112.75 64.4654 112.652 64.6344 112.477C64.8068 112.304 64.9642 112.024 65.1067 111.636L65.3255 111.04L62.5016 103.364H63.7744L65.8823 109.449H65.9619L68.0698 103.364H69.3425L66.1011 112.114C65.9552 112.508 65.7746 112.835 65.5592 113.093C65.3437 113.355 65.0935 113.549 64.8084 113.675C64.5267 113.801 64.2085 113.864 63.8539 113.864ZM71.2678 111.08C71.0225 111.08 70.8121 110.992 70.6364 110.816C70.4607 110.64 70.3729 110.43 70.3729 110.185C70.3729 109.939 70.4607 109.729 70.6364 109.553C70.8121 109.378 71.0225 109.29 71.2678 109.29C71.513 109.29 71.7235 109.378 71.8992 109.553C72.0748 109.729 72.1627 109.939 72.1627 110.185C72.1627 110.347 72.1212 110.496 72.0384 110.632C71.9588 110.768 71.8511 110.877 71.7152 110.96C71.5827 111.04 71.4335 111.08 71.2678 111.08Z" fill="#DADADA"/>
<rect x="208.169" y="159" width="68" height="32" rx="5" fill="#2F2F31"/>
<path d="M218.419 178.938V181.75H221.231L229.526 173.455L226.714 170.643L218.419 178.938ZM231.701 171.28C231.771 171.211 231.826 171.128 231.864 171.037C231.901 170.947 231.921 170.849 231.921 170.751C231.921 170.653 231.901 170.556 231.864 170.465C231.826 170.374 231.771 170.292 231.701 170.223L229.946 168.468C229.877 168.398 229.795 168.343 229.704 168.305C229.613 168.268 229.516 168.248 229.418 168.248C229.319 168.248 229.222 168.268 229.131 168.305C229.041 168.343 228.958 168.398 228.889 168.468L227.516 169.84L230.329 172.653L231.701 171.28Z" fill="#DADADA"/>
<line x1="242.669" y1="163" x2="242.669" y2="187" stroke="#DADADA"/>
<path d="M265.169 169.75C265.368 169.75 265.559 169.829 265.699 169.97C265.84 170.11 265.919 170.301 265.919 170.5C265.919 170.699 265.84 170.89 265.699 171.03C265.559 171.171 265.368 171.25 265.169 171.25H264.419L264.417 171.303L263.717 181.107C263.69 181.485 263.521 181.839 263.243 182.098C262.965 182.356 262.6 182.5 262.221 182.5H256.116C255.737 182.5 255.372 182.356 255.094 182.098C254.816 181.839 254.647 181.485 254.62 181.107L253.92 171.304C253.919 171.286 253.919 171.268 253.919 171.25H253.169C252.97 171.25 252.779 171.171 252.639 171.03C252.498 170.89 252.419 170.699 252.419 170.5C252.419 170.301 252.498 170.11 252.639 169.97C252.779 169.829 252.97 169.75 253.169 169.75H265.169ZM262.917 171.25H255.421L256.117 181H262.221L262.917 171.25ZM260.669 167.5C260.868 167.5 261.059 167.579 261.199 167.72C261.34 167.86 261.419 168.051 261.419 168.25C261.419 168.449 261.34 168.64 261.199 168.78C261.059 168.921 260.868 169 260.669 169H257.669C257.47 169 257.279 168.921 257.139 168.78C256.998 168.64 256.919 168.449 256.919 168.25C256.919 168.051 256.998 167.86 257.139 167.72C257.279 167.579 257.47 167.5 257.669 167.5H260.669Z" fill="#DADADA"/>
<defs>
<filter id="filter0_d_13_177" x="0.168884" y="0" width="301.169" height="218" filterUnits="userSpaceOnUse" color-interpolation-filters="sRGB">
<feFlood flood-opacity="0" result="BackgroundImageFix"/>
<feColorMatrix in="SourceAlpha" type="matrix" values="0 0 0 0 0 0 0 0 0 0 0 0 0 0 0 0 0 0 127 0" result="hardAlpha"/>
<feOffset dy="4"/>
<feGaussianBlur stdDeviation="2"/>
<feComposite in2="hardAlpha" operator="out"/>
<feColorMatrix type="matrix" values="0 0 0 0 0 0 0 0 0 0 0 0 0 0 0 0 0 0 0.25 0"/>
<feBlend mode="normal" in2="BackgroundImageFix" result="effect1_dropShadow_13_177"/>
<feBlend mode="normal" in="SourceGraphic" in2="effect1_dropShadow_13_177" result="shape"/>
</filter>
</defs>
</svg>
